<svg xmlns="http://www.w3.org/2000/svg" width="17" height="14" viewBox="0 0 17 14"><defs><style>.a{fill:#1da1f2;}</style></defs><path class="a" d="M17,1.663a7.357,7.357,0,0,1-1.747,1.827q.011.153.011.459a10.166,10.166,0,0,1-.41,2.838A10.324,10.324,0,0,1,13.608,9.5a10.641,10.641,0,0,1-1.99,2.3,8.83,8.83,0,0,1-2.783,1.6A10.059,10.059,0,0,1,5.35,14,9.578,9.578,0,0,1,0,12.414a7.355,7.355,0,0,0,.841.044,6.762,6.762,0,0,0,4.326-1.509,3.367,3.367,0,0,1-2.028-.705A3.455,3.455,0,0,1,1.909,8.5a4.354,4.354,0,0,0,.658.055,3.558,3.558,0,0,0,.917-.12,3.42,3.42,0,0,1-2-1.22A3.442,3.442,0,0,1,.69,4.966V4.922a3.421,3.421,0,0,0,1.575.448A3.546,3.546,0,0,1,.712,2.428,3.5,3.5,0,0,1,1.187.645,9.9,9.9,0,0,0,4.363,3.254,9.6,9.6,0,0,0,8.371,4.342a3.977,3.977,0,0,1-.086-.809A3.429,3.429,0,0,1,9.3,1.034a3.459,3.459,0,0,1,5.01.082A6.775,6.775,0,0,0,16.525.262a3.422,3.422,0,0,1-1.532,1.947A6.867,6.867,0,0,0,17,1.663Z"/></svg>