<svg xmlns="http://www.w3.org/2000/svg" width="24" height="21" viewBox="0 0 24 21"><defs><style>.a{fill:#545454;}</style></defs><path class="a" d="M6.1,25.446H6.12a10.557,10.557,0,0,0,4.685-1.153A23.884,23.884,0,0,0,15.291,21.4l.552-.436a49.645,49.645,0,0,0,4.293-3.645,15.088,15.088,0,0,0,3.122-4.138,7.114,7.114,0,0,0,.72-3.366A6.1,6.1,0,0,0,22.4,6.093a8.383,8.383,0,0,0-1.232-1.132,2.4,2.4,0,0,0-2.493-.293A7.027,7.027,0,0,0,15.2,7.741a1.75,1.75,0,0,0-.024,1.808q.2.346.411.692c.139.231.257.427.382.641l.132.231a8.955,8.955,0,0,1,.509.915.336.336,0,0,1-.05.438l-.461.482c-.567.593-1.15,1.206-1.76,1.757a32.864,32.864,0,0,1-4.526,3.472c-.291.182-.6.344-.927.516l-.163.085a.313.313,0,0,1-.351-.023,11.423,11.423,0,0,1-.946-.692c-.24-.187-.48-.38-.706-.574s-.413-.344-.624-.512a2.064,2.064,0,0,0-2.015-.318,7.253,7.253,0,0,0-3.6,2.628A2.288,2.288,0,0,0,.34,21.936a6.8,6.8,0,0,0,4.975,3.458,5.6,5.6,0,0,0,.646.048h.149ZM19.712,5.8A.89.89,0,0,1,20.278,6a7.192,7.192,0,0,1,1.033.941,4.72,4.72,0,0,1,1.263,2.933,5.856,5.856,0,0,1-.615,2.767A13.507,13.507,0,0,1,19.121,16.4a48.594,48.594,0,0,1-4.166,3.534l-.555.438a22.522,22.522,0,0,1-4.224,2.721A9.1,9.1,0,0,1,6.137,24.1H5.993a4.4,4.4,0,0,1-.48-.035,5.34,5.34,0,0,1-3.972-2.79.989.989,0,0,1,.07-1.21,5.881,5.881,0,0,1,2.918-2.137.613.613,0,0,1,.651.085c.2.161.4.327.6.493.24.2.48.4.735.6a12.819,12.819,0,0,0,1.064.768,1.757,1.757,0,0,0,1.8.069l.161-.083c.339-.175.687-.36,1.025-.572A34.281,34.281,0,0,0,15.3,15.682c.646-.586,1.249-1.217,1.832-1.828l.456-.475a1.641,1.641,0,0,0,.293-1.916c-.17-.357-.37-.692-.562-1.021l-.13-.231c-.127-.231-.259-.438-.391-.657s-.269-.445-.4-.669a.446.446,0,0,1,.026-.507,5.681,5.681,0,0,1,2.8-2.474A1.242,1.242,0,0,1,19.712,5.8Z" transform="translate(0.017 -4.446)"/></svg>