<svg xmlns="http://www.w3.org/2000/svg" width="80" height="80" viewBox="0 0 80 80"><defs><style>.a{fill:none;}.b{fill:#bc1c86;}</style></defs><rect class="a" width="80" height="80"/><g transform="translate(2 3)"><path class="b" d="M-221.542,355.9c.313-6.177,5.4-6.1,5.942-6.1.469,0,5.63-.078,5.942,6.1,0,0,1.016,9.226-5.864,9.3h-.156C-222.559,365.125-221.542,355.9-221.542,355.9Zm-6.8,20.173v-1.407h0c.078-1.955.469-3.362,2.424-4.613a53.073,53.073,0,0,1,5.708-3.128l2.424,7.584,1.407-3.988c-2.424-3.44.156-3.6.626-3.6h0c.469,0,3.128.156.626,3.6l1.407,3.988,2.424-7.584s2.971,1.486,5.708,3.128a4.647,4.647,0,0,1,2.424,4.613h0v6.724h-25.177v-5.473C-228.345,375.993-228.345,376.072-228.345,376.072Zm25.177-1.407Zm-25.1,0Zm38.078,32.761h.078c6.881-.078,5.864-9.3,5.864-9.3-.313-6.177-5.4-6.1-5.942-6.1-.469,0-5.63-.078-5.942,6.1C-196.053,398.121-197.069,407.347-190.189,407.425Zm-12.588,10.868v-1.407h0c.078-1.955.469-3.362,2.424-4.613a53.073,53.073,0,0,1,5.708-3.128l2.424,7.584,1.407-3.988c-2.424-3.44.156-3.6.626-3.6h0c.469,0,3.128.156.626,3.6l1.407,3.988,2.424-7.584s2.971,1.486,5.708,3.128a4.647,4.647,0,0,1,2.424,4.613h0v6.724h-25.177v-5.473C-202.777,418.216-202.777,418.294-202.777,418.294Zm25.177-1.407Zm-25.177,0Zm-38.313-9.461h.078c6.881-.078,5.864-9.3,5.864-9.3-.313-6.177-5.4-6.1-5.942-6.1-.469,0-5.63-.078-5.942,6.1C-246.954,398.121-247.97,407.347-241.09,407.425Zm-12.51,10.868v-1.407h0c.078-1.955.469-3.362,2.424-4.613a53.073,53.073,0,0,1,5.708-3.128l2.424,7.584,1.407-3.988c-2.424-3.44.156-3.6.626-3.6h0c.469,0,3.128.156.626,3.6l1.407,3.988,2.424-7.584s2.971,1.486,5.708,3.128a4.647,4.647,0,0,1,2.424,4.613h0v6.724H-253.6v-5.473C-253.6,418.216-253.6,418.294-253.6,418.294Zm25.177-1.407Zm-25.177,0Zm38.782-29.556h.235a5.152,5.152,0,0,1,.235-2.424c.156-.391-.313-.782-.626-.547a6.3,6.3,0,0,0-2.5,3.049C-216.616,387.331-215.678,387.331-214.818,387.331Zm-9.774,19.391c-.078-.078-.078-.156-.156-.156a4.363,4.363,0,0,1-1.955,1.564.45.45,0,0,0,.078.86,6.444,6.444,0,0,0,3.909-.391A21.234,21.234,0,0,1-224.592,406.722Zm15.872,1.8a6.444,6.444,0,0,0,3.909.391.464.464,0,0,0,.078-.86,5.419,5.419,0,0,1-1.955-1.564c-.078.078-.078.156-.156.156A10.658,10.658,0,0,1-208.719,408.52Zm-17.514-9.461a10.478,10.478,0,0,1,10.477-10.477,10.478,10.478,0,0,1,10.477,10.477,10.478,10.478,0,0,1-10.477,10.477A10.478,10.478,0,0,1-226.234,399.059Zm13.683,0a1.4,1.4,0,0,0,1.407,1.407h0a1.4,1.4,0,0,0,1.407-1.407,1.4,1.4,0,0,0-1.407-1.407h0A1.4,1.4,0,0,0-212.551,399.059Zm-4.535,0a1.4,1.4,0,0,0,1.407,1.407h0a1.4,1.4,0,0,0,1.407-1.407,1.4,1.4,0,0,0-1.407-1.407h0A1.4,1.4,0,0,0-217.086,399.059Zm-4.613,0a1.4,1.4,0,0,0,1.407,1.407h0a1.4,1.4,0,0,0,1.407-1.407,1.4,1.4,0,0,0-1.407-1.407h0A1.4,1.4,0,0,0-221.7,399.059Z" transform="translate(253.6 -349.8)"/></g></svg>