<svg xmlns="http://www.w3.org/2000/svg" width="80" height="80" viewBox="0 0 80 80"><defs><style>.a{fill:none;}.b{fill:#bc1c86;}</style></defs><rect class="a" width="80" height="80"/><g transform="translate(2 6)"><path class="b" d="M10.1,40.522a8.368,8.368,0,0,0,.82,3.117A86.948,86.948,0,0,0,18.63,56.187l.246.41a.783.783,0,0,0,.985.246.7.7,0,0,0,.246-1.066L13.3,44.7a2.817,2.817,0,0,1,.985-3.773,2.737,2.737,0,0,1,3.774.82l7.056,9.1a10.729,10.729,0,0,0,1.969,1.886c6.4,4.593,7.22,9.186,7.794,11.564a8.819,8.819,0,0,1,.082,1.312h0a21.505,21.505,0,0,1-.082,2.214l-.41,7.627a1,1,0,0,1-.985.984l-11.9-.082a1,1,0,0,1-.985-.984l-.246-6.315L8.948,55.449a12.065,12.065,0,0,1-3.2-6.151l-.082-.738L3.7,29.45a2.815,2.815,0,0,1,.985-2.46,2.363,2.363,0,0,1,3.364.164c.738.82,1.067,3.445,1.231,4.183a76.625,76.625,0,0,1,.9,8.611A1.4,1.4,0,0,0,10.1,40.522Zm2.133-1.886v.656a4.509,4.509,0,0,1,.738-.574,3.11,3.11,0,0,1,1.067-.492.08.08,0,0,1,.082-.082c-.246-1.968-.985-5.741-1.477-7.627a2.592,2.592,0,0,0-1.805-1.968,8.417,8.417,0,0,1,.41,1.968A70.629,70.629,0,0,1,12.23,38.636Zm3.856-.738a6.393,6.393,0,0,1,1.723.328,44.512,44.512,0,0,0-1.395-5,2.592,2.592,0,0,0-1.805-1.968c.328,1.476,1.149,4.1,1.313,5.495l.164.984Zm59.32-10.744c-.738.82-1.067,3.445-1.231,4.183a76.625,76.625,0,0,0-.9,8.611v.574a8.368,8.368,0,0,1-.82,3.117A86.947,86.947,0,0,1,64.74,56.187l-.246.41a.783.783,0,0,1-.985.246.7.7,0,0,1-.246-1.066L70.073,44.7a2.817,2.817,0,0,0-.985-3.773,2.737,2.737,0,0,0-3.774.82l-7.056,9.1a10.728,10.728,0,0,1-1.969,1.886c-6.4,4.593-7.22,9.186-7.794,11.564a8.819,8.819,0,0,0-.082,1.312h0a21.505,21.505,0,0,0,.082,2.214l.41,7.627a1,1,0,0,0,.985.984l11.9-.082a1,1,0,0,0,.985-.984l.246-6.315L74.34,55.449a12.065,12.065,0,0,0,3.2-6.151l.082-.738L79.673,29.45a3.061,3.061,0,0,0-.985-2.542A2.35,2.35,0,0,0,75.406,27.154Zm-6.154,10.99h0a7.5,7.5,0,0,1,1.149.574,4.509,4.509,0,0,1,.738.574v-.656a70.2,70.2,0,0,1,.9-8.119,16.793,16.793,0,0,1,.41-1.968,2.724,2.724,0,0,0-1.805,1.968C70.237,32.4,69.5,36.176,69.253,38.144Zm-3.61.082a6.393,6.393,0,0,1,1.723-.328v-.246l.164-.984c.164-1.394.985-4.019,1.313-5.495a2.724,2.724,0,0,0-1.805,1.968A42.993,42.993,0,0,0,65.643,38.226Zm-4.431-8.119a2.717,2.717,0,0,0-.328,3.2l.574.9a2.723,2.723,0,0,1-1.313,3.855l-.985.41a2.844,2.844,0,0,0-1.723,2.706l.082,1.066A2.778,2.778,0,0,1,54.648,45.2l-1.067-.082a2.77,2.77,0,0,0-2.708,1.722l-.41.984a2.7,2.7,0,0,1-3.856,1.394l-.985-.492a2.734,2.734,0,0,0-3.2.41l-.82.738a2.755,2.755,0,0,1-4.1-.41l-.656-.9a2.725,2.725,0,0,0-3.036-1.066l-1.067.328a2.817,2.817,0,0,1-3.528-2.132l-.164-1.066a2.7,2.7,0,0,0-2.3-2.214l-1.067-.164A2.7,2.7,0,0,1,23.471,38.8l.328-1.066A2.723,2.723,0,0,0,22.732,34.7l-.9-.574a2.756,2.756,0,0,1-.492-4.1l.738-.82a2.717,2.717,0,0,0,.328-3.2l-.574-.9a2.723,2.723,0,0,1,1.313-3.855l.985-.41a2.844,2.844,0,0,0,1.723-2.706l-.082-1.066a2.778,2.778,0,0,1,2.872-2.952l1.067.082a2.77,2.77,0,0,0,2.708-1.722l.41-.984A2.7,2.7,0,0,1,36.68,10.1l.985.492a2.734,2.734,0,0,0,3.2-.41l.82-.738a2.755,2.755,0,0,1,4.1.41l.656.9a2.725,2.725,0,0,0,3.036,1.066l1.067-.328a2.817,2.817,0,0,1,3.528,2.132l.164,1.066a2.7,2.7,0,0,0,2.3,2.214l1.067.164a2.7,2.7,0,0,1,2.215,3.445l-.328,1.066a2.723,2.723,0,0,0,1.067,3.035l.9.574a2.756,2.756,0,0,1,.492,4.1ZM54.73,29.7a13.045,13.045,0,1,0-13.045,13.04A13.023,13.023,0,0,0,54.73,29.7Zm-5.579-3.363-4.759-.328-1.805-4.429a1.045,1.045,0,0,0-.9-.656.96.96,0,0,0-.9.656l-1.805,4.429-4.759.328a1.013,1.013,0,0,0-.574,1.8l3.692,3.035-1.149,4.593a.972.972,0,0,0,.9,1.23,1.166,1.166,0,0,0,.492-.164l4.02-2.46,4.1,2.46A1.166,1.166,0,0,0,46.2,37a1.069,1.069,0,0,0,.985-1.23l-1.149-4.675,3.692-3.035A.958.958,0,0,0,49.151,26.334Z" transform="translate(-3.685 -8.705)"/></g></svg>