<svg xmlns="http://www.w3.org/2000/svg" width="393" height="131" viewBox="0 0 393 131"><defs><style>.a{fill:#bc1c86;}</style></defs><path class="a" d="M94.83,130.76H58.86V108.906H0V79.038L56.318,0H94.83V77.945H109v30.961H94.83v21.853ZM47.676,94.2l0,0a42.848,42.848,0,0,0,4.926,2.312c1.061.413,2.129.79,3.174,1.118.11.035.222.073.341.115l.046.016a5.823,5.823,0,0,0,1.2.325,6.4,6.4,0,0,0,3.375,3.932.132.132,0,0,0,.057.014.148.148,0,0,0,.12-.067.138.138,0,0,0,.018-.13,22.579,22.579,0,0,0-2.165-4.34.877.877,0,0,0,.083-.631c-.191-.86-1.243-1.01-1.561-1.034-.268-.023-.534-.041-.8-.06h-.016a16.967,16.967,0,0,1-2.143-.241,18.833,18.833,0,0,1-3.059-.914,39.648,39.648,0,0,1-4.565-2.229,40.444,40.444,0,0,1-2.9-8.633c-.148-.7-.255-1.441-.35-2.094l-.015-.1c.452.026.946.04,1.47.04.787,0,1.624-.031,2.559-.1h.016a31.616,31.616,0,0,0,4.959-.622A8.2,8.2,0,0,0,56.083,79.1l.037.053,0,0h0c.013.019.026.036.037.054,1.03,1.466,2.039,2.9,3.056,4.281.109.147.217.3.326.449a11.879,11.879,0,0,0,1.69,2.019,3.024,3.024,0,0,0,1.725.863,1.03,1.03,0,0,0,.379-.068.627.627,0,0,0,.367-.337,1.012,1.012,0,0,0-.046-.763c2.26-.167,4.665-.348,7.04-.573.933-.089,1.88-.185,2.8-.277l.216-.021q.628-.064,1.256-.126c.183-.019.366-.032.561-.046l.087-.007a6.073,6.073,0,0,0,2.34-.473A2.249,2.249,0,0,0,78.167,84a14.39,14.39,0,0,0,2.554,2.734,2.678,2.678,0,0,0,1.344.631c.3,0,.488-.181.545-.539a1.708,1.708,0,0,0-.454-1.084c-.033-.045-.064-.089-.092-.13a8.813,8.813,0,0,0-1.237-1.439A8.653,8.653,0,0,0,78.7,82.7a1.58,1.58,0,0,0-1.554-1.084h-.026a6.867,6.867,0,0,0-2.3.571c-.374.139-.726.27-1.077.368a39.13,39.13,0,0,1-3.947.874,38.165,38.165,0,0,1-4.2.479c-.415.023-.862.034-1.406.034-.375,0-.77-.006-1.087-.01-.259,0-.582-.008-.889-.009-.267-.3-.54-.618-.812-.95a28.6,28.6,0,0,1-2.208-3.089c-.119-.194-.267-.436-.4-.671.087.007.182.014.3.021l.033,0c2.052.127,3.987.234,5.916.329l.437.021c.952.048,2.031.1,3.071.1a21.949,21.949,0,0,0,2.389-.117,11.459,11.459,0,0,0,4.7-1.47A13.431,13.431,0,0,0,79.279,74.7a56.878,56.878,0,0,0,5.6-9.08c.6-1.186,1.2-2.559.647-3.833a4.108,4.108,0,0,0-2.911-2.063,13.628,13.628,0,0,0-1.6-.347c-.187-.035-.382-.065-.582-.088-.53-.071-1.072-.122-1.608-.15a10.469,10.469,0,0,0,.394-2.433c.015-.378.013-.72-.007-1.044-.206-.265-.433-.531-.674-.789a10.276,10.276,0,0,0-1.885-1.583c.4-.39.767-.771,1.115-1.168.165-.183.284-.32.387-.446a16.229,16.229,0,0,0,.979-1.311,4.122,4.122,0,0,0,.855-3.471c-.413-1.327-1.761-1.975-2.993-2.478a56.606,56.606,0,0,0-10.162-3.192,15.749,15.749,0,0,0-3.113-.34,10.728,10.728,0,0,0-1.866.157q-.138.025-.274.053v-.118l-.1.139a11.751,11.751,0,0,0-4.141,1.9,34.757,34.757,0,0,0-4.138,3.569l-.007.007-.312.3c-1.352,1.292-2.784,2.681-4.258,4.125l-.12.118-.03.029-.089.087c-.046-.236-.087-.479-.126-.712l0-.022-.006-.033a29.486,29.486,0,0,1-.341-3.784c-.013-.4-.016-.82-.009-1.254.227-.2.45-.4.64-.566.585-.521,1.249-1.112,1.93-1.637a37.32,37.32,0,0,1,3.488-2.394,39.063,39.063,0,0,1,3.556-1.929c.315-.148.651-.275,1.007-.41l.036-.014a9.273,9.273,0,0,0,1.71-.775,3.36,3.36,0,0,0,.432-.32,1.591,1.591,0,0,0,.468-1.843,8.883,8.883,0,0,0,.645-4.408c-.005-.046-.01-.095-.015-.146V30.98a1.691,1.691,0,0,0-.364-1.115.683.683,0,0,0-.429-.188c-.661,0-.931,1.436-.942,1.5a14.708,14.708,0,0,0-.143,3.744,1.766,1.766,0,0,0-.241.044h-.005A6.094,6.094,0,0,0,57.6,36.141c-.171.128-.349.261-.525.385l-.191.135-.69.487c-.836.59-1.732,1.223-2.621,1.856-1.95,1.393-3.885,2.829-5.7,4.182l-.016-.053c-.07-.184-.279-.611-.706-.611a.729.729,0,0,0-.237.043c-.771.271-1.007,1.478-1.072,1.984a11.861,11.861,0,0,0,.037,2.608v.012c.014.158.033.364.048.568.131,1.716.3,3.458.484,5.24v.008c0,.043.008.086.011.128h-.086a8.178,8.178,0,0,0-3.821,1.038,31.034,31.034,0,0,0-4.169,2.791,30.961,30.961,0,0,0-3.083,2.6l-.091-.143c-.342-.535-.729-1.142-1.067-1.755a39.887,39.887,0,0,1-3.441-8.429l.016-.042a39.9,39.9,0,0,1,1.981-4.637,18.846,18.846,0,0,1,1.717-2.7,16.282,16.282,0,0,1,1.459-1.583l.015-.015c.224-.221.406-.4.571-.572.223-.228.918-1.034.5-1.806a.887.887,0,0,0-.478-.425,22.642,22.642,0,0,0-1.194-4.7.143.143,0,0,0-.137-.09.135.135,0,0,0-.13.083A6.432,6.432,0,0,0,35,37.908a5.95,5.95,0,0,0-.694,1.037l-.021.037c-.064.109-.124.215-.185.314-.6.968-1.158,1.952-1.672,2.926a42.95,42.95,0,0,0-2.219,4.986c-.056-.311-.1-.623-.154-.982a.181.181,0,0,0-.178-.161.17.17,0,0,0-.132.063c-1.744,2.044-.921,5.053-.151,7.139a29.094,29.094,0,0,0,4.314,7.679l.016.021A15.375,15.375,0,0,0,32.3,63.279c-.761.059-1.515.088-2.243.088a26.441,26.441,0,0,1-5.917-.659,28.282,28.282,0,0,1-3.39-1.086c-.455-.168-.9-.329-1.342-.483A4.158,4.158,0,0,0,18.08,60.9a2.169,2.169,0,0,0-1.331.4,1.192,1.192,0,0,0-.122.1,1.876,1.876,0,0,0-.4.515.192.192,0,0,0-.013.143.124.124,0,0,0,.063.072c.145.073.258.128.357.172a22.327,22.327,0,0,1-.565,4.727,21.281,21.281,0,0,1-1.57,4.486c-.259.532-.551,1.079-.834,1.607l-.012.021a16.045,16.045,0,0,0-2.041,5.142l-.3.057-.183.033-.01,0a13.947,13.947,0,0,0-2.638.664,1.493,1.493,0,0,0-.825.741.767.767,0,0,0,.018.625.993.993,0,0,0,1.019.5,4.332,4.332,0,0,0,.671-.063,11.383,11.383,0,0,0,2.271-.52l0,.021a.15.15,0,0,0,.152.117.14.14,0,0,0,.125-.068l.006-.012c.046-.079.091-.156.136-.237l.013-.021.09-.158c.043-.073.086-.147.127-.221A53.345,53.345,0,0,0,18.4,63.063a26.613,26.613,0,0,0,3.23,1.036,24.587,24.587,0,0,0,3.35.6,29.128,29.128,0,0,0,3.009.177,8.433,8.433,0,0,0-2.81,1.027,1.945,1.945,0,0,0-.875-.319c-.082-.007-.153-.01-.219-.01-1.5,0-2.554,1.313-3.179,2.413-.6,1.053-1.458,2.974-.5,4a1.4,1.4,0,0,0,.421.314c-.028.162-.053.333-.073.48l-.006.039a3.458,3.458,0,0,0-.824-.1,3,3,0,0,0-2.011.713,2.411,2.411,0,0,0-.333.361,2.075,2.075,0,0,1,.92-.233h.05a2.517,2.517,0,0,1,.614.08,3.672,3.672,0,0,1,1.506.893,12.639,12.639,0,0,0,.184,1.865c.051.3.116.609.2.979.176.342.33.62.486.877a12.946,12.946,0,0,0,1.074,1.528,3.582,3.582,0,0,1-.556,1.662,2.342,2.342,0,0,1-.446.494,2.031,2.031,0,0,1-.848.427,2.16,2.16,0,0,0,.486.059h.034a3.186,3.186,0,0,0,2.511-1.4c.123.109.252.223.4.344a1.486,1.486,0,0,0-.115.513c-.056,1.409,1.85,2.3,2.991,2.7a6.14,6.14,0,0,0,2.036.4,2.8,2.8,0,0,0,2.1-.811,1.866,1.866,0,0,0,.455-.812,8.429,8.429,0,0,0,2.8-1.065A29.523,29.523,0,0,0,32.3,84.406a25.444,25.444,0,0,0-3.909,5.553,52.993,52.993,0,0,0-15.507-8.608l-.217-.076-.217-.077c-.1-.036-.188-.065-.271-.093a.125.125,0,0,0-.045-.008.16.16,0,0,0-.134.084.138.138,0,0,0,0,.144l.012.018a11.028,11.028,0,0,0-2.054,1.1c-.387.244-1.193.752-.991,1.44a.886.886,0,0,0,.928.6,1.77,1.77,0,0,0,.574-.1,14.088,14.088,0,0,0,2.473-1.255l.091-.053c.1-.059.2-.118.3-.176a15.969,15.969,0,0,0,4.886,2.546c.542.208,1.156.443,1.717.686a21.658,21.658,0,0,1,7.628,5.563c-.055.119-.105.235-.161.364a.122.122,0,0,0,0,.1.186.186,0,0,0,.1.1,1.814,1.814,0,0,0,.636.129h.049l.084,0H28.3a3.032,3.032,0,0,0,2.113-1.633c.247-.425.487-.859.7-1.243l0-.008a28.713,28.713,0,0,1,1.854-3.037,27.047,27.047,0,0,1,5.8-5.787,15.058,15.058,0,0,0,2.737.685v.027a29.2,29.2,0,0,0,1.747,8.636c.78,2.084,2.124,4.9,4.775,5.3l.027,0a.171.171,0,0,0,.152-.09.183.183,0,0,0-.008-.189c-.167-.251-.337-.525-.521-.838Z" transform="translate(0 0)"/><path class="a" d="M-54.168-22.488V-52.355L2.148-131.394H40.661v77.946h14.17v30.96H40.661V-.634H4.691V-22.488ZM7.416-90.418-18.2-53.448H7.416Z" transform="translate(338.169 131.394)"/><path class="a" d="M-52.979-66.471q0,30.091,12.862,47.781T-.07-1Q27.114-1,40.068-18.69T53.021-66.471q0-29.909-12.954-47.6T-.07-131.76q-27.184,0-40.046,17.6T-52.979-66.471Zm70.606,0q0,15.137-3.558,23.343T-.07-34.921q-10.582,0-14.139-8.207t-3.558-23.343q0-14.954,3.558-23.161T-.07-97.839q10.582,0,14.139,8.207T17.627-66.471Z" transform="translate(196.501 132)"/></svg>