<svg xmlns="http://www.w3.org/2000/svg" width="992" height="362.566" viewBox="0 0 992 362.566"><defs><style>.a{fill:#ac7266;}.b{fill:#398c64;}.c{fill:#3a8d65;}.d{fill:#d48c00;}.e,.i,.j{fill:#d4651c;}.e{opacity:0.2;}.f{fill:#dedede;}.g{fill:#7794b5;opacity:0.6;}.h,.n{fill:#4d4d4c;}.j,.n,.q{opacity:0.4;}.k{fill:#09703f;}.l,.r{fill:#5e5e8c;}.m{fill:#dd8449;}.o{fill:#b4c0cf;}.p,.q{fill:#545454;}.p{opacity:0.49;}.r{opacity:0.5;}</style></defs><g transform="translate(0 197.168)"><rect class="a" width="4.481" height="105.712" transform="translate(34.037 57.535)"/><path class="b" d="M552.255,487.555c-7.723,2.211-17-2.1-21.01-9.758-1.621-3.1-2.42-6.818-1.35-10.013s4.37-5.541,7.59-4.672c-6.231-6.3-11.7-14.18-14.431-22.692a18.48,18.48,0,0,1-1.137-7.412c.254-2.47,1.529-4.89,3.685-5.824a4.722,4.722,0,0,1,6.073,2.453c-.5-4.135-1.689-9.73-1-13.763s2.766-7.937,6.253-9.657,8.44-.574,10.455,3.1c-2.55-10.957-2.294-25.763,1.955-35.71,1.694-3.966,4.766-8.142,8.987-7.637,3.358.4,5.958,3.831,6.69,7.32s.026,7.029-.68,10.439c1.348-2.855,5.391-2.71,8.074-.912s4.063,5.246,4.235,8.51a30.268,30.268,0,0,1-1.517,9.509,20.715,20.715,0,0,1,8.774,14.508,21.477,21.477,0,0,1-4.573,16.923c5.59,2.055,8.786,9.522,9.365,15.644s-2.647,12.227-7.8,14.768c7.014,3.673,10.707,11.92,8.055,19.319a14.769,14.769,0,0,1-18.683,8.7C567.765,494.775,555.425,497.306,552.255,487.555Z" transform="translate(-521.859 -365.931)"/></g><g transform="translate(948 254.168)"><rect class="a" width="2.902" height="68.454" transform="translate(22.04 36.546)"/><path class="c" d="M541.542,444.015c-5,1.419-11.006-1.346-13.6-6.264a8.406,8.406,0,0,1-.874-6.429,4.294,4.294,0,0,1,4.915-3,37.79,37.79,0,0,1-9.345-14.569A11.771,11.771,0,0,1,521.9,409a4.472,4.472,0,0,1,2.386-3.739,3.068,3.068,0,0,1,3.932,1.575c-.326-2.655-1.094-6.247-.647-8.836s1.791-5.1,4.049-6.2a5.293,5.293,0,0,1,6.77,1.992c-1.651-7.035-1.486-16.54,1.266-22.926,1.1-2.546,3.086-5.227,5.82-4.9,2.174.257,3.858,2.46,4.332,4.7a16.294,16.294,0,0,1-.44,6.7c.873-1.833,3.491-1.74,5.228-.585a6.994,6.994,0,0,1,2.742,5.464,19.281,19.281,0,0,1-.982,6.1,13.283,13.283,0,0,1,5.682,9.314,13.7,13.7,0,0,1-2.961,10.865c3.62,1.32,5.689,6.113,6.065,10.044a9.643,9.643,0,0,1-5.052,9.482,10.266,10.266,0,0,1,5.216,12.4,9.587,9.587,0,0,1-12.1,5.588C551.585,448.65,543.594,450.275,541.542,444.015Z" transform="translate(-521.859 -365.931)"/></g><g transform="translate(95.592 77.605)"><path class="d" d="M632.584,327.812v90.335a7.4,7.4,0,0,1-7.411,7.417H579.541a7.4,7.4,0,0,1-7.411-7.417V327.812a7.411,7.411,0,0,1,7.411-7.411h45.633a6.763,6.763,0,0,1,1.334.126A7.407,7.407,0,0,1,632.584,327.812Z" transform="translate(-549.041 -278.438)"/><path class="e" d="M632.584,345.148v36.613c-1.311-2.122-3.315-4.972-4.443-4.718-1.474.331.458,35.47,1.152,47.274a7.371,7.371,0,0,1-4.12,1.246H579.541a7.367,7.367,0,0,1-3.574-.914c.346-11.23,1.27-47.315-.893-46.819-1.065.254-2.107,1.563-2.943,3.007V346.427c2.667-1.428,7.915-4.459,9.652-7.063,2.272-3.409,2.367-9.73-2.178-18.963h45.57a6.763,6.763,0,0,1,1.334.126c-1.989,4.5-6.724,15.609-5.469,16.863C622.262,338.614,629.443,343.175,632.584,345.148Z" transform="translate(-549.041 -278.438)"/><path class="d" d="M605.055,360.651l-1.716,5.376-2.144-.685a12,12,0,0,0-15.661,11.43V398.3h-5.641V376.77a17.648,17.648,0,0,1,23.019-16.805Z" transform="translate(-543.573 -251.172)"/><path class="f" d="M646.324,545.89c-2.241,1.919-14.1-.458-17.345-1.152-.532-.113-.83-.186-.83-.186s-.015-.16-.032-.467c-.2-2.427-1.167-14.032-2.747-28.412-.6-5.456-1.282-11.324-2.055-17.231-3.288-25.405-8.045-51.738-13.565-51.157-6.908.724-11.412,41.4-13.719,69.791-1.249,15.29-1.861,27.025-1.861,27.025s-31.144,4.022-31.62,0,23.132-3.126,23.132-3.126l.026-24.059.112-120.545.007-6.754.041-38.7v-2.24L614,344.215l6.391,1.515,12.478,2.95s0,.895.007,2.57c.09,16.79.605,111.688,1.846,163.3.291,11.9.614,21.5.983,27.314C641.126,536.944,648.911,543.658,646.324,545.89Z" transform="translate(-555.794 -261.664)"/><path class="f" d="M658.651,417.074c-1.389,7.213-9.517,5.1-10.787.528-4.237-15.292-8.017-23.933-13.724-30.15-.07-.08-.141-.159-.2-.237a17.155,17.155,0,0,0-1.863-1.848,7.454,7.454,0,0,0-.93-.678s-4.483.348-10.052.544c-4.135.143-8.863.206-12.791-.022-9.209.537-22.837-.522-22.837-.522a4.455,4.455,0,0,0-.4.348c-2.541,2.241-16.272,15.3-10.644,29.994a13.027,13.027,0,0,0,10.6,8.7c8.365,1.4,17.961-3.174,17.961-3.174l1.333,3.765s-.663,3.361-18.157,6.022c-.387.063-.765.109-1.144.141-16.769,1.689-25.939-16.665-19.011-40.924,7.087-24.809,29-29.9,29-29.9s1.12-4.428-1.98-10.85-5.209-14.393-4.767-24.913,4.326-28.124,19.184-28.124c.292,0,.576.024.852.048.283-.024.568-.048.859-.048,14.859,0,18.734,17.606,19.185,28.124s-1.665,18.489-4.767,24.913-1.981,10.85-1.981,10.85.055.007.159.024a39.585,39.585,0,0,1,29.535,28.446C654.634,399.824,659.969,410.232,658.651,417.074Z" transform="translate(-554.993 -295.78)"/><path class="g" d="M640.564,417.074c-1.389,7.213-9.517,5.1-10.787.528-4.237-15.292-8.017-23.933-13.724-30.15-.07-.08-.141-.159-.2-.237-.6-.639-1.224-1.254-1.863-1.848.087,16.793.6,111.689,1.839,163.306.293,11.891.615,21.5.987,27.311,5.422-4.924,13.209,1.791,10.622,4.024-2.241,1.917-14.094-.458-17.345-1.152-.292-.222-.568-.435-.859-.654-.206-2.424-1.169-14.03-2.747-28.409-.6-5.461-1.285-11.324-2.059-17.235,1.483,5.541,2.943,9.849,4.009,10.378,3.219,1.617-10.479-94.3-10.479-94.3s8.459.8,9.272-2.013-10.078-4.435-10.078-4.435,12.089-2.422,14.1-7.654-13.7-3.63-13.7-3.63,3.63-29.015,5.643-39.494a16.7,16.7,0,0,0-.189-6.18,37.051,37.051,0,0,0-1.508-5.389c-3.259-9.263-6.2-14.52-9.587-18.654-5.555-13.224,26.8-42.161-2.548-65.409.292,0,.576.024.852.048.283-.024.568-.048.859-.048,14.859,0,18.734,17.606,19.185,28.124s-1.665,18.489-4.767,24.913-1.981,10.85-1.981,10.85.055.007.159.024A39.585,39.585,0,0,1,633.2,388.137C636.546,399.824,641.881,410.232,640.564,417.074Z" transform="translate(-536.905 -295.78)"/><path class="h" d="M595.359,302.924c-6.725,0-13.587,8.544-13.287,15.946a26.967,26.967,0,0,0,4.541,13.841l8.742-.285,8.74.285a26.968,26.968,0,0,0,4.54-13.841C608.935,311.468,602.086,302.924,595.359,302.924Z" transform="translate(-542.045 -290.748)"/><path class="i" d="M603.941,333.173a13.875,13.875,0,0,1-7.063,4.663,4.272,4.272,0,0,1-.9.213,17.575,17.575,0,0,1-2,.119c-.5,0-1.026-.024-1.57-.072-.143-.015-.293-.031-.435-.048a4.271,4.271,0,0,1-.9-.213,13.911,13.911,0,0,1-7.063-4.663s.1-9.422.672-10.511a17.076,17.076,0,0,1,4.387-5.374.1.1,0,0,0,.032-.024,8.128,8.128,0,0,1,4.6-1.791c.087-.007.181-.007.268-.007h.009a8.072,8.072,0,0,1,4.869,1.8.21.21,0,0,0,.031.024,17.075,17.075,0,0,1,4.387,5.374C603.845,323.751,603.941,333.173,603.941,333.173Z" transform="translate(-540.669 -281.914)"/><path class="j" d="M599.8,322.662a17.075,17.075,0,0,0-4.387-5.374.21.21,0,0,1-.031-.024,8.072,8.072,0,0,0-4.869-1.8H590.5c-.087,0-.181,0-.268.007,2.8,6.132-.111,18.285-1.294,22.624.544.048,1.072.072,1.57.072a17.575,17.575,0,0,0,2-.119,4.272,4.272,0,0,0,.9-.213,13.875,13.875,0,0,0,7.063-4.663S600.375,323.751,599.8,322.662Z" transform="translate(-537.199 -281.914)"/><g transform="translate(37.37 38.918)"><path class="k" d="M585.117,318.614h-2.192v1.66a11.554,11.554,0,0,0,0,9.967v1.66h2.192c1.834,0,3.322-2.974,3.322-6.644S586.951,318.614,585.117,318.614Z" transform="translate(-579.603 -318.614)"/><path class="c" d="M587.153,325.258c0,3.67-1.486,6.644-3.322,6.644s-3.322-2.974-3.322-6.644,1.488-6.644,3.322-6.644S587.153,321.59,587.153,325.258Z" transform="translate(-580.509 -318.614)"/></g><g transform="translate(60.412 38.918)"><path class="c" d="M597.35,318.614h2.192v1.66a11.539,11.539,0,0,1,0,9.967v1.66H597.35c-1.834,0-3.322-2.974-3.322-6.644S595.516,318.614,597.35,318.614Z" transform="translate(-594.028 -318.614)"/><path class="k" d="M595.314,325.258c0,3.67,1.488,6.644,3.322,6.644s3.322-2.974,3.322-6.644-1.486-6.644-3.322-6.644S595.314,321.59,595.314,325.258Z" transform="translate(-593.122 -318.614)"/></g><g transform="translate(0 48.442)"><path class="l" d="M620.065,385.239l-1.716,5.376-2.144-.685a12,12,0,0,0-15.661,11.43v80.922A17.664,17.664,0,0,1,582.9,499.925h-6.666a17.666,17.666,0,0,1-17.652-17.644V341.844A17.665,17.665,0,0,1,576.235,324.2h5.512a7.026,7.026,0,0,0-.08,1.1v4.546h-5.432a12.017,12.017,0,0,0-12.009,12V482.281a12.017,12.017,0,0,0,12.009,12H582.9a12.015,12.015,0,0,0,12-12V401.359a17.648,17.648,0,0,1,23.019-16.805Z" transform="translate(-558.583 -324.202)"/></g><path class="i" d="M576.219,358.244s4.931-16.463,1.941-23.106c.111-3.543,5.647-1.994,5.647-1.994s3.816,25.163-7.3,33.883A19,19,0,0,1,576.219,358.244Z" transform="translate(-546.437 -269.7)"/><path class="i" d="M606.75,358.612s-4.249-16.831-1.26-23.474c-.109-3.543-5.647-1.994-5.647-1.994s-3.816,25.163,7.3,33.883A13.732,13.732,0,0,0,606.75,358.612Z" transform="translate(-529.965 -269.7)"/><path class="j" d="M606.75,358.612s-4.249-16.831-1.26-23.474c-.109-3.543-5.647-1.994-5.647-1.994s-3.816,25.163,7.3,33.883A13.732,13.732,0,0,0,606.75,358.612Z" transform="translate(-529.965 -269.7)"/><path class="i" d="M620.355,475.493c-.876.75-3.22.844-5.95.639a100.713,100.713,0,0,1-12.222-1.98s-.174-2.17-.5-5.863c-.465-5.232-1.239-13.517-2.28-23.018l5.428-.648,3.922-.465c.285,11.9.608,21.5.98,27.311a6.646,6.646,0,0,1,6.935-1.326C619.779,471.263,621.894,474.167,620.355,475.493Z" transform="translate(-529.829 -191.266)"/><path class="i" d="M596.027,445.7c-1.249,15.3-1.859,27.026-1.859,27.026s-31.146,4.027-31.618,0,23.127-3.129,23.127-3.129l.027-24.056C589.145,445.542,593.675,445.641,596.027,445.7Z" transform="translate(-555.794 -190.291)"/><ellipse class="m" cx="5.702" cy="7.197" rx="5.702" ry="7.197" transform="translate(47.606 39.859)"/><path class="n" d="M594.7,304.364c-5.989-.049-11.087,7.254-11.288,13a18.632,18.632,0,0,0,2.115,9.572s4.433-5.844,8.462-5.945,9.069,6.852,9.17,6.55,2.957-5.038,1.679-13.3A11.515,11.515,0,0,0,594.7,304.364Z" transform="translate(-541.104 -289.734)"/><path class="j" d="M613.463,476.132a100.713,100.713,0,0,1-12.222-1.98s-.174-2.17-.5-5.863c.655,1.783,1.4,3.25,2.115,3.472,1.7.513,1.2-21.226,1.033-27.137l3.922-.465c.285,11.9.608,21.5.98,27.311a6.646,6.646,0,0,1,6.935-1.326,3.963,3.963,0,0,0-3.8,2.013C611.032,474.089,612.406,475.438,613.463,476.132Z" transform="translate(-528.886 -191.266)"/><g transform="translate(52.475 88.826)"><g transform="translate(11.618 11.055)"><rect class="c" width="42.08" height="11.295" transform="translate(0 9.066) rotate(-12.442)"/></g><g transform="translate(53.497 1.305)"><rect class="i" width="61.848" height="3.985" transform="translate(0 13.311) rotate(-12.429)"/></g><g transform="translate(72.666)"><rect class="c" width="41.931" height="6.644" transform="translate(0 9.034) rotate(-12.442)"/></g><path class="c" d="M591.291,372.857l.4-2.006-2.316-2.682.793-6.537,19.443-4.592.9,16.287-5.858,2.425-10.415.509Z" transform="translate(-589.371 -341.455)"/><path class="c" d="M591.019,362.3c-1.452.672-.839,5.067-.839,5.067l2.606,2.615s15.039-2.908,15.247-4.477a59.366,59.366,0,0,0-.4-7.3S591.886,361.9,591.019,362.3Z" transform="translate(-588.892 -340.635)"/><path class="c" d="M601.917,362c-.5.43-.024,1.583.435,1.709s28.494-5.839,28.734-6.567a5.338,5.338,0,0,0,.049-1.955Z" transform="translate(-580.684 -342.758)"/><path class="c" d="M632.749,357.272c-.353,1,.164,1.6.719,1.638s37.232-8,37.558-8.624a3.2,3.2,0,0,0,.208-1.571Z" transform="translate(-558.899 -347.321)"/></g><path class="i" d="M627.2,366.288c.114,1.154-3.651,2.94-7.054,3.942a11.775,11.775,0,0,1-4.788.683c-2.446-.6-4.51-3.555-5.081-6.485-.174-.876,2.047-3.249,3.807-4.557a4.669,4.669,0,0,1,1.621-.9c1.367-.228,7.332.823,9.025,1.652S627.027,364.456,627.2,366.288Z" transform="translate(-522.179 -251.291)"/><path class="j" d="M625.62,366.288c.114,1.154-3.651,2.94-7.054,3.942,1.653-3.762-1.693-10.363-6.061-10.359a4.669,4.669,0,0,1,1.621-.9c1.367-.228,7.332.823,9.025,1.652S625.45,364.456,625.62,366.288Z" transform="translate(-520.602 -251.291)"/><g transform="translate(25.852 114.381)"><path class="i" d="M615.851,371.579s-.552,8.261-4.537,10.259-12.754-1.675-12.754-1.675l-22.813,6.2a12.478,12.478,0,0,1-1.87-4.839,10.286,10.286,0,0,1-.126-1.585,9.99,9.99,0,0,1,2-5.982c7.308,1.1,20.28-1.767,20.28-1.767s4.08-9.3,5.626-9.3,1.335,5.539,1.335,5.539Z" transform="translate(-573.751 -362.89)"/><path class="j" d="M615.8,371.579s-.552,8.261-4.537,10.259-12.754-1.675-12.754-1.675l-22.813,6.2a12.478,12.478,0,0,1-1.87-4.839l23.35-4.466s9.943,4.183,10.922-1.128c.479-2.6-6.937-3.961-6.937-3.961s1.735-7.119.441-9.083c1.554,0,1.335,5.539,1.335,5.539Z" transform="translate(-573.699 -362.89)"/></g><path class="o" d="M734.854,359.2a14.523,14.523,0,0,0-6.09-17.335,11.431,11.431,0,0,0-17.327-13.146,12.613,12.613,0,0,0-17.819,16.872,4.722,4.722,0,0,0-2.693,5.652l-31.749,10.146L678.9,360.2,657.6,366.122l33.719-4.547c.007.048.014.1.022.143l-31.374,7.559,33.529-2.032a14.017,14.017,0,0,0,13.831,6.218,4.321,4.321,0,0,0,5.469,3.944,8.28,8.28,0,0,0,15.024-6.736,7.1,7.1,0,0,0,7.036-11.472Z" transform="translate(-488.839 -274.025)"/></g><path class="p" d="M516.212,435.917c-1.132.328-2.323.662-3.448,1.1-.969-1.563-2.815,1.376-3.33,2.055-1.2,1.594-2.457,3.16-3.647,4.771a6.155,6.155,0,0,0-1.515.295c-.494.151-.942.324-1.249.42-1.532.494-3.064.978-4.589,1.494.031-.187.06-.372.086-.559a18.418,18.418,0,0,0-.952-9.806c-.115-.266-.237-.52-.372-.774a10.077,10.077,0,0,0-1.132-1.712c.022-.055.041-.108.06-.163a9.635,9.635,0,0,0-.019-6.737c-.053-.132-.108-.264-.165-.391l.017-.012c.146-.106.295-.2.451-.295.043-.026.086-.055.132-.079a9.22,9.22,0,0,1,4.03-1.23,11.832,11.832,0,0,1,3.7.374c.221.055.547.117.88.209a1.133,1.133,0,0,0,.547,2.035.993.993,0,0,0,.669-.141,1.154,1.154,0,0,0,.429-.551.934.934,0,0,0,0-.453,1.658,1.658,0,0,0-.671-1.024,2.247,2.247,0,0,0-.4-.206,8.6,8.6,0,0,0-1.961-.448,15.414,15.414,0,0,0-1.971-.24,9.239,9.239,0,0,0-5.4,1.458c-.053.034-.105.07-.156.105-.134.091-.264.187-.393.285a7.907,7.907,0,0,0-.842-1.369,7.6,7.6,0,0,0-1.417-1.439,7.789,7.789,0,0,0-1.9-.676,7.981,7.981,0,0,0-1.6-.18c.033-.158.065-.317.091-.477.01-.062.022-.125.029-.187a9.267,9.267,0,0,0-.969-5.512,15.642,15.642,0,0,0-1.055-1.683,8.67,8.67,0,0,0-1.235-1.587,2.182,2.182,0,0,0-.357-.271,1.652,1.652,0,0,0-1.211-.175.923.923,0,0,0-.412.187,1.194,1.194,0,0,0-.321.623,1.022,1.022,0,0,0,.158.667,1.134,1.134,0,0,0,2.076-.369c.223.264.417.535.561.71a11.789,11.789,0,0,1,1.908,3.2,9.292,9.292,0,0,1,.6,4.172c0,.053-.01.1-.017.153-.019.18-.043.355-.077.532l0,.022c-.141,0-.283,0-.427.017a9.653,9.653,0,0,0-6.111,2.836c-.038.041-.079.082-.12.122a10.148,10.148,0,0,0-2.031-.3c-.285-.014-.568-.017-.858-.01a18.4,18.4,0,0,0-9.286,3.3c-.158.1-.314.206-.468.312-.182-1.6-.391-3.191-.595-4.788a10.811,10.811,0,0,0-.523-2.807c.954-1.757,1.841-3.56,2.774-5.325.4-.755,2.275-3.673.451-3.889-.084-1.2-.288-2.422-.47-3.584-.1-.652-.544-1.5-1.309-.894-.746.592-.456,1.959-.319,2.7a8.437,8.437,0,0,0,.825,2.407,11.185,11.185,0,0,0-1.422,2.628,23.6,23.6,0,0,0-1.635,5.016,1.452,1.452,0,0,0-.518.082c-1.884.626-.712,3.407-.388,4.51.494,1.693,1.019,3.376,1.534,5.064l.019.057c-.321.259-.635.523-.935.789-1.623,1.439-3.472,3.8-2.824,5.819l-.074.074a75.253,75.253,0,0,0-6.656,7.658c-.961-.8-1.923-1.59-2.9-2.374-.863-.693-2.92-2.807-4.1-1.12a1.729,1.729,0,0,0-.247.494,19.786,19.786,0,0,0-4.968-.036,9.731,9.731,0,0,0-2.791.551h0a7.692,7.692,0,0,0-1.844-1.638c-.609-.386-1.717-1.139-2.489-.585-.791.566-.192,1.295.35,1.618.964.573,1.968,1.189,3,1.676-.422,1.911,2.779,1,3.577.849,1.868-.348,3.755-.635,5.625-1.007a9.4,9.4,0,0,0,2.3,1.467c1.081.6,2.163,1.2,3.249,1.791q-1.421,1.989-2.714,4.071a62.5,62.5,0,0,0-4.85,9.149q-1.054,2.352-1.94,4.769l-.079.012c-1.887.268-3.776.523-5.663.815-1.134.175-4.15.29-3.918,2.263a1.45,1.45,0,0,0,.144.5,23.723,23.723,0,0,0-3.85,3.608,11.19,11.19,0,0,0-1.774,2.4,8.431,8.431,0,0,0-2.532.276c-.729.189-2.091.506-2.311,1.434-.228.949.729.99,1.364.806,1.132-.328,2.323-.659,3.445-1.1.971,1.563,2.817-1.376,3.33-2.055,1.2-1.592,2.46-3.16,3.649-4.769a10.855,10.855,0,0,0,2.764-.717c1.585-.511,3.172-1.012,4.75-1.546q-.536,1.586-1,3.191a55.094,55.094,0,0,0-2.5,15.27c0,.5.024,1.019.065,1.537.01.163.024.328.041.494a18.128,18.128,0,0,0,1.851,6.632l.053.1c.13-.182.259-.367.386-.549l.038-.055q.917-1.3,1.829-2.6c.086-.12.17-.24.256-.362l.58-.829.007.01a17.679,17.679,0,0,0,1.194,1.609c.208.252.422.5.647.734v0c.312.1.621.189.935.273a17.813,17.813,0,0,0,1.966.4l.012,0c-.17.292-.338.585-.506.877-.074.13-.149.257-.22.386-.53.918-1.055,1.839-1.582,2.76l-.034.058c-.113.194-.223.388-.333.583l.11.007a18.142,18.142,0,0,0,6.79-1.134c.156-.055.312-.113.465-.173.487-.182.959-.381,1.419-.592a55.115,55.115,0,0,0,12.769-8.737q1.255-1.1,2.467-2.256c.185,1.654.4,3.3.614,4.958a10.924,10.924,0,0,0,.523,2.805c-.954,1.76-1.841,3.56-2.774,5.325-.4.755-2.278,3.673-.451,3.889.084,1.2.288,2.422.47,3.587.1.652.544,1.5,1.309.892.746-.59.456-1.959.319-2.7a8.462,8.462,0,0,0-.825-2.407,11.171,11.171,0,0,0,1.422-2.625,23.653,23.653,0,0,0,1.635-5.018,1.455,1.455,0,0,0,.518-.082c1.884-.626.712-3.407.388-4.507-.535-1.834-1.105-3.651-1.661-5.476l-.022-.077q1.809-1.827,3.5-3.778a62.252,62.252,0,0,0,6.229-8.269q1.338-2.054,2.537-4.184c.995.734,2,1.455,3,2.182a9.443,9.443,0,0,0,2.3,1.46c.456,1.851.993,3.683,1.472,5.521.2.786.734,4.071,2.282,2.879.88.729,1.863,1.379,2.791,2.009.523.352,1.438.587,1.614-.369.175-.935-.976-1.618-1.585-2.007a7.722,7.722,0,0,0-2.263-.976l0,0a9.642,9.642,0,0,0-.681-2.76,19.839,19.839,0,0,0-2.139-4.486,1.7,1.7,0,0,0,.29-.348l.05-.086c1.029-1.789-1.757-2.755-2.752-3.241-1.122-.549-2.249-1.084-3.378-1.616a75.381,75.381,0,0,0,4.114-9.276l.036-.1c2.1-.268,3.46-2.944,4.073-5.023.115-.388.221-.782.319-1.182l.062-.01c1.745-.247,3.491-.484,5.236-.755,1.134-.175,4.15-.29,3.917-2.263a1.466,1.466,0,0,0-.144-.5,25.089,25.089,0,0,0,2.019-1.69,21.625,21.625,0,0,0,1.829-1.918,11.055,11.055,0,0,0,1.777-2.4,8.436,8.436,0,0,0,2.532-.273c.729-.192,2.091-.508,2.311-1.436C517.8,435.776,516.847,435.735,516.212,435.917Z" transform="translate(384.381 -258.196)"/><path class="q" d="M311.049,299.7a11.806,11.806,0,0,0,1.607.135h0a2.174,2.174,0,0,0,.839.584,30.914,30.914,0,0,1,4.478,2.307,24.2,24.2,0,0,1,2.639,2l.012.009a.694.694,0,0,0-.033.643c.207.445.756.5,1.213.458l.09-.007.168-.024a30.75,30.75,0,0,1,5.012-.493,23.888,23.888,0,0,1,3.839.327c.027,0,.052.009.078.012.018.033.039.066.06.1a3.6,3.6,0,0,0,2.066,1.561l.033.069c.06.13.121.262.183.391l.025.055c.072.147.142.294.216.44l0,0a23.947,23.947,0,0,1-3.714,1.715,30.79,30.79,0,0,1-4.885,1.222c-.054.009-.109.021-.168.034l-.087.021c-.443.117-.942.352-.987.84a.686.686,0,0,0,.247.593c.01.042.021.084.03.127a23.648,23.648,0,0,1,.52,3.014,30.727,30.727,0,0,1,.027,5.036,2.17,2.17,0,0,0,.141,1.013h0a11.556,11.556,0,0,0-.61,1.493c-.159.493-.593,1.473.013,1.84.683.415.96-.757,1.094-1.165.2-.619.442-1.251.614-1.892h0a1.175,1.175,0,0,0,.389-.605,3.522,3.522,0,0,0-.033-1.252l-.012-.1c-.051-.428-.1-.857-.148-1.285-.115-1-.228-2.007-.343-3.011s-.217-2.034-.336-3.053c.087-.027.174-.058.259-.091.109-.042.217-.085.322-.124.042-.016.085-.031.127-.046.394-.148.789-.294,1.185-.439q1.42-.526,2.842-1.049c1.39-.514,2.8-1,4.178-1.546l.008.016q.216.4.439.8c.04.07.079.141.12.21.02.036.039.07.06.1.563.993,1.15,1.986,1.778,2.944-.006.025-.013.052-.021.078a23.871,23.871,0,0,1-1.332,3.7,30.6,30.6,0,0,1-2.548,4.344c-.03.045-.061.094-.091.144-.015.026-.031.051-.045.078a1.176,1.176,0,0,0-.129,1.246l.036.046a.686.686,0,0,0,.6.24l0,.015q.229.791.406,1.6t.3,1.636a30.725,30.725,0,0,1,.219,5.033,2.161,2.161,0,0,0,.18,1.005h0a11.818,11.818,0,0,0-.551,1.516c-.139.5-.536,1.495.084,1.838.7.388.93-.792,1.049-1.206.18-.626.394-1.267.541-1.914a1.14,1.14,0,0,0,.365-.62,3.482,3.482,0,0,0-.079-1.249c-.006-.034-.011-.069-.015-.1-.067-.425-.132-.852-.2-1.279q-.232-1.5-.458-2.995c-.225-1.456-.418-2.924-.673-4.379.046-.106.091-.213.136-.316.018-.04.036-.082.055-.123.171-.385.343-.768.515-1.154.412-.921.828-1.843,1.24-2.764.454-1.013.924-2.022,1.375-3.039.085.106.171.213.261.316.016.021.034.042.052.061a6.183,6.183,0,0,0,.938.879c.06.045.12.087.181.129a4.168,4.168,0,0,0,1.109.542v.021c-.058,3.417.6,6.972,2.9,9.617a8.4,8.4,0,0,0,5.863,2.932,6.137,6.137,0,0,0,2.7-.514,6.26,6.26,0,0,0,1.022-.569,6.436,6.436,0,0,0,.864-.788,6.123,6.123,0,0,0,1.345-2.4,8.4,8.4,0,0,0-.914-6.489c-1.775-3.023-4.937-4.776-8.2-5.806l-.02-.008a4.151,4.151,0,0,0-.162-1.222c-.02-.073-.042-.144-.064-.214a6.174,6.174,0,0,0-.535-1.168c-.013-.024-.028-.046-.042-.07-.07-.117-.142-.232-.217-.346,1.107-.1,2.214-.229,3.32-.337l3.014-.3,1.258-.121.133-.013.345-.029c1.3.7,2.627,1.354,3.937,2.03q1.346.694,2.692,1.389c.383.2.769.394,1.15.593.031.015.061.031.093.048a3.522,3.522,0,0,0,1.159.473,1.153,1.153,0,0,0,.7-.15c.661.066,1.336.067,1.988.1.428.019,1.622.177,1.476-.61-.127-.7-1.2-.638-1.715-.664a11.822,11.822,0,0,0-1.612.039h0a2.157,2.157,0,0,0-.9-.49,30.741,30.741,0,0,1-4.7-1.808,24.006,24.006,0,0,1-2.842-1.7l-.013-.009a.76.76,0,0,0,.063-.319.66.66,0,0,0-.1-.322c-.253-.421-.806-.413-1.255-.324-.03,0-.058.01-.088.018-.057.012-.112.027-.165.04a30.744,30.744,0,0,1-4.93,1.034,23.9,23.9,0,0,1-3.929.087l-.081,0c-.709-.9-1.462-1.772-2.225-2.623l-.081-.091-.16-.178c-.2-.226-.407-.448-.616-.67l-.012-.014c.956-1.134,1.864-2.314,2.794-3.469.634-.785,1.264-1.574,1.9-2.361q.4-.492.792-.983l.085-.106c.07-.087.147-.175.22-.265.058-.07.115-.142.169-.217.927.436,1.863.857,2.788,1.29s1.831.854,2.744,1.284q.586.272,1.173.548l.094.045a3.463,3.463,0,0,0,1.176.428,1.166,1.166,0,0,0,.7-.177h0c.662.039,1.338.015,1.989.019.43,0,1.628.112,1.453-.667-.156-.692-1.222-.592-1.741-.6a11.77,11.77,0,0,0-1.609.1h0a1.589,1.589,0,0,0-.437-.286,3.272,3.272,0,0,0-.476-.169,30.56,30.56,0,0,1-4.767-1.627,23.878,23.878,0,0,1-2.692-1.452l-.111-.069a.865.865,0,0,0-.088-.159.671.671,0,0,0-.4-.265c-.478-.112-.858.286-1.11.67l-.049.076c-.03.049-.06.1-.085.147a30.732,30.732,0,0,1-2.713,4.242,23.961,23.961,0,0,1-2.807,2.975l0,0-.351-.343-.045-.043c-.1-.1-.207-.2-.312-.3l-.054-.052a3.591,3.591,0,0,0-.824-2.455c-.024-.031-.048-.061-.073-.09a.676.676,0,0,1,.013-.076q.146-.935.37-1.853.231-.957.541-1.89a30.664,30.664,0,0,1,2.061-4.6q.038-.072.076-.153l.036-.082a1.135,1.135,0,0,0-.048-1.294.69.69,0,0,0-.62-.174l-.006-.013a24.276,24.276,0,0,1-1.05-3.138,30.714,30.714,0,0,1-.764-4.979,2.173,2.173,0,0,0-.286-.98v0a11.386,11.386,0,0,0,.383-1.567c.085-.511.373-1.541-.282-1.817-.737-.31-.839.888-.912,1.312-.111.643-.253,1.3-.33,1.962a1.165,1.165,0,0,0-.3.656,3.525,3.525,0,0,0,.216,1.234l.027.1c.112.416.223.834.336,1.251q.391,1.463.779,2.927c.381,1.423.733,2.863,1.145,4.28-.036.111-.067.222-.1.33q-.213.665-.43,1.33-.465,1.443-.933,2.882c-.357,1.107-.736,2.211-1.086,3.323a9.425,9.425,0,0,0-.987-.587c-.3-.156-.614-.3-.924-.43-.039-.018-.076-.033-.115-.049a3.606,3.606,0,0,0,.772-2.9,4.485,4.485,0,0,0-1.137-1.819c-.557-.608-1.133-1.207-1.744-1.762a8.006,8.006,0,0,0-3.281-1.935,2.533,2.533,0,0,0-1.429-2.761c-.036-.02-.075-.036-.112-.052.022.039.045.078.064.117a2.392,2.392,0,0,1,.256,1.347,2.537,2.537,0,0,1-.515,1.224,5.248,5.248,0,0,0-3.424,2.464,2.536,2.536,0,0,1-1.326.1,2.382,2.382,0,0,1-1.194-.671c-.031-.031-.061-.064-.091-.1,0,.042.007.082.013.124a2.534,2.534,0,0,0,2.163,2.232,8,8,0,0,0,.792,3.726c.331.756.716,1.492,1.115,2.214a4.459,4.459,0,0,0,1.363,1.657,3.6,3.6,0,0,0,3,.192l.009.124a10.98,10.98,0,0,0,.357,2.136c-1.165-.021-2.332-.013-3.495-.027q-1.514-.016-3.029-.031-.7-.007-1.4-.016c-.114,0-.229-.006-.346-.009-1.212-.84-2.464-1.631-3.693-2.445l-2.527-1.67-1.08-.715-.085-.058a3.5,3.5,0,0,0-1.1-.6,1.167,1.167,0,0,0-.716.072c-.65-.136-1.321-.211-1.965-.31-.425-.066-1.594-.351-1.535.446C309.467,299.561,310.537,299.618,311.049,299.7Z" transform="translate(-8.973 -20.742)"/><path class="r" d="M434.622,342.422a31.466,31.466,0,0,0,6.493,3.064,16.743,16.743,0,0,0,6.409,1.4c.149,0,.3-.012.443-.019.089,0,.18-.012.264-.022a11.484,11.484,0,0,0,1.182-.156,3.989,3.989,0,0,0,.048,1.192c.014.069.029.134.048.2a4.064,4.064,0,0,0,.153.475c.029.067.058.132.089.2.053.019.1.036.156.053a3.809,3.809,0,0,0,.54.12c.069.012.134.019.206.026a4,4,0,0,0,1.187-.077,11.61,11.61,0,0,0-.029,1.192c0,.086,0,.175,0,.264.007.149.017.295.029.444a16.7,16.7,0,0,0,2.062,6.229,31.516,31.516,0,0,0,3.723,6.138c.933,1.108,2.206,2.318,3.886,1.685,2.071-.784,2.817-3.335,3.52-5.207,1.295-3.45,2.577-6.9,3.807-10.372.026-.072.053-.144.077-.216q1.093-3.064,2.124-6.142c1.424-4.26,2.848-8.658,3.848-13.038a9.894,9.894,0,0,0,.616-1.88,7.825,7.825,0,0,0,.2-1.472c0-.084,0-.168,0-.254a4.46,4.46,0,0,0,3-5.644l.067-.022a14.454,14.454,0,0,1,5.318-.949,16.92,16.92,0,0,1,7.931,2.335.045.045,0,0,0,.05-.072,13.5,13.5,0,0,0-13.455-1.767l-.055.024a3.394,3.394,0,0,0-.151-.362v0l0-.024a4.789,4.789,0,0,0-.815-1.225q-.072-.083-.151-.158a3.886,3.886,0,0,0-.362-.326l-.173-.134a4.883,4.883,0,0,0-1.3-.683l-.024,0h0c-.086-.031-.17-.055-.259-.079a13.5,13.5,0,0,0-3.16-13.2c-.036-.034-.1.017-.067.058a16.912,16.912,0,0,1,3.148,7.646,14.494,14.494,0,0,1-.388,5.385,4.47,4.47,0,0,0-5.414,3.555c-.086,0-.17.014-.254.026a8.226,8.226,0,0,0-1.609.4l-.007,0a10.41,10.41,0,0,0-1.633.753c-4.251,1.453-8.475,3.325-12.565,5.186q-2.848,1.3-5.677,2.649c-.065.029-.127.062-.192.091-3.4,1.623-6.773,3.3-10.144,4.977-1.789.9-4.248,1.9-4.812,4.045C432.086,340.47,433.423,341.609,434.622,342.422Z" transform="translate(-113.007 -303.947)"/><g transform="translate(152.86 296.36)"><path class="c" d="M679.85,463.846a12.615,12.615,0,0,1-7.048,7.5H609.453a5.175,5.175,0,0,1-3.439-1.213,4.434,4.434,0,0,1-1.308-1.959c-.893-2.726,1.326-5.677,4.029-6.644a21.736,21.736,0,0,1,9.641-1.114c-2.645-1.758-2.689-5.927-.814-8.491s5.047-3.823,8.132-4.614c5.7-1.465,12.284-2.512,18.093-1.574-3.516-1.634-4.5-6.652-2.6-10.028s5.882-5.157,9.757-5.422,7.7.747,11.442,1.752c5.987,1.6,11.987,13.916,15.239,18.4A14.644,14.644,0,0,1,679.85,463.846Z" transform="translate(-604.505 -407.214)"/><path class="k" d="M759.369,475.131l-.014.021a3.959,3.959,0,0,1-3.224,1.562h-112.6a5.115,5.115,0,0,1-4.5-7.652c.093-.149.192-.293.3-.436,2.959-3.948,9.288-3.413,12.54.293a32.1,32.1,0,0,1-4.71-30.8c2.578-6.747,7.837-12.716,14.724-14.9s15.3.132,19.148,6.249c2.732-4.491,5.589-10.857,9.9-13.852s10.27-4.189,14.878-1.655c5.171,2.842,7.1,9.194,8.556,14.914,3.537-2.1,5.325-3.889,9.376-4.622s8.637.14,11.361,3.223c3.12,3.524,3,9.033.981,13.281s-5.589,7.523-9.068,10.687c2.777-1.566,3.737-1.53,6.791-2.439a14.328,14.328,0,0,1,9.376.073,8.7,8.7,0,0,1,5.6,7.136c.2,3.061-2.066,6.233-5.07,6.644a23.591,23.591,0,0,1,12.021,2.337C759.362,466.956,761.713,471.872,759.369,475.131Z" transform="translate(-594.217 -412.586)"/></g></svg>