<svg xmlns="http://www.w3.org/2000/svg" width="32" height="32" viewBox="0 0 32 32"><defs><style>.a{fill:none;}.b{fill:#fff;}</style></defs><g transform="translate(-922 -3735)"><rect class="a" width="32" height="32" transform="translate(922 3735)"/><g transform="translate(926 3741.667)"><g transform="translate(0 0)"><path class="b" d="M2.3,60.625q.455.321,2.746,1.906t3.509,2.441q.134.094.569.408t.723.508q.288.194.7.435a4.043,4.043,0,0,0,.77.361,2.124,2.124,0,0,0,.67.12h.027a2.126,2.126,0,0,0,.67-.12,4.046,4.046,0,0,0,.77-.361q.408-.241.7-.435t.723-.508q.435-.315.569-.408l6.268-4.347a6.358,6.358,0,0,0,1.634-1.645A3.53,3.53,0,0,0,24,56.96a2.049,2.049,0,0,0-.636-1.512,2.071,2.071,0,0,0-1.507-.629H2.143a1.914,1.914,0,0,0-1.587.7A2.7,2.7,0,0,0,0,57.254,3.122,3.122,0,0,0,.737,59.08,6.644,6.644,0,0,0,2.3,60.625Z" transform="translate(0 -54.82)"/><path class="b" d="M22.661,185.6q-4.392,2.969-6.669,4.615-.763.562-1.239.876a7.647,7.647,0,0,1-1.266.642,3.858,3.858,0,0,1-1.473.328h-.027a3.859,3.859,0,0,1-1.473-.328,7.651,7.651,0,0,1-1.266-.642q-.475-.314-1.239-.876Q6.2,188.891,1.353,185.6A7.092,7.092,0,0,1,0,184.437v10.62a2.059,2.059,0,0,0,.629,1.512,2.064,2.064,0,0,0,1.513.629H21.857A2.148,2.148,0,0,0,24,195.057v-10.62A7.382,7.382,0,0,1,22.661,185.6Z" transform="translate(0 -178.364)"/></g></g></g></svg>