<svg xmlns="http://www.w3.org/2000/svg" width="32" height="32" viewBox="0 0 32 32"><defs><style>.a{fill:none;}.b{fill:#fff;}</style></defs><path class="a" d="M0,0H32V32H0Z"/><g transform="translate(4 4)"><path class="b" d="M7.72,5.667a16.417,16.417,0,0,0,.6,3.453l-1.6,1.6A19.767,19.767,0,0,1,5.707,5.667H7.72M20.867,21.693a17,17,0,0,0,3.467.6V24.28a20.569,20.569,0,0,1-5.067-1l1.6-1.587M9,3H4.333A1.337,1.337,0,0,0,3,4.333,22.665,22.665,0,0,0,25.667,27,1.337,1.337,0,0,0,27,25.667V21.013a1.337,1.337,0,0,0-1.333-1.333,15.209,15.209,0,0,1-4.76-.76,1.119,1.119,0,0,0-.413-.067,1.366,1.366,0,0,0-.947.387l-2.933,2.933a20.2,20.2,0,0,1-8.787-8.787l2.933-2.933a1.338,1.338,0,0,0,.333-1.36,15.147,15.147,0,0,1-.76-4.76A1.337,1.337,0,0,0,9,3Z" transform="translate(-3 -3)"/></g></svg>