<svg xmlns="http://www.w3.org/2000/svg" width="1352" height="66" viewBox="0 0 1352 66"><defs><style>.a{fill:#a2b1c8;}</style></defs><g transform="translate(0 -1154)"><rect class="a" width="3" height="3" transform="translate(0 1154)"/><rect class="a" width="3" height="3" transform="translate(19 1154)"/><rect class="a" width="3" height="3" transform="translate(38 1154)"/><rect class="a" width="3" height="3" transform="translate(57 1154)"/><rect class="a" width="3" height="3" transform="translate(76 1154)"/><rect class="a" width="3" height="3" transform="translate(95 1154)"/><rect class="a" width="3" height="3" transform="translate(114 1154)"/><rect class="a" width="3" height="3" transform="translate(133 1154)"/><rect class="a" width="3" height="3" transform="translate(152 1154)"/><rect class="a" width="3" height="3" transform="translate(171 1154)"/><rect class="a" width="3" height="3" transform="translate(190 1154)"/><rect class="a" width="3" height="3" transform="translate(209 1154)"/><rect class="a" width="3" height="3" transform="translate(228 1154)"/><rect class="a" width="3" height="3" transform="translate(247 1154)"/><rect class="a" width="3" height="3" transform="translate(266 1154)"/><rect class="a" width="3" height="3" transform="translate(285 1154)"/><rect class="a" width="3" height="3" transform="translate(304 1154)"/><rect class="a" width="3" height="3" transform="translate(323 1154)"/><rect class="a" width="3" height="3" transform="translate(342 1154)"/><rect class="a" width="3" height="3" transform="translate(361 1154)"/><rect class="a" width="3" height="3" transform="translate(380 1154)"/><rect class="a" width="3" height="3" transform="translate(399 1154)"/><rect class="a" width="3" height="3" transform="translate(418 1154)"/><rect class="a" width="3" height="3" transform="translate(437 1154)"/><rect class="a" width="3" height="3" transform="translate(456 1154)"/><rect class="a" width="3" height="3" transform="translate(475 1154)"/><rect class="a" width="3" height="3" transform="translate(494 1154)"/><rect class="a" width="3" height="3" transform="translate(513 1154)"/><rect class="a" width="3" height="3" transform="translate(532 1154)"/><rect class="a" width="3" height="3" transform="translate(551 1154)"/><rect class="a" width="3" height="3" transform="translate(570 1154)"/><rect class="a" width="3" height="3" transform="translate(589 1154)"/><rect class="a" width="3" height="3" transform="translate(608 1154)"/><rect class="a" width="3" height="3" transform="translate(627 1154)"/><rect class="a" width="3" height="3" transform="translate(646 1154)"/><rect class="a" width="3" height="3" transform="translate(665 1154)"/><rect class="a" width="3" height="3" transform="translate(684 1154)"/><rect class="a" width="3" height="3" transform="translate(703 1154)"/><rect class="a" width="3" height="3" transform="translate(722 1154)"/><rect class="a" width="3" height="3" transform="translate(741 1154)"/><rect class="a" width="3" height="3" transform="translate(760 1154)"/><rect class="a" width="3" height="3" transform="translate(779 1154)"/><rect class="a" width="3" height="3" transform="translate(798 1154)"/><rect class="a" width="3" height="3" transform="translate(817 1154)"/><rect class="a" width="3" height="3" transform="translate(836 1154)"/><rect class="a" width="3" height="3" transform="translate(855 1154)"/><rect class="a" width="3" height="3" transform="translate(874 1154)"/><rect class="a" width="3" height="3" transform="translate(893 1154)"/><rect class="a" width="3" height="3" transform="translate(912 1154)"/><rect class="a" width="3" height="3" transform="translate(931 1154)"/><rect class="a" width="3" height="3" transform="translate(950 1154)"/><rect class="a" width="3" height="3" transform="translate(969 1154)"/><rect class="a" width="3" height="3" transform="translate(988 1154)"/><rect class="a" width="3" height="3" transform="translate(1007 1154)"/><rect class="a" width="3" height="3" transform="translate(1026 1154)"/><rect class="a" width="3" height="3" transform="translate(1045 1154)"/><rect class="a" width="3" height="3" transform="translate(1064 1154)"/><rect class="a" width="3" height="3" transform="translate(1083 1154)"/><rect class="a" width="3" height="3" transform="translate(1102 1154)"/><rect class="a" width="3" height="3" transform="translate(1121 1154)"/><rect class="a" width="3" height="3" transform="translate(1140 1154)"/><rect class="a" width="3" height="3" transform="translate(1159 1154)"/><rect class="a" width="3" height="3" transform="translate(1178 1154)"/><rect class="a" width="3" height="3" transform="translate(1197 1154)"/><rect class="a" width="3" height="3" transform="translate(1216 1154)"/><rect class="a" width="3" height="3" transform="translate(1235 1154)"/><rect class="a" width="3" height="3" transform="translate(1254 1154)"/><rect class="a" width="3" height="3" transform="translate(1273 1154)"/><rect class="a" width="3" height="3" transform="translate(1292 1154)"/><rect class="a" width="3" height="3" transform="translate(1311 1154)"/><rect class="a" width="3" height="3" transform="translate(1330 1154)"/><rect class="a" width="3" height="3" transform="translate(1349 1154)"/><rect class="a" width="3" height="3" transform="translate(0 1217)"/><rect class="a" width="3" height="3" transform="translate(19 1217)"/><rect class="a" width="3" height="3" transform="translate(38 1217)"/><rect class="a" width="3" height="3" transform="translate(57 1217)"/><rect class="a" width="3" height="3" transform="translate(76 1217)"/><rect class="a" width="3" height="3" transform="translate(95 1217)"/><rect class="a" width="3" height="3" transform="translate(114 1217)"/><rect class="a" width="3" height="3" transform="translate(133 1217)"/><rect class="a" width="3" height="3" transform="translate(152 1217)"/><rect class="a" width="3" height="3" transform="translate(171 1217)"/><rect class="a" width="3" height="3" transform="translate(190 1217)"/><rect class="a" width="3" height="3" transform="translate(209 1217)"/><rect class="a" width="3" height="3" transform="translate(228 1217)"/><rect class="a" width="3" height="3" transform="translate(247 1217)"/><rect class="a" width="3" height="3" transform="translate(266 1217)"/><rect class="a" width="3" height="3" transform="translate(285 1217)"/><rect class="a" width="3" height="3" transform="translate(304 1217)"/><rect class="a" width="3" height="3" transform="translate(323 1217)"/><rect class="a" width="3" height="3" transform="translate(342 1217)"/><rect class="a" width="3" height="3" transform="translate(361 1217)"/><rect class="a" width="3" height="3" transform="translate(380 1217)"/><rect class="a" width="3" height="3" transform="translate(399 1217)"/><rect class="a" width="3" height="3" transform="translate(418 1217)"/><rect class="a" width="3" height="3" transform="translate(437 1217)"/><rect class="a" width="3" height="3" transform="translate(456 1217)"/><rect class="a" width="3" height="3" transform="translate(475 1217)"/><rect class="a" width="3" height="3" transform="translate(494 1217)"/><rect class="a" width="3" height="3" transform="translate(513 1217)"/><rect class="a" width="3" height="3" transform="translate(532 1217)"/><rect class="a" width="3" height="3" transform="translate(551 1217)"/><rect class="a" width="3" height="3" transform="translate(570 1217)"/><rect class="a" width="3" height="3" transform="translate(589 1217)"/><rect class="a" width="3" height="3" transform="translate(608 1217)"/><rect class="a" width="3" height="3" transform="translate(627 1217)"/><rect class="a" width="3" height="3" transform="translate(646 1217)"/><rect class="a" width="3" height="3" transform="translate(665 1217)"/><rect class="a" width="3" height="3" transform="translate(684 1217)"/><rect class="a" width="3" height="3" transform="translate(703 1217)"/><rect class="a" width="3" height="3" transform="translate(722 1217)"/><rect class="a" width="3" height="3" transform="translate(741 1217)"/><rect class="a" width="3" height="3" transform="translate(760 1217)"/><rect class="a" width="3" height="3" transform="translate(779 1217)"/><rect class="a" width="3" height="3" transform="translate(798 1217)"/><rect class="a" width="3" height="3" transform="translate(817 1217)"/><rect class="a" width="3" height="3" transform="translate(836 1217)"/><rect class="a" width="3" height="3" transform="translate(855 1217)"/><rect class="a" width="3" height="3" transform="translate(874 1217)"/><rect class="a" width="3" height="3" transform="translate(893 1217)"/><rect class="a" width="3" height="3" transform="translate(912 1217)"/><rect class="a" width="3" height="3" transform="translate(931 1217)"/><rect class="a" width="3" height="3" transform="translate(950 1217)"/><rect class="a" width="3" height="3" transform="translate(969 1217)"/><rect class="a" width="3" height="3" transform="translate(988 1217)"/><rect class="a" width="3" height="3" transform="translate(1007 1217)"/><rect class="a" width="3" height="3" transform="translate(1026 1217)"/><rect class="a" width="3" height="3" transform="translate(1045 1217)"/><rect class="a" width="3" height="3" transform="translate(1064 1217)"/><rect class="a" width="3" height="3" transform="translate(1083 1217)"/><rect class="a" width="3" height="3" transform="translate(1102 1217)"/><rect class="a" width="3" height="3" transform="translate(1121 1217)"/><rect class="a" width="3" height="3" transform="translate(1140 1217)"/><rect class="a" width="3" height="3" transform="translate(1159 1217)"/><rect class="a" width="3" height="3" transform="translate(1178 1217)"/><rect class="a" width="3" height="3" transform="translate(1197 1217)"/><rect class="a" width="3" height="3" transform="translate(1216 1217)"/><rect class="a" width="3" height="3" transform="translate(1235 1217)"/><rect class="a" width="3" height="3" transform="translate(1254 1217)"/><rect class="a" width="3" height="3" transform="translate(1273 1217)"/><rect class="a" width="3" height="3" transform="translate(1292 1217)"/><rect class="a" width="3" height="3" transform="translate(1311 1217)"/><rect class="a" width="3" height="3" transform="translate(1330 1217)"/><rect class="a" width="3" height="3" transform="translate(1349 1217)"/></g></svg>