<svg xmlns="http://www.w3.org/2000/svg" xmlns:xlink="http://www.w3.org/1999/xlink" width="32" height="32" viewBox="0 0 32 32"><defs><style>.a,.d{fill:#fff;}.b{clip-path:url(#a);}.c{fill:#006c35;}.d{fill-rule:evenodd;}</style><clipPath id="a"><circle class="a" cx="16" cy="16" r="16"/></clipPath></defs><g class="b"><g transform="translate(-8.123)"><path class="c" d="M0,0H48.738V32.492H0Z"/><path class="d" d="M296.468,412.5l0,0c-.392.085-.38.428-.128.58-4.143,0-10.5-.059-11.865-.059-.763,0-3.176-.077-3.223-.077a2.668,2.668,0,0,0,2.248.782l12.793-.019a.636.636,0,0,0,.151.751l.01.005.017.005h.006a.263.263,0,0,0,.285-.138c.261.019,1.727.037,1.862,0l0,0c.091.113.181.219.354.2.3-.055.541-.082.548-.6,0,0-.031-.883-.718-.827-.162.021-.618.059-.618.059-.528-.053-.915-.058-1.508-.077.055-.059.151-.3.033-.382a.218.218,0,0,0-.141-.03h-.006l0,0-.006,0-.01-.009,0,0c-.03-.037-.046-.127-.066-.15l0,0,0,0,0,0h0Zm.281,1.262h0c.6.025,1.172,0,1.777.03a.165.165,0,0,1-.014.255l-.01,0h-.017l-.507-.012a.08.08,0,0,0,0-.024c-.047-.117-.384-.109-.463-.017l0,.005,0,.007,0,.009a.064.064,0,0,0,0,.012.074.074,0,0,0,0,.014,5.635,5.635,0,0,1-.769-.016c-.077-.082-.069-.23.023-.265Z" transform="translate(-266.019 -390.162)"/><path class="a" d="M245.425,155.884c.084.041.3-.208.3-.521.024-.16-.062-.753-.281-.853a.187.187,0,0,0-.08-.008.2.2,0,0,0-.173.272c-.031.094.156.422.2.6.044.124-.056.474.035.511Zm-17.309-5.031c.268.118.772.068.751-.331,0-.035-.008-.154-.012-.186a.117.117,0,0,0-.126-.073h0a.143.143,0,0,0-.112.105c-.011.04.018.106-.02.126-.022.023-.108.008-.1-.1a.18.18,0,0,0-.045-.094.087.087,0,0,0-.059-.015c-.037,0-.036.011-.057.039a.286.286,0,0,0-.021.092.057.057,0,0,1-.053.058c-.035,0-.027,0-.055-.015s-.036-.023-.036-.053a.3.3,0,0,0-.018-.1.117.117,0,0,0-.065-.035c-.147,0-.157.155-.149.214a.354.354,0,0,0,.184.363Zm-2.152-.015c.041.094-.041.4.045.427s.187-.211.228-.434c.023-.122.005-.541-.3-.628a.268.268,0,0,0-.049-.008c-.118,0-.249.064-.2.2-.03.071.232.312.277.446Zm9.48.112a1.86,1.86,0,0,0,.165-.71c-.024-.124-.082-.184-.149-.179s-.14.076-.2.214a3.236,3.236,0,0,0-.1.652c-.041.163.185.232.288.023Zm-1.915-.107c.076.1.151.09.3.019a.3.3,0,0,0,.147-.2c.036-.167-.191.079-.22-.107-.051-.173.094-.244.232-.412,0-.079,0-.143-.051-.145a.255.255,0,0,0-.116.041.79.79,0,0,0-.363.562c-.007.147-.037.147.067.241Zm-7.827,2.643c.784.069.351-1.221.634-1.455.054-.115.153-.118.161.027v1.1c-.007.356.247.462.445.536.205-.015.342-.011.422.175l.1,1.9s.475.125.5-1.066a10.228,10.228,0,0,1-.049-1.423c0-.134.19-.14.318-.075.2.133.3.3.614.231.484-.123.776-.34.783-.682a2.767,2.767,0,0,0-.222-.977c.021-.059-.093-.213-.071-.273.087.126.219.115.249,0a.976.976,0,0,0-.418-.594.309.309,0,0,0-.514.18,1.5,1.5,0,0,0,.4,1.055.963.963,0,0,1,.1.526.323.323,0,0,1-.4-.071s-.385-.266-.385-.325c.1-.6.022-.673-.035-.84-.04-.231-.159-.3-.255-.462a.183.183,0,0,0-.29,0,1.476,1.476,0,0,0,.033,1.118c.089.241.225.391.161.391-.053.136-.163.1-.243-.053a3.619,3.619,0,0,1-.137-1.026c-.034-.27-.072-.848-.265-.994a.189.189,0,0,0-.171-.081.237.237,0,0,0-.182.141,4.493,4.493,0,0,0,.018.784,7.956,7.956,0,0,1,.239,1.259c.018.595-.373.257-.355-.038a2.486,2.486,0,0,0-.014-1.139.225.225,0,0,0-.292-.165c-.123-.008-.44.312-.528.838a4.619,4.619,0,0,0-.106.511c-.043.272-.239.465-.375-.038-.118-.365-.19-1.265-.388-1.054-.057.7-.124,1.939.524,2.066Zm5.048-1.192h0l0,0h0l0,0a3.158,3.158,0,0,0,.749,0l0,0h0s0,0,0,0a10.183,10.183,0,0,0,1.24-1.152c-.053-.042-.1-.073-.155-.115s-.051-.09,0-.135a.356.356,0,0,0,.041-.572.715.715,0,0,0-.306-.056.584.584,0,0,0-.245.062.4.4,0,0,0-.079.566c.136.059.272.186.181.256-.386.38-1.389,1.014-1.44,1.13l0,0a.023.023,0,0,0,0,0v0l0,0,0,0Zm1.52-1.691.012,0a.2.2,0,0,1,.175.122c.04.08.02.156-.045.171a.191.191,0,0,1-.188-.118c-.04-.08-.02-.158.045-.173Zm1.417,2.324c.313.119.512-.43.64-1.032.088-.169.155-.188.2-.1-.012.8.062.979.286,1.222a.767.767,0,0,0,.942.015l.388-.357a.248.248,0,0,1,.322-.015c.118.1.1.271.357.389a.834.834,0,0,0,.775-.15c.142-.225.177-.3.243-.387.1-.125.275-.069.275-.027-.016.069-.118.138-.049.263.121.083.149.027.22.011.253-.111.443-.617.443-.617.011-.188-.105-.174-.179-.135-.1.055-.1.073-.2.128-.124.019-.363.092-.481-.077a6.242,6.242,0,0,1-.214-.692c0-.015-.162-.322-.012-.342.075.015.238.051.263-.073.079-.122-.171-.467-.341-.641a.388.388,0,0,0-.549-.015c-.138.117-.118.248-.145.372a.548.548,0,0,0,.129.508,1.457,1.457,0,0,1,.306,1.026.455.455,0,0,1-.4.188c-.107-.023-.281-.064-.373-.694-.07-.477.017-1.144-.2-1.457-.049-.118-.092-.233-.163-.224-.043,0-.095.055-.167.177a.7.7,0,0,0-.114.714,1.967,1.967,0,0,1,.127,1.113,2.133,2.133,0,0,1-.233.3.4.4,0,0,1-.491.062.491.491,0,0,1-.294-.381,4.847,4.847,0,0,0-.045-1.229.252.252,0,0,0-.4-.075,2.724,2.724,0,0,0-.732,1.385c-.113.336-.234.239-.318.1-.206-.178-.22-1.569-.469-1.34-.4,1.049.229,2.2.663,2.086Zm-1.641-.748a.486.486,0,0,0-.181.675.379.379,0,0,0,.385.115c.233.027.371-.4.371-.4s.007-.121-.269.107c-.116.023-.132-.019-.161-.079a.5.5,0,0,1,.036-.336c.026-.067,0-.109-.055-.115a.24.24,0,0,0-.126.035Zm15.343,5.356c-.051-.054-.166-.023-.243-.027-.036,0-.158-.019-.1-.115a.646.646,0,0,0,.1-.173c.036-.074,0-.123-.127-.163a.892.892,0,0,0-.161-.015c-.048,0-.1.008-.173.015s-.108.048-.122.137c.006.135.1.129.188.182.053.063.088.119,0,.221l-.237.188c-.041.064-.067.164.059.2.233.06.771-.262.771-.269a.149.149,0,0,0,.051-.175Zm1.671-5.663a2.112,2.112,0,0,1-.053-.431c.035-.084.215.008.279-.088.094-.089-.465-.748-.661-1.03-.039-.071-.063-.129-.1-.126s-.06.043-.11.141a1.213,1.213,0,0,0-.114.8,40.589,40.589,0,0,1,.553,5.186,1.561,1.561,0,0,1-.11.427,3.521,3.521,0,0,1-.54.581c-.179.123-.559.24-.683.331-.394.21-.4.452-.078.461a2.034,2.034,0,0,0,1.648-.724,2.269,2.269,0,0,0,.267-.938,20.185,20.185,0,0,0-.3-4.588Zm-23.792,3.332,2.04-.9c-.112-.153-.007-.292-.426-.3-.645.011-1.588.779-1.613,1.2Zm.363,1.947c-.17.317-.24.1-.255-.077a3.765,3.765,0,0,1,.049-.891c.021-.126.02-.17,0-.169s-.049.045-.092.1a1.738,1.738,0,0,0-.206,1.654.471.471,0,0,0,.434.134.706.706,0,0,0,.29-.71c-.08-.116-.144-.134-.224-.034Zm4.808-.846a5.1,5.1,0,0,0,.088-1.583l0,0,0,0,0,0,.012,0a.69.69,0,0,0,.934-.075.166.166,0,0,1,.239-.023.579.579,0,0,0,.838-.22,6.428,6.428,0,0,0,.116-.951,1.1,1.1,0,0,0-.373.143.09.09,0,0,0-.027.045l-.045.272a.084.084,0,0,1-.008.023.067.067,0,0,1-.033.027c-.062.031-.17.015-.175-.07-.083-.349-.426-.394-.634.147-.14.1-.4.125-.422-.031.034-.363-.125-.412-.443-.241l-.306-2.124c.133,0,.254.085.375-.055a3.869,3.869,0,0,0-.565-1.212l0,0-.022-.023a.037.037,0,0,1-.01-.008s-.007,0-.01-.008a.054.054,0,0,0-.02-.008.2.2,0,0,0-.043,0h0a1.193,1.193,0,0,0-.133.035.358.358,0,0,0-.273.44l.522,3.047a.239.239,0,0,1-.239.282c-.257-.16-.321-.486-.761-.472a.83.83,0,0,0-.726.63,1.412,1.412,0,0,0,0,.722.673.673,0,0,0,.726.165c.193-.073.352-.249.42-.207h0s0,0,0,0c.042.068,0,.641-.91,1.085-.557.23-1,.285-1.238-.134-.148-.262.011-1.258-.353-1.028-1.075,2.554,2.519,2.911,2.921.105.026-.079.105-.158.161-.139a.117.117,0,0,1,.055.1c-.083,2.54-2.781,2.715-3.239,1.915a2.29,2.29,0,0,1-.159-.859.41.41,0,0,0-.11-.274c-.109-.075-.256.122-.288.464a2.837,2.837,0,0,0-.033.617c.144,2.006,3.615,1.144,4.179-.513ZM229.1,154.57s0,0,0,0l0,0c-.027.031-.122.019-.19.019a.188.188,0,0,1-.171-.077c-.023-.068.048-.135.08-.186l0,0s.009-.011.014-.015a.2.2,0,0,1,.112-.045l.027,0a.171.171,0,0,1,.165.111.182.182,0,0,1-.036.192Zm14.882,3.287-.6.06Zm-3.4-5.2c.268.118.774.066.753-.333,0-.035-.01-.154-.014-.186a.117.117,0,0,0-.126-.073.145.145,0,0,0-.112.107c-.011.04.021.1-.018.124-.022.023-.11.008-.106-.1a.184.184,0,0,0-.045-.1.087.087,0,0,0-.059-.015c-.037,0-.036.011-.057.04a.3.3,0,0,0-.02.092c0,.039-.02.053-.051.058s-.029,0-.057-.015-.036-.023-.036-.053a.3.3,0,0,0-.018-.1.112.112,0,0,0-.065-.031c-.147,0-.155.154-.147.212a.354.354,0,0,0,.181.365Zm4.328,1.028c0-.233.029-.542.043-.735.006-.073.024-.153.1-.171s.206.07.208-.008a.939.939,0,0,0-.137-.47.263.263,0,0,0-.2-.1.294.294,0,0,0-.308.239c0,.1.048.152.039.24-.014.051-.071.084-.206.023.021-.019-.088-.16-.088-.16a.364.364,0,0,0-.339.058.441.441,0,0,0-.03.378,1.761,1.761,0,0,0,.92.7Zm-1.673,3.214c.187,0,.4-.394.5-.786a6.146,6.146,0,0,0-.049-1.184c-.015-.317-.389-2.888-.465-3.128-.091-.453.364-.06.314-.323-.157-.332-.55-.817-.673-1.105-.046-.077-.052-.149-.09-.143-.023,0-.056.034-.118.111a2.3,2.3,0,0,0-.149,1.128,22.71,22.71,0,0,1,.734,5.43Zm-1.4-.387a5.123,5.123,0,0,1-1.732,1.164c-.073.075.181.4.51.4a1.919,1.919,0,0,0,1.481-1.092,1.857,1.857,0,0,0,.337-.838,16.885,16.885,0,0,0-.369-4.248.652.652,0,0,1,.016-.3c.035-.039.156,0,.22-.1.094-.088-.251-.821-.447-1.1-.039-.071-.063-.127-.1-.124s-.06.041-.11.139a1.484,1.484,0,0,0-.194.8c.262,1.673.343,3.137.514,4.81a.624.624,0,0,1-.128.491Zm1.129-.686C242.961,155.8,242.96,155.8,242.955,155.823Zm-2.2-4.717c.1.247-.073.483.027.517s.219-.256.267-.526a.792.792,0,0,0-.355-.761c-.018,0-.038,0-.057-.008-.138,0-.29.076-.23.235-.035.087.3.381.349.541Zm4.847,2.566a.048.048,0,0,0-.022,0l-1.275.844c-.123.1-.062.456,0,.415a5,5,0,0,0,1.318-.842c.055,0,.081-.4-.02-.419Zm-.876-2.282q.567.643,1.11,1.308c.079.933.1,1.789.179,2.724-.011.4-.145.931-.271.981a.312.312,0,0,1-.322-.011,3.6,3.6,0,0,1-.469-.577.3.3,0,0,0-.457,0,5.674,5.674,0,0,0-.8,1.4c-.066.1-.252.178-.459-.008a1.779,1.779,0,0,1-.278-1.381l-.005.023a1.4,1.4,0,0,0-.155,1.464,1.184,1.184,0,0,0,.579.607.428.428,0,0,0,.6-.06c.275-.263.279-.935.408-1.068a.248.248,0,0,1,.428-.094,1.032,1.032,0,0,0,.392.312.7.7,0,0,0,.865.057.949.949,0,0,0,.461-.519,16.758,16.758,0,0,0,.036-2.925l.575.769a17.581,17.581,0,0,1,.094,2.395c-.02.153.581-.458.577-.748v-.7c.292.429.574.865.84,1.306.165-.08.109-.943,0-1.062-.279-.432-.637-.9-.914-1.259-.055-.456-.129-.993-.163-1.158-.053-.257-.106-.643-.186-.947a2.977,2.977,0,0,1-.067-.536c.033-.085.156,0,.216-.1a3.24,3.24,0,0,0-.52-1.335c-.074-.124-.208-.081-.373.12-.154.132-.1.435-.039.722.152.732.288,1.478.4,2.222l-.681-.921-.03-.145c0-.015-.033-.6-.061-.739-.005-.057-.02-.073.045-.066a.381.381,0,0,0,.12.073c.069.011.129-.1.088-.2l-.64-1.09a.181.181,0,0,0-.088-.053c-.033,0-.069.011-.11.066a.415.415,0,0,0-.159.323c.019.258.069.522.088.78l.02.1a.981.981,0,0,0-.071-.077c-.546-.528.25-.086-.1-.494a4.113,4.113,0,0,0-.645-.583c-.129-.077-.207-.223-.249.023a4.611,4.611,0,0,0-.018.658.858.858,0,0,0,.214.41Zm3.164.424c.044.124-.066.523.024.56s.2-.276.245-.57c.024-.16-.105-.725-.324-.825a.308.308,0,0,0-.053-.008.192.192,0,0,0-.208.256c-.031.094.268.412.316.586Zm-9.509,5.782a.185.185,0,0,0,.228.023,4.551,4.551,0,0,1,.787-.254c.1,0,.09-.238-.061-.246a.972.972,0,0,0-.577.162c-.121.023-.142-.042-.169-.1-.031-.152.069-.259.049-.372a.288.288,0,0,0-.147-.054.172.172,0,0,0-.09.019,1.622,1.622,0,0,0-.361.284c-.053.038-.047.069-.03.134.041.087.114.06.2.019.109-.015.162.052.153.173A.21.21,0,0,0,238.381,157.6Zm1.231-2.4,0,0,0,0,0,0v0a.068.068,0,0,0,0-.019l-.118-.064-2.331-.011c-.029-.011-.05-.023-.063-.027l0,0,0,0,0,0,0,0,0,0v0l0,0v-.018l0,0,0,0a.167.167,0,0,1,.073-.04c.557-.07,1.546-.219,1.611-1.1-.011-.456-.212-.756-.82-.838a.775.775,0,0,0-.714.869c-.021.118.043.35-.088.376-.857.072-1.792.566-1.823.921h0l0,0,0,0h0l-.006,0H235.3l-.008,0a.2.2,0,0,1-.116-.218,4,4,0,0,0-.587-1.838c-.121-.111-.174-.156-.208-.162h-.017a.016.016,0,0,0-.01.008l-.006,0a1.136,1.136,0,0,1-.126.105c-.117.122-.138.208-.131.453.007.023.222.576.4.964a2.771,2.771,0,0,1,.153,1.3,3.331,3.331,0,0,1-1.424,1.372.8.8,0,0,1-.6,0l0,0a.327.327,0,0,1-.157-.312v0l0,0a3.231,3.231,0,0,0,1.43-1.363,1.293,1.293,0,0,0,.039-.981.908.908,0,0,0-.241-.455l0,0c.08-.035.288.106.32.019a1.4,1.4,0,0,0-.41-.7.365.365,0,0,0-.5-.027c-.173.089-.21.407-.126.686.092.21.342.246.52.669v0c0,.023.061.316-.028.432a5.474,5.474,0,0,1-1.073.929l-.006,0,0,0,0,0,0,0h0l0,0v0l0,0c0-.019,0-.06,0-.13-.006-.127.051-.415.047-.464v0l0,0v0h0c-.309.183-.411.747-.467.914a14.733,14.733,0,0,0-2.18,1.372c-.266.383,1.834-.44,2.078-.539a.016.016,0,0,1,.006.008c.046.047.05.211.19.359a1.166,1.166,0,0,0,1.134.336,3.544,3.544,0,0,0,1.638-1.256c.063-.085.163-.152.255-.086a2.621,2.621,0,0,0,2.323,1.124c.263-.3.137-.44.03-.5-.033-.023-.566-.212-.649-.4-.052-.177.074-.335.328-.453a12.3,12.3,0,0,0,2.144-.378,1.645,1.645,0,0,1,.237-.677.335.335,0,0,1,.12-.12Zm-1.923-1.349a.068.068,0,0,1,.008-.019.026.026,0,0,0,0-.008l0,0,.01-.011a.132.132,0,0,1,.059-.023.351.351,0,0,1,.181.045c.093.05.15.124.143.179,0,0,0,0,0,.008a.017.017,0,0,0,0,.008l0,.008,0,0,0,0a.138.138,0,0,1-.012.015.248.248,0,0,1-.245-.019c-.092-.049-.149-.124-.143-.178a.023.023,0,0,0,0-.008ZM236.757,156c-.25.079-.49.141-.491.474.033.165.026.251,0,.291l-.008.011,0,0,0,0,0,0,0,0,0,0s-.008,0-.012.008l-.012,0a.475.475,0,0,1-.21-.075,1.23,1.23,0,0,1-.649-.88.232.232,0,0,1,.245-.233h.026a7.825,7.825,0,0,0,.975.1c.271.015.4.211.151.293Zm-5.47-.733c-.006.1.286.212.3.432.042.091-.063.383.025.41s.191-.2.232-.417c.023-.118-.1-.531-.31-.605a.293.293,0,0,0-.1-.008c-.1.008-.192.056-.151.188Zm4.7-1.346c.268.118.908.049.753-.332,0-.035-.01-.154-.014-.186a.117.117,0,0,0-.126-.073.144.144,0,0,0-.112.105c-.011.04.021.106-.018.126-.022.023-.11.008-.106-.1a.186.186,0,0,0-.045-.1.08.08,0,0,0-.057-.015c-.037,0-.038.011-.059.04a.3.3,0,0,0-.02.092c0,.039-.02.053-.051.058s-.027,0-.055-.015-.039-.023-.039-.053a.306.306,0,0,0-.016-.1.12.12,0,0,0-.067-.031c-.147,0-.155.154-.147.212a.354.354,0,0,0,.181.365Zm2.273-2.724c.45.558.883,1.118,1.3,1.7.065.43.114.851.145,1.271a23.593,23.593,0,0,1,.026,3.032c.187.008.486-.278.591-.7a18.678,18.678,0,0,0-.03-2.1c0-.141-.014-.31-.025-.487q.763,1.148,1.422,2.361c.169-.074.132-.95.033-1.073-.371-.735-.883-1.461-1.046-1.741-.059-.1-.26-.382-.5-.707-.044-.463-.091-.855-.122-.974-.077-.49.218.055.177-.23a3.06,3.06,0,0,0-.734-1.269c-.111-.145-.109-.175-.281.035a.868.868,0,0,0-.071.562q-.086-.115-.181-.221l-.565-.442a.639.639,0,0,0-.341-.12.153.153,0,0,0-.143.135,1.322,1.322,0,0,0,.026.519,1.83,1.83,0,0,0,.316.442Zm.953-.031c.011.047.023.094.031.143.026.1.048.207.071.31-.1-.126-.181-.227-.216-.263-.224-.246,0-.161.114-.19Z" transform="translate(-212.816 -141.877)"/></g></g></svg>