<svg xmlns="http://www.w3.org/2000/svg" xmlns:xlink="http://www.w3.org/1999/xlink" width="32" height="32" viewBox="0 0 32 32"><defs><style>.a{fill:#fff;}.b{clip-path:url(#a);}.c{fill:#b22234;}.d{fill:#3c3b6e;}</style><clipPath id="a"><circle class="a" cx="16" cy="16" r="16"/></clipPath></defs><g class="b"><g transform="translate(-2.609)"><rect class="a" width="61.342" height="32.285"/><rect class="c" width="61.342" height="2.483"/><rect class="c" width="61.342" height="2.483" transform="translate(0 4.967)"/><rect class="c" width="61.342" height="2.483" transform="translate(0 9.934)"/><rect class="c" width="61.342" height="2.483" transform="translate(0 14.901)"/><rect class="c" width="61.342" height="2.483" transform="translate(0 19.868)"/><rect class="c" width="61.342" height="2.483" transform="translate(0 24.835)"/><rect class="c" width="61.342" height="2.483" transform="translate(0 29.802)"/><rect class="d" width="24.537" height="17.384"/><g transform="translate(1.053 0.724)"><g transform="translate(0 0)"><g transform="translate(0 0)"><g transform="translate(0)"><g transform="translate(0)"><path class="a" d="M0,.994.323,0,.646.994Z" transform="translate(0.723 1.989) rotate(-144.001)"/><path class="a" d="M0,.994.323,0,.646.994Z" transform="translate(0 0.994) rotate(-71.997)"/><path class="a" d="M-6.5-19.026l.323-.994.323.994Z" transform="translate(7.227 20.02)"/><path class="a" d="M0,.994.323,0,.646.994Z" transform="translate(1.892 0.38) rotate(71.997)"/><path class="a" d="M0,.994.323,0,.646.994Z" transform="translate(1.892 1.609) rotate(144.001)"/></g><g transform="translate(4.068)"><path class="a" d="M0,.994.323,0,.646.994Z" transform="translate(0.723 1.989) rotate(-144.001)"/><path class="a" d="M0,.994.323,0,.646.994Z" transform="translate(0 0.994) rotate(-71.997)"/><path class="a" d="M-6.5-19.026l.323-.994.323.994Z" transform="translate(7.227 20.02)"/><path class="a" d="M0,.994.323,0,.646.994Z" transform="translate(1.892 0.38) rotate(71.997)"/><path class="a" d="M0,.994.323,0,.646.994Z" transform="translate(1.892 1.609) rotate(144.001)"/></g><g transform="translate(8.136)"><path class="a" d="M0,.994.323,0,.646.994Z" transform="translate(0.723 1.989) rotate(-144.001)"/><path class="a" d="M0,.994.323,0,.646.994Z" transform="translate(0 0.994) rotate(-71.997)"/><path class="a" d="M-6.5-19.026l.323-.994.323.994Z" transform="translate(7.227 20.02)"/><path class="a" d="M0,.994.323,0,.646.994Z" transform="translate(1.892 0.38) rotate(71.997)"/><path class="a" d="M0,.994.323,0,.646.994Z" transform="translate(1.892 1.609) rotate(144.001)"/></g><g transform="translate(12.204)"><path class="a" d="M0,.994.323,0,.646.994Z" transform="translate(0.723 1.989) rotate(-144.001)"/><path class="a" d="M0,.994.323,0,.646.994Z" transform="translate(0 0.994) rotate(-71.997)"/><path class="a" d="M-6.5-19.026l.323-.994.323.994Z" transform="translate(7.227 20.02)"/><path class="a" d="M0,.994.323,0,.646.994Z" transform="translate(1.892 0.38) rotate(71.997)"/><path class="a" d="M0,.994.323,0,.646.994Z" transform="translate(1.892 1.609) rotate(144.001)"/></g><g transform="translate(16.272)"><path class="a" d="M0,.994.323,0,.646.994Z" transform="translate(0.723 1.989) rotate(-144.001)"/><path class="a" d="M0,.994.323,0,.646.994Z" transform="translate(0 0.994) rotate(-71.997)"/><path class="a" d="M-6.5-19.026l.323-.994.323.994Z" transform="translate(7.227 20.02)"/><path class="a" d="M0,.994.323,0,.646.994Z" transform="translate(1.892 0.38) rotate(71.997)"/><path class="a" d="M0,.994.323,0,.646.994Z" transform="translate(1.892 1.609) rotate(144.001)"/></g></g><g transform="translate(20.34)"><path class="a" d="M0,.994.323,0,.646.994Z" transform="translate(0.723 1.989) rotate(-144.001)"/><path class="a" d="M0,.994.323,0,.646.994Z" transform="translate(0 0.994) rotate(-71.997)"/><path class="a" d="M-6.5-19.026l.323-.994.323.994Z" transform="translate(7.227 20.02)"/><path class="a" d="M0,.994.323,0,.646.994Z" transform="translate(1.892 0.38) rotate(71.997)"/><path class="a" d="M0,.994.323,0,.646.994Z" transform="translate(1.892 1.609) rotate(144.001)"/></g></g><g transform="translate(2.034 1.743)"><g transform="translate(0 0)"><path class="a" d="M0,.994.323,0,.646.994Z" transform="translate(0.723 1.989) rotate(-144.001)"/><path class="a" d="M0,.994.323,0,.646.994Z" transform="translate(0 0.994) rotate(-71.997)"/><path class="a" d="M-6.5-19.026l.323-.994.323.994Z" transform="translate(7.227 20.02)"/><path class="a" d="M0,.994.323,0,.646.994Z" transform="translate(1.892 0.38) rotate(71.997)"/><path class="a" d="M0,.994.323,0,.646.994Z" transform="translate(1.892 1.609) rotate(144.001)"/></g><g transform="translate(4.068 0)"><path class="a" d="M0,.994.323,0,.646.994Z" transform="translate(0.723 1.989) rotate(-144.001)"/><path class="a" d="M0,.994.323,0,.646.994Z" transform="translate(0 0.994) rotate(-71.997)"/><path class="a" d="M-6.5-19.026l.323-.994.323.994Z" transform="translate(7.227 20.02)"/><path class="a" d="M0,.994.323,0,.646.994Z" transform="translate(1.892 0.38) rotate(71.997)"/><path class="a" d="M0,.994.323,0,.646.994Z" transform="translate(1.892 1.609) rotate(144.001)"/></g><g transform="translate(8.136 0)"><path class="a" d="M0,.994.323,0,.646.994Z" transform="translate(0.723 1.989) rotate(-144.001)"/><path class="a" d="M0,.994.323,0,.646.994Z" transform="translate(0 0.994) rotate(-71.997)"/><path class="a" d="M-6.5-19.026l.323-.994.323.994Z" transform="translate(7.227 20.02)"/><path class="a" d="M0,.994.323,0,.646.994Z" transform="translate(1.892 0.38) rotate(71.997)"/><path class="a" d="M0,.994.323,0,.646.994Z" transform="translate(1.892 1.609) rotate(144.001)"/></g><g transform="translate(12.204 0)"><path class="a" d="M0,.994.323,0,.646.994Z" transform="translate(0.723 1.989) rotate(-144.001)"/><path class="a" d="M0,.994.323,0,.646.994Z" transform="translate(0 0.994) rotate(-71.997)"/><path class="a" d="M-6.5-19.026l.323-.994.323.994Z" transform="translate(7.227 20.02)"/><path class="a" d="M0,.994.323,0,.646.994Z" transform="translate(1.892 0.38) rotate(71.997)"/><path class="a" d="M0,.994.323,0,.646.994Z" transform="translate(1.892 1.609) rotate(144.001)"/></g><g transform="translate(16.272 0)"><path class="a" d="M0,.994.323,0,.646.994Z" transform="translate(0.723 1.989) rotate(-144.001)"/><path class="a" d="M0,.994.323,0,.646.994Z" transform="translate(0 0.994) rotate(-71.997)"/><path class="a" d="M-6.5-19.026l.323-.994.323.994Z" transform="translate(7.227 20.02)"/><path class="a" d="M0,.994.323,0,.646.994Z" transform="translate(1.892 0.38) rotate(71.997)"/><path class="a" d="M0,.994.323,0,.646.994Z" transform="translate(1.892 1.609) rotate(144.001)"/></g></g><g transform="translate(0 3.487)"><g transform="translate(0 0)"><g transform="translate(0)"><path class="a" d="M0,.994.323,0,.646.994Z" transform="translate(0.723 1.989) rotate(-144.001)"/><path class="a" d="M0,.994.323,0,.646.994Z" transform="translate(0 0.994) rotate(-71.997)"/><path class="a" d="M-6.5-19.026l.323-.994.323.994Z" transform="translate(7.227 20.02)"/><path class="a" d="M0,.994.323,0,.646.994Z" transform="translate(1.892 0.38) rotate(71.997)"/><path class="a" d="M0,.994.323,0,.646.994Z" transform="translate(1.892 1.609) rotate(144.001)"/></g><g transform="translate(4.068)"><path class="a" d="M0,.994.323,0,.646.994Z" transform="translate(0.723 1.989) rotate(-144.001)"/><path class="a" d="M0,.994.323,0,.646.994Z" transform="translate(0 0.994) rotate(-71.997)"/><path class="a" d="M-6.5-19.026l.323-.994.323.994Z" transform="translate(7.227 20.02)"/><path class="a" d="M0,.994.323,0,.646.994Z" transform="translate(1.892 0.38) rotate(71.997)"/><path class="a" d="M0,.994.323,0,.646.994Z" transform="translate(1.892 1.609) rotate(144.001)"/></g><g transform="translate(8.136)"><path class="a" d="M0,.994.323,0,.646.994Z" transform="translate(0.723 1.989) rotate(-144.001)"/><path class="a" d="M0,.994.323,0,.646.994Z" transform="translate(0 0.994) rotate(-71.997)"/><path class="a" d="M-6.5-19.026l.323-.994.323.994Z" transform="translate(7.227 20.02)"/><path class="a" d="M0,.994.323,0,.646.994Z" transform="translate(1.892 0.38) rotate(71.997)"/><path class="a" d="M0,.994.323,0,.646.994Z" transform="translate(1.892 1.609) rotate(144.001)"/></g><g transform="translate(12.204)"><path class="a" d="M0,.994.323,0,.646.994Z" transform="translate(0.723 1.989) rotate(-144.001)"/><path class="a" d="M0,.994.323,0,.646.994Z" transform="translate(0 0.994) rotate(-71.997)"/><path class="a" d="M-6.5-19.026l.323-.994.323.994Z" transform="translate(7.227 20.02)"/><path class="a" d="M0,.994.323,0,.646.994Z" transform="translate(1.892 0.38) rotate(71.997)"/><path class="a" d="M0,.994.323,0,.646.994Z" transform="translate(1.892 1.609) rotate(144.001)"/></g><g transform="translate(16.272)"><path class="a" d="M0,.994.323,0,.646.994Z" transform="translate(0.723 1.989) rotate(-144.001)"/><path class="a" d="M0,.994.323,0,.646.994Z" transform="translate(0 0.994) rotate(-71.997)"/><path class="a" d="M-6.5-19.026l.323-.994.323.994Z" transform="translate(7.227 20.02)"/><path class="a" d="M0,.994.323,0,.646.994Z" transform="translate(1.892 0.38) rotate(71.997)"/><path class="a" d="M0,.994.323,0,.646.994Z" transform="translate(1.892 1.609) rotate(144.001)"/></g></g><g transform="translate(20.34 0)"><path class="a" d="M0,.994.323,0,.646.994Z" transform="translate(0.723 1.989) rotate(-144.001)"/><path class="a" d="M0,.994.323,0,.646.994Z" transform="translate(0 0.994) rotate(-71.997)"/><path class="a" d="M-6.5-19.026l.323-.994.323.994Z" transform="translate(7.227 20.02)"/><path class="a" d="M0,.994.323,0,.646.994Z" transform="translate(1.892 0.38) rotate(71.997)"/><path class="a" d="M0,.994.323,0,.646.994Z" transform="translate(1.892 1.609) rotate(144.001)"/></g></g><g transform="translate(2.034 5.23)"><g transform="translate(0 0)"><path class="a" d="M0,.994.323,0,.646.994Z" transform="translate(0.723 1.989) rotate(-144.001)"/><path class="a" d="M0,.994.323,0,.646.994Z" transform="translate(0 0.994) rotate(-71.997)"/><path class="a" d="M-6.5-19.026l.323-.994.323.994Z" transform="translate(7.227 20.02)"/><path class="a" d="M0,.994.323,0,.646.994Z" transform="translate(1.892 0.38) rotate(71.997)"/><path class="a" d="M0,.994.323,0,.646.994Z" transform="translate(1.892 1.609) rotate(144.001)"/></g><g transform="translate(4.068 0)"><path class="a" d="M0,.994.323,0,.646.994Z" transform="translate(0.723 1.989) rotate(-144.001)"/><path class="a" d="M0,.994.323,0,.646.994Z" transform="translate(0 0.994) rotate(-71.997)"/><path class="a" d="M-6.5-19.026l.323-.994.323.994Z" transform="translate(7.227 20.02)"/><path class="a" d="M0,.994.323,0,.646.994Z" transform="translate(1.892 0.38) rotate(71.997)"/><path class="a" d="M0,.994.323,0,.646.994Z" transform="translate(1.892 1.609) rotate(144.001)"/></g><g transform="translate(8.136 0)"><path class="a" d="M0,.994.323,0,.646.994Z" transform="translate(0.723 1.989) rotate(-144.001)"/><path class="a" d="M0,.994.323,0,.646.994Z" transform="translate(0 0.994) rotate(-71.997)"/><path class="a" d="M-6.5-19.026l.323-.994.323.994Z" transform="translate(7.227 20.02)"/><path class="a" d="M0,.994.323,0,.646.994Z" transform="translate(1.892 0.38) rotate(71.997)"/><path class="a" d="M0,.994.323,0,.646.994Z" transform="translate(1.892 1.609) rotate(144.001)"/></g><g transform="translate(12.204 0)"><path class="a" d="M0,.994.323,0,.646.994Z" transform="translate(0.723 1.989) rotate(-144.001)"/><path class="a" d="M0,.994.323,0,.646.994Z" transform="translate(0 0.994) rotate(-71.997)"/><path class="a" d="M-6.5-19.026l.323-.994.323.994Z" transform="translate(7.227 20.02)"/><path class="a" d="M0,.994.323,0,.646.994Z" transform="translate(1.892 0.38) rotate(71.997)"/><path class="a" d="M0,.994.323,0,.646.994Z" transform="translate(1.892 1.609) rotate(144.001)"/></g><g transform="translate(16.272 0)"><path class="a" d="M0,.994.323,0,.646.994Z" transform="translate(0.723 1.989) rotate(-144.001)"/><path class="a" d="M0,.994.323,0,.646.994Z" transform="translate(0 0.994) rotate(-71.997)"/><path class="a" d="M-6.5-19.026l.323-.994.323.994Z" transform="translate(7.227 20.02)"/><path class="a" d="M0,.994.323,0,.646.994Z" transform="translate(1.892 0.38) rotate(71.997)"/><path class="a" d="M0,.994.323,0,.646.994Z" transform="translate(1.892 1.609) rotate(144.001)"/></g></g></g><g transform="translate(0 6.974)"><g transform="translate(0 0)"><g transform="translate(0)"><g transform="translate(0)"><path class="a" d="M0,.994.323,0,.646.994Z" transform="translate(0.723 1.989) rotate(-144.001)"/><path class="a" d="M0,.994.323,0,.646.994Z" transform="translate(0 0.994) rotate(-71.997)"/><path class="a" d="M-6.5-19.026l.323-.994.323.994Z" transform="translate(7.227 20.02)"/><path class="a" d="M0,.994.323,0,.646.994Z" transform="translate(1.892 0.38) rotate(71.997)"/><path class="a" d="M0,.994.323,0,.646.994Z" transform="translate(1.892 1.609) rotate(144.001)"/></g><g transform="translate(4.068)"><path class="a" d="M0,.994.323,0,.646.994Z" transform="translate(0.723 1.989) rotate(-144.001)"/><path class="a" d="M0,.994.323,0,.646.994Z" transform="translate(0 0.994) rotate(-71.997)"/><path class="a" d="M-6.5-19.026l.323-.994.323.994Z" transform="translate(7.227 20.02)"/><path class="a" d="M0,.994.323,0,.646.994Z" transform="translate(1.892 0.38) rotate(71.997)"/><path class="a" d="M0,.994.323,0,.646.994Z" transform="translate(1.892 1.609) rotate(144.001)"/></g><g transform="translate(8.136)"><path class="a" d="M0,.994.323,0,.646.994Z" transform="translate(0.723 1.989) rotate(-144.001)"/><path class="a" d="M0,.994.323,0,.646.994Z" transform="translate(0 0.994) rotate(-71.997)"/><path class="a" d="M-6.5-19.026l.323-.994.323.994Z" transform="translate(7.227 20.02)"/><path class="a" d="M0,.994.323,0,.646.994Z" transform="translate(1.892 0.38) rotate(71.997)"/><path class="a" d="M0,.994.323,0,.646.994Z" transform="translate(1.892 1.609) rotate(144.001)"/></g><g transform="translate(12.204)"><path class="a" d="M0,.994.323,0,.646.994Z" transform="translate(0.723 1.989) rotate(-144.001)"/><path class="a" d="M0,.994.323,0,.646.994Z" transform="translate(0 0.994) rotate(-71.997)"/><path class="a" d="M-6.5-19.026l.323-.994.323.994Z" transform="translate(7.227 20.02)"/><path class="a" d="M0,.994.323,0,.646.994Z" transform="translate(1.892 0.38) rotate(71.997)"/><path class="a" d="M0,.994.323,0,.646.994Z" transform="translate(1.892 1.609) rotate(144.001)"/></g><g transform="translate(16.272)"><path class="a" d="M0,.994.323,0,.646.994Z" transform="translate(0.723 1.989) rotate(-144.001)"/><path class="a" d="M0,.994.323,0,.646.994Z" transform="translate(0 0.994) rotate(-71.997)"/><path class="a" d="M-6.5-19.026l.323-.994.323.994Z" transform="translate(7.227 20.02)"/><path class="a" d="M0,.994.323,0,.646.994Z" transform="translate(1.892 0.38) rotate(71.997)"/><path class="a" d="M0,.994.323,0,.646.994Z" transform="translate(1.892 1.609) rotate(144.001)"/></g></g><g transform="translate(20.34)"><path class="a" d="M0,.994.323,0,.646.994Z" transform="translate(0.723 1.989) rotate(-144.001)"/><path class="a" d="M0,.994.323,0,.646.994Z" transform="translate(0 0.994) rotate(-71.997)"/><path class="a" d="M-6.5-19.026l.323-.994.323.994Z" transform="translate(7.227 20.02)"/><path class="a" d="M0,.994.323,0,.646.994Z" transform="translate(1.892 0.38) rotate(71.997)"/><path class="a" d="M0,.994.323,0,.646.994Z" transform="translate(1.892 1.609) rotate(144.001)"/></g></g><g transform="translate(2.034 1.743)"><g transform="translate(0 0)"><path class="a" d="M0,.994.323,0,.646.994Z" transform="translate(0.723 1.989) rotate(-144.001)"/><path class="a" d="M0,.994.323,0,.646.994Z" transform="translate(0 0.994) rotate(-71.997)"/><path class="a" d="M-6.5-19.026l.323-.994.323.994Z" transform="translate(7.227 20.02)"/><path class="a" d="M0,.994.323,0,.646.994Z" transform="translate(1.892 0.38) rotate(71.997)"/><path class="a" d="M0,.994.323,0,.646.994Z" transform="translate(1.892 1.609) rotate(144.001)"/></g><g transform="translate(4.068 0)"><path class="a" d="M0,.994.323,0,.646.994Z" transform="translate(0.723 1.989) rotate(-144.001)"/><path class="a" d="M0,.994.323,0,.646.994Z" transform="translate(0 0.994) rotate(-71.997)"/><path class="a" d="M-6.5-19.026l.323-.994.323.994Z" transform="translate(7.227 20.02)"/><path class="a" d="M0,.994.323,0,.646.994Z" transform="translate(1.892 0.38) rotate(71.997)"/><path class="a" d="M0,.994.323,0,.646.994Z" transform="translate(1.892 1.609) rotate(144.001)"/></g><g transform="translate(8.136 0)"><path class="a" d="M0,.994.323,0,.646.994Z" transform="translate(0.723 1.989) rotate(-144.001)"/><path class="a" d="M0,.994.323,0,.646.994Z" transform="translate(0 0.994) rotate(-71.997)"/><path class="a" d="M-6.5-19.026l.323-.994.323.994Z" transform="translate(7.227 20.02)"/><path class="a" d="M0,.994.323,0,.646.994Z" transform="translate(1.892 0.38) rotate(71.997)"/><path class="a" d="M0,.994.323,0,.646.994Z" transform="translate(1.892 1.609) rotate(144.001)"/></g><g transform="translate(12.204 0)"><path class="a" d="M0,.994.323,0,.646.994Z" transform="translate(0.723 1.989) rotate(-144.001)"/><path class="a" d="M0,.994.323,0,.646.994Z" transform="translate(0 0.994) rotate(-71.997)"/><path class="a" d="M-6.5-19.026l.323-.994.323.994Z" transform="translate(7.227 20.02)"/><path class="a" d="M0,.994.323,0,.646.994Z" transform="translate(1.892 0.38) rotate(71.997)"/><path class="a" d="M0,.994.323,0,.646.994Z" transform="translate(1.892 1.609) rotate(144.001)"/></g><g transform="translate(16.272 0)"><path class="a" d="M0,.994.323,0,.646.994Z" transform="translate(0.723 1.989) rotate(-144.001)"/><path class="a" d="M0,.994.323,0,.646.994Z" transform="translate(0 0.994) rotate(-71.997)"/><path class="a" d="M-6.5-19.026l.323-.994.323.994Z" transform="translate(7.227 20.02)"/><path class="a" d="M0,.994.323,0,.646.994Z" transform="translate(1.892 0.38) rotate(71.997)"/><path class="a" d="M0,.994.323,0,.646.994Z" transform="translate(1.892 1.609) rotate(144.001)"/></g></g><g transform="translate(0 3.487)"><g transform="translate(0 0)"><g transform="translate(0)"><path class="a" d="M0,.994.323,0,.646.994Z" transform="translate(0.723 1.989) rotate(-144.001)"/><path class="a" d="M0,.994.323,0,.646.994Z" transform="translate(0 0.994) rotate(-71.997)"/><path class="a" d="M-6.5-19.026l.323-.994.323.994Z" transform="translate(7.227 20.02)"/><path class="a" d="M0,.994.323,0,.646.994Z" transform="translate(1.892 0.38) rotate(71.997)"/><path class="a" d="M0,.994.323,0,.646.994Z" transform="translate(1.892 1.609) rotate(144.001)"/></g><g transform="translate(4.068)"><path class="a" d="M0,.994.323,0,.646.994Z" transform="translate(0.723 1.989) rotate(-144.001)"/><path class="a" d="M0,.994.323,0,.646.994Z" transform="translate(0 0.994) rotate(-71.997)"/><path class="a" d="M-6.5-19.026l.323-.994.323.994Z" transform="translate(7.227 20.02)"/><path class="a" d="M0,.994.323,0,.646.994Z" transform="translate(1.892 0.38) rotate(71.997)"/><path class="a" d="M0,.994.323,0,.646.994Z" transform="translate(1.892 1.609) rotate(144.001)"/></g><g transform="translate(8.136)"><path class="a" d="M0,.994.323,0,.646.994Z" transform="translate(0.723 1.989) rotate(-144.001)"/><path class="a" d="M0,.994.323,0,.646.994Z" transform="translate(0 0.994) rotate(-71.997)"/><path class="a" d="M-6.5-19.026l.323-.994.323.994Z" transform="translate(7.227 20.02)"/><path class="a" d="M0,.994.323,0,.646.994Z" transform="translate(1.892 0.38) rotate(71.997)"/><path class="a" d="M0,.994.323,0,.646.994Z" transform="translate(1.892 1.609) rotate(144.001)"/></g><g transform="translate(12.204)"><path class="a" d="M0,.994.323,0,.646.994Z" transform="translate(0.723 1.989) rotate(-144.001)"/><path class="a" d="M0,.994.323,0,.646.994Z" transform="translate(0 0.994) rotate(-71.997)"/><path class="a" d="M-6.5-19.026l.323-.994.323.994Z" transform="translate(7.227 20.02)"/><path class="a" d="M0,.994.323,0,.646.994Z" transform="translate(1.892 0.38) rotate(71.997)"/><path class="a" d="M0,.994.323,0,.646.994Z" transform="translate(1.892 1.609) rotate(144.001)"/></g><g transform="translate(16.272)"><path class="a" d="M0,.994.323,0,.646.994Z" transform="translate(0.723 1.989) rotate(-144.001)"/><path class="a" d="M0,.994.323,0,.646.994Z" transform="translate(0 0.994) rotate(-71.997)"/><path class="a" d="M-6.5-19.026l.323-.994.323.994Z" transform="translate(7.227 20.02)"/><path class="a" d="M0,.994.323,0,.646.994Z" transform="translate(1.892 0.38) rotate(71.997)"/><path class="a" d="M0,.994.323,0,.646.994Z" transform="translate(1.892 1.609) rotate(144.001)"/></g></g><g transform="translate(20.34 0)"><path class="a" d="M0,.994.323,0,.646.994Z" transform="translate(0.723 1.989) rotate(-144.001)"/><path class="a" d="M0,.994.323,0,.646.994Z" transform="translate(0 0.994) rotate(-71.997)"/><path class="a" d="M-6.5-19.026l.323-.994.323.994Z" transform="translate(7.227 20.02)"/><path class="a" d="M0,.994.323,0,.646.994Z" transform="translate(1.892 0.38) rotate(71.997)"/><path class="a" d="M0,.994.323,0,.646.994Z" transform="translate(1.892 1.609) rotate(144.001)"/></g></g><g transform="translate(2.034 5.23)"><g transform="translate(0 0)"><path class="a" d="M0,.994.323,0,.646.994Z" transform="translate(0.723 1.989) rotate(-144.001)"/><path class="a" d="M0,.994.323,0,.646.994Z" transform="translate(0 0.994) rotate(-71.997)"/><path class="a" d="M-6.5-19.026l.323-.994.323.994Z" transform="translate(7.227 20.02)"/><path class="a" d="M0,.994.323,0,.646.994Z" transform="translate(1.892 0.38) rotate(71.997)"/><path class="a" d="M0,.994.323,0,.646.994Z" transform="translate(1.892 1.609) rotate(144.001)"/></g><g transform="translate(4.068 0)"><path class="a" d="M0,.994.323,0,.646.994Z" transform="translate(0.723 1.989) rotate(-144.001)"/><path class="a" d="M0,.994.323,0,.646.994Z" transform="translate(0 0.994) rotate(-71.997)"/><path class="a" d="M-6.5-19.026l.323-.994.323.994Z" transform="translate(7.227 20.02)"/><path class="a" d="M0,.994.323,0,.646.994Z" transform="translate(1.892 0.38) rotate(71.997)"/><path class="a" d="M0,.994.323,0,.646.994Z" transform="translate(1.892 1.609) rotate(144.001)"/></g><g transform="translate(8.136 0)"><path class="a" d="M0,.994.323,0,.646.994Z" transform="translate(0.723 1.989) rotate(-144.001)"/><path class="a" d="M0,.994.323,0,.646.994Z" transform="translate(0 0.994) rotate(-71.997)"/><path class="a" d="M-6.5-19.026l.323-.994.323.994Z" transform="translate(7.227 20.02)"/><path class="a" d="M0,.994.323,0,.646.994Z" transform="translate(1.892 0.38) rotate(71.997)"/><path class="a" d="M0,.994.323,0,.646.994Z" transform="translate(1.892 1.609) rotate(144.001)"/></g><g transform="translate(12.204 0)"><path class="a" d="M0,.994.323,0,.646.994Z" transform="translate(0.723 1.989) rotate(-144.001)"/><path class="a" d="M0,.994.323,0,.646.994Z" transform="translate(0 0.994) rotate(-71.997)"/><path class="a" d="M-6.5-19.026l.323-.994.323.994Z" transform="translate(7.227 20.02)"/><path class="a" d="M0,.994.323,0,.646.994Z" transform="translate(1.892 0.38) rotate(71.997)"/><path class="a" d="M0,.994.323,0,.646.994Z" transform="translate(1.892 1.609) rotate(144.001)"/></g><g transform="translate(16.272 0)"><path class="a" d="M0,.994.323,0,.646.994Z" transform="translate(0.723 1.989) rotate(-144.001)"/><path class="a" d="M0,.994.323,0,.646.994Z" transform="translate(0 0.994) rotate(-71.997)"/><path class="a" d="M-6.5-19.026l.323-.994.323.994Z" transform="translate(7.227 20.02)"/><path class="a" d="M0,.994.323,0,.646.994Z" transform="translate(1.892 0.38) rotate(71.997)"/><path class="a" d="M0,.994.323,0,.646.994Z" transform="translate(1.892 1.609) rotate(144.001)"/></g></g></g><g transform="translate(0 13.947)"><g transform="translate(0 0)"><g transform="translate(0)"><path class="a" d="M0,.994.323,0,.646.994Z" transform="translate(0.723 1.989) rotate(-144.001)"/><path class="a" d="M0,.994.323,0,.646.994Z" transform="translate(0 0.994) rotate(-71.997)"/><path class="a" d="M-6.5-19.026l.323-.994.323.994Z" transform="translate(7.227 20.02)"/><path class="a" d="M0,.994.323,0,.646.994Z" transform="translate(1.892 0.38) rotate(71.997)"/><path class="a" d="M0,.994.323,0,.646.994Z" transform="translate(1.892 1.609) rotate(144.001)"/></g><g transform="translate(4.068)"><path class="a" d="M0,.994.323,0,.646.994Z" transform="translate(0.723 1.989) rotate(-144.001)"/><path class="a" d="M0,.994.323,0,.646.994Z" transform="translate(0 0.994) rotate(-71.997)"/><path class="a" d="M-6.5-19.026l.323-.994.323.994Z" transform="translate(7.227 20.02)"/><path class="a" d="M0,.994.323,0,.646.994Z" transform="translate(1.892 0.38) rotate(71.997)"/><path class="a" d="M0,.994.323,0,.646.994Z" transform="translate(1.892 1.609) rotate(144.001)"/></g><g transform="translate(8.136)"><path class="a" d="M0,.994.323,0,.646.994Z" transform="translate(0.723 1.989) rotate(-144.001)"/><path class="a" d="M0,.994.323,0,.646.994Z" transform="translate(0 0.994) rotate(-71.997)"/><path class="a" d="M-6.5-19.026l.323-.994.323.994Z" transform="translate(7.227 20.02)"/><path class="a" d="M0,.994.323,0,.646.994Z" transform="translate(1.892 0.38) rotate(71.997)"/><path class="a" d="M0,.994.323,0,.646.994Z" transform="translate(1.892 1.609) rotate(144.001)"/></g><g transform="translate(12.204)"><path class="a" d="M0,.994.323,0,.646.994Z" transform="translate(0.723 1.989) rotate(-144.001)"/><path class="a" d="M0,.994.323,0,.646.994Z" transform="translate(0 0.994) rotate(-71.997)"/><path class="a" d="M-6.5-19.026l.323-.994.323.994Z" transform="translate(7.227 20.02)"/><path class="a" d="M0,.994.323,0,.646.994Z" transform="translate(1.892 0.38) rotate(71.997)"/><path class="a" d="M0,.994.323,0,.646.994Z" transform="translate(1.892 1.609) rotate(144.001)"/></g><g transform="translate(16.272)"><path class="a" d="M0,.994.323,0,.646.994Z" transform="translate(0.723 1.989) rotate(-144.001)"/><path class="a" d="M0,.994.323,0,.646.994Z" transform="translate(0 0.994) rotate(-71.997)"/><path class="a" d="M-6.5-19.026l.323-.994.323.994Z" transform="translate(7.227 20.02)"/><path class="a" d="M0,.994.323,0,.646.994Z" transform="translate(1.892 0.38) rotate(71.997)"/><path class="a" d="M0,.994.323,0,.646.994Z" transform="translate(1.892 1.609) rotate(144.001)"/></g></g><g transform="translate(20.34 0)"><path class="a" d="M0,.994.323,0,.646.994Z" transform="translate(0.723 1.989) rotate(-144.001)"/><path class="a" d="M0,.994.323,0,.646.994Z" transform="translate(0 0.994) rotate(-71.997)"/><path class="a" d="M-6.5-19.026l.323-.994.323.994Z" transform="translate(7.227 20.02)"/><path class="a" d="M0,.994.323,0,.646.994Z" transform="translate(1.892 0.38) rotate(71.997)"/><path class="a" d="M0,.994.323,0,.646.994Z" transform="translate(1.892 1.609) rotate(144.001)"/></g></g></g></g></g></svg>