<svg xmlns="http://www.w3.org/2000/svg" xmlns:xlink="http://www.w3.org/1999/xlink" width="31" height="46" viewBox="0 0 31 46"><defs><style>.a{fill:#fff;}.b{filter:url(#a);}</style><filter id="a" x="0" y="0" width="31" height="46" filterUnits="userSpaceOnUse"><feOffset dy="3" input="SourceAlpha"/><feGaussianBlur stdDeviation="3" result="b"/><feFlood flood-opacity="0.2"/><feComposite operator="in" in2="b"/><feComposite in="SourceGraphic"/></filter></defs><g class="b" transform="matrix(1, 0, 0, 1, 0, 0)"><path class="a" d="M251.618,359.423h-3.906v13.984h-5.828V359.423H239.13v-4.928h2.754v-3.2a6.922,6.922,0,0,1,.448-2.528,4.912,4.912,0,0,1,1.761-2.336,6.151,6.151,0,0,1,3.65-1.024l4.323.032v4.8h-3.138a1.242,1.242,0,0,0-.8.256,1.347,1.347,0,0,0-.416,1.088v2.912h4.419Z" transform="translate(-230.13 -339.41)"/></g></svg>