<svg xmlns="http://www.w3.org/2000/svg" xmlns:xlink="http://www.w3.org/1999/xlink" width="46" height="37" viewBox="0 0 46 37"><defs><style>.a{fill:#fff;}.b{filter:url(#a);}</style><filter id="a" x="0" y="0" width="46" height="37" filterUnits="userSpaceOnUse"><feOffset dy="3" input="SourceAlpha"/><feGaussianBlur stdDeviation="3" result="b"/><feFlood flood-opacity="0.2"/><feComposite operator="in" in2="b"/><feComposite in="SourceGraphic"/></filter></defs><g class="b" transform="matrix(1, 0, 0, 1, 0, 0)"><path class="a" d="M979.27,1369.3q0,2.26-.032,2.816-.129,1.827-.256,2.662a6.348,6.348,0,0,1-.417,1.516,3.026,3.026,0,0,1-.769,1.176,3.734,3.734,0,0,1-1.954.99q-6.087.434-12.975.31-4.037-.063-5.75-.14a19.856,19.856,0,0,1-2.547-.232,3.793,3.793,0,0,1-1.89-.959,4.158,4.158,0,0,1-.9-1.7,5.643,5.643,0,0,1-.24-.959q-.081-.5-.144-1.486a61.7,61.7,0,0,1,0-7.985l.192-1.516a6.994,6.994,0,0,1,.352-1.486,3.388,3.388,0,0,1,.833-1.238,4.145,4.145,0,0,1,1.89-.928,33.674,33.674,0,0,1,3.892-.248q3.091-.093,6.712-.093t6.712.109q3.091.109,3.924.232a3.978,3.978,0,0,1,1.233.464,3.135,3.135,0,0,1,.945.8,5.524,5.524,0,0,1,.737,1.671,9.1,9.1,0,0,1,.32,1.764q0,.155.1,1.64C979.258,1366.857,979.27,1367.8,979.27,1369.3Zm-12.911,1.517q2.53-1.237,3.588-1.8l-7.529-3.838v7.645Q963.732,1372.122,966.359,1370.818Z" transform="translate(-942.27 -1353.8)"/></g></svg>