<svg xmlns="http://www.w3.org/2000/svg" xmlns:xlink="http://www.w3.org/1999/xlink" width="46" height="40" viewBox="0 0 46 40"><defs><style>.a{fill:#fff;}.b{filter:url(#a);}</style><filter id="a" x="0" y="0" width="46" height="40" filterUnits="userSpaceOnUse"><feOffset dy="3" input="SourceAlpha"/><feGaussianBlur stdDeviation="3" result="b"/><feFlood flood-opacity="0.2"/><feComposite operator="in" in2="b"/><feComposite in="SourceGraphic"/></filter></defs><g class="b" transform="matrix(1, 0, 0, 1, 0, 0)"><path class="a" d="M976.353,1146.357v.712a15.625,15.625,0,0,1-1.055,5.569,16.5,16.5,0,0,1-3.132,5.074,15.509,15.509,0,0,1-5.114,3.714,17.154,17.154,0,0,1-7,1.423,16.871,16.871,0,0,1-4.667-.65,16.132,16.132,0,0,1-4.155-1.825q.671.063,1.374.062a11.756,11.756,0,0,0,3.8-.619,12.054,12.054,0,0,0,3.324-1.733,5.861,5.861,0,0,1-3.324-1.129,5.366,5.366,0,0,1-2.014-2.738,5.886,5.886,0,0,0,1.055.093,6.109,6.109,0,0,0,1.5-.186,5.634,5.634,0,0,1-2.333-1.036,5.556,5.556,0,0,1-1.646-1.95,5.643,5.643,0,0,1-.623-2.46v-.093a5.517,5.517,0,0,0,2.621.712,5.664,5.664,0,0,1-1.87-2,5.3,5.3,0,0,1-.687-2.646,5.389,5.389,0,0,1,.767-2.785,16.256,16.256,0,0,0,5.21,4.084,16.612,16.612,0,0,0,6.616,1.732,6.236,6.236,0,0,1-.128-1.269,5.281,5.281,0,0,1,.767-2.785,5.82,5.82,0,0,1,4.954-2.785,5.787,5.787,0,0,1,2.3.465,5.646,5.646,0,0,1,1.886,1.3,11.386,11.386,0,0,0,3.644-1.361,5.322,5.322,0,0,1-.975,1.779,5.846,5.846,0,0,1-1.55,1.315,11.968,11.968,0,0,0,3.324-.9A11.814,11.814,0,0,1,976.353,1146.357Z" transform="translate(-942.23 -1134.85)"/></g></svg>