<svg xmlns="http://www.w3.org/2000/svg" width="28" height="25" viewBox="0 0 28 25"><defs><style>.a{fill:#fff;}</style></defs><g transform="translate(0.017 -4.446)"><path class="a" d="M20.85,29.446h-.028a12.119,12.119,0,0,1-5.466-1.372,27.805,27.805,0,0,1-5.233-3.439l-.644-.519A58.237,58.237,0,0,1,4.47,19.776,17.93,17.93,0,0,1,.828,14.849a8.615,8.615,0,0,1-.84-4.007A7.331,7.331,0,0,1,1.834,6.406,9.858,9.858,0,0,1,3.271,5.059,2.748,2.748,0,0,1,6.179,4.71,8.255,8.255,0,0,1,10.23,8.369a2.12,2.12,0,0,1,.028,2.152q-.235.412-.479.823c-.162.274-.3.508-.445.763l-.154.274a10.727,10.727,0,0,0-.594,1.09.406.406,0,0,0,.059.521l.538.574c.661.705,1.342,1.435,2.053,2.091a38.44,38.44,0,0,0,5.281,4.134c.339.217.7.409,1.081.615l.191.1a.359.359,0,0,0,.409-.027,13.343,13.343,0,0,0,1.1-.823c.28-.222.56-.453.824-.683s.482-.409.728-.609a2.369,2.369,0,0,1,2.35-.379,8.474,8.474,0,0,1,4.2,3.129,2.769,2.769,0,0,1,.16,3.154,7.934,7.934,0,0,1-5.8,4.117,6.409,6.409,0,0,1-.754.058h-.174ZM4.966,6.052A1.026,1.026,0,0,0,4.3,6.3a8.454,8.454,0,0,0-1.2,1.12,5.677,5.677,0,0,0-1.474,3.491A7.09,7.09,0,0,0,2.344,14.2a16.051,16.051,0,0,0,3.311,4.468,57,57,0,0,0,4.861,4.208l.647.521a26.22,26.22,0,0,0,4.928,3.239A10.446,10.446,0,0,0,20.8,27.848h.168a5.03,5.03,0,0,0,.56-.041,6.234,6.234,0,0,0,4.634-3.321,1.2,1.2,0,0,0-.081-1.441,6.872,6.872,0,0,0-3.4-2.544.7.7,0,0,0-.759.1c-.238.192-.471.39-.7.587-.28.239-.56.478-.857.711a14.968,14.968,0,0,1-1.241.914,2.015,2.015,0,0,1-2.1.082l-.188-.1c-.4-.209-.8-.428-1.2-.681a40.09,40.09,0,0,1-5.525-4.3c-.754-.7-1.457-1.449-2.138-2.177l-.532-.565A1.983,1.983,0,0,1,7.1,12.8c.2-.425.431-.823.656-1.216l.151-.274c.148-.274.3-.521.457-.782s.314-.53.465-.8a.54.54,0,0,0-.031-.6A6.674,6.674,0,0,0,5.529,6.181,1.425,1.425,0,0,0,4.966,6.052Z" transform="translate(0 0)"/></g></svg>