<svg xmlns="http://www.w3.org/2000/svg" width="19" height="24" viewBox="0 0 19 24"><defs><style>.a{fill:#fff;}</style></defs><g transform="translate(0 0)"><path class="a" d="M83.6,24.631a9.505,9.505,0,0,0-16.073,6.123,9.257,9.257,0,0,0,2.026,6.308l6.666,8.549a1,1,0,0,0,1.582,0l6.661-8.549a9.257,9.257,0,0,0,2.026-6.308A9.415,9.415,0,0,0,83.6,24.631ZM82.878,35.79,77,43.323,71.128,35.79A7.2,7.2,0,0,1,69.536,30.9a7.331,7.331,0,0,1,2.257-4.779,7.6,7.6,0,0,1,10.425-.005A7.331,7.331,0,0,1,84.476,30.9,7.215,7.215,0,0,1,82.878,35.79Z" transform="translate(-67.506 -22)"/><path class="a" d="M157.809,98.1a5.277,5.277,0,1,0,5.209,5.277A5.251,5.251,0,0,0,157.809,98.1Zm0,8.5A3.226,3.226,0,1,1,161,103.377,3.212,3.212,0,0,1,157.809,106.6Z" transform="translate(-148.311 -94.197)"/></g></svg>