<svg xmlns="http://www.w3.org/2000/svg" width="40" height="50" viewBox="0 0 40 50"><defs><style>.a{fill:#fff;fill-rule:evenodd;}</style></defs><path class="a" d="M16.9,36.749c-1.952-1.492-4.209-3.045-6.222-1.989-2.684,1.429-5.368,2.859-8.052,4.226C.43,40.167-.363,41.472.917,43.772c2.013,3.729,7.32,6.774,11.345,5.593A39.214,39.214,0,0,0,40.2,8.72c-.3-4.226-4.941-8.328-9.027-9.011C28.61-.726,27.634.517,27.329,3c-.366,3.045-.732,6.153-1.1,9.2-.3,2.3,1.891,3.915,3.9,5.283C35.014,20.963,21.778,40.229,16.9,36.749Z" transform="translate(-0.303 0.377)"/></svg>