<svg xmlns="http://www.w3.org/2000/svg" width="28" height="28" viewBox="0 0 28 28"><defs><style>.a{fill:#fff;}</style></defs><g transform="translate(-38.159 -39.006)"><g transform="translate(44.646 39.006)"><path class="a" d="M137.5,49.762a10.755,10.755,0,1,0,.139-1.734,11.706,11.706,0,0,0-.139,1.734.662.662,0,0,0,1.324,0,9.371,9.371,0,1,1,.106,1.476,9.917,9.917,0,0,1-.113-1.47A.659.659,0,0,0,137.5,49.762Z" transform="translate(-137.5 -39.006)"/></g><g transform="translate(38.159 56.245)"><path class="a" d="M47.787,300.116l-3.177,3.177-5.09,5.09-1.165,1.165a.66.66,0,0,0,.933.933l3.177-3.177,5.09-5.09,1.165-1.165a.66.66,0,0,0-.933-.933Z" transform="translate(-38.159 -299.919)"/></g></g></svg>