<svg xmlns="http://www.w3.org/2000/svg" width="24" height="22" viewBox="0 0 24 22"><defs><style>.a{fill:#fff;}</style></defs><path class="a" d="M6.1,26.446H6.12a10.173,10.173,0,0,0,4.685-1.208,23.786,23.786,0,0,0,4.486-3.026l.552-.457a50.321,50.321,0,0,0,4.293-3.819A15.754,15.754,0,0,0,23.258,13.6a7.753,7.753,0,0,0,.72-3.526,6.542,6.542,0,0,0-1.582-3.9,8.544,8.544,0,0,0-1.232-1.186,2.306,2.306,0,0,0-2.493-.307A7.146,7.146,0,0,0,15.2,7.9a1.908,1.908,0,0,0-.024,1.894q.2.362.411.725c.139.242.257.447.382.671l.132.242a9.521,9.521,0,0,1,.509.959.364.364,0,0,1-.05.459l-.461.5c-.567.621-1.15,1.263-1.76,1.84A33.087,33.087,0,0,1,9.811,18.83c-.291.191-.6.36-.927.541l-.163.089a.3.3,0,0,1-.351-.024,11.464,11.464,0,0,1-.946-.725c-.24-.2-.48-.4-.706-.6s-.413-.36-.624-.536a1.989,1.989,0,0,0-2.015-.333,7.283,7.283,0,0,0-3.6,2.753A2.49,2.49,0,0,0,.34,22.769a6.809,6.809,0,0,0,4.975,3.623,5.354,5.354,0,0,0,.646.051h.149ZM19.712,5.86a.866.866,0,0,1,.567.217,7.325,7.325,0,0,1,1.033.985,5.065,5.065,0,0,1,1.263,3.072,6.379,6.379,0,0,1-.615,2.9,14.1,14.1,0,0,1-2.838,3.932,49.254,49.254,0,0,1-4.166,3.7l-.555.459a22.43,22.43,0,0,1-4.224,2.85A8.77,8.77,0,0,1,6.137,25.04H5.993A4.2,4.2,0,0,1,5.513,25a5.351,5.351,0,0,1-3.972-2.923,1.075,1.075,0,0,1,.07-1.268,5.907,5.907,0,0,1,2.918-2.239.59.59,0,0,1,.651.089c.2.169.4.343.6.517.24.21.48.42.735.626a12.854,12.854,0,0,0,1.064.8,1.689,1.689,0,0,0,1.8.072L9.54,20.6c.339-.184.687-.377,1.025-.6a34.5,34.5,0,0,0,4.735-3.78c.646-.614,1.249-1.275,1.832-1.915l.456-.5a1.781,1.781,0,0,0,.293-2.007c-.17-.374-.37-.725-.562-1.07l-.13-.242c-.127-.242-.259-.459-.391-.688s-.269-.466-.4-.7a.485.485,0,0,1,.026-.531,5.776,5.776,0,0,1,2.8-2.592A1.2,1.2,0,0,1,19.712,5.86Z" transform="translate(0.017 -4.446)"/></svg>