<svg xmlns="http://www.w3.org/2000/svg" width="24" height="38" viewBox="0 0 24 38"><defs><style>.a{fill:#fff;}</style></defs><g transform="translate(0)"><path class="a" d="M31.8,40.6a12,12,0,0,0,12-11.969V14.569a12,12,0,0,0-24,0v14.02A11.985,11.985,0,0,0,31.8,40.6ZM22.353,14.569a9.447,9.447,0,1,1,18.894,0v14.02a9.447,9.447,0,0,1-18.894.042V14.569Z" transform="translate(-19.8 -2.6)"/><path class="a" d="M46.277,27.713a1.254,1.254,0,0,0,1.277-1.277v-3.66a1.277,1.277,0,1,0-2.553,0v3.66A1.254,1.254,0,0,0,46.277,27.713Z" transform="translate(-34.277 -13.616)"/></g></svg>