<svg xmlns="http://www.w3.org/2000/svg" width="32" height="32" viewBox="0 0 32 32"><defs><style>.a{opacity:0.7;}.b{fill:#fff;}.c{fill:#04173b;fill-rule:evenodd;}</style></defs><g class="a"><circle class="b" cx="16" cy="16" r="16" transform="translate(0 0)"/><path class="c" d="M33.588,21.289a5.351,5.351,0,0,1-2.064.733h0A3.309,3.309,0,0,0,25.9,25.048h0a9.167,9.167,0,0,1-6.824-3.435,3.312,3.312,0,0,0,1,4.373,2.128,2.128,0,0,1-1.445-.375,3.19,3.19,0,0,0,2.553,3.235,2.621,2.621,0,0,1-1.378.1A3.129,3.129,0,0,0,22.773,31.2,5.887,5.887,0,0,1,18,32.573a9.946,9.946,0,0,0,5.178,1.464,9.2,9.2,0,0,0,9.264-9.667c0-.006,0-.012,0-.018s0-.027,0-.042,0-.032,0-.048a5.71,5.71,0,0,0,1.6-1.695,5.8,5.8,0,0,1-1.836.521,3.517,3.517,0,0,0,1.379-1.8" transform="translate(-10.022 -11.602)"/></g></svg>