<svg xmlns="http://www.w3.org/2000/svg" width="32" height="32" viewBox="0 0 32 32"><defs><style>.a{opacity:0.7;}.b{fill:#fff;}.c{fill:#04173b;}</style></defs><g class="a"><circle class="b" cx="16" cy="16" r="16" transform="translate(0 0)"/><path class="c" d="M13.367,0h-7.7A5.678,5.678,0,0,0,0,5.672v7.7a5.678,5.678,0,0,0,5.672,5.672h7.7a5.678,5.678,0,0,0,5.672-5.672v-7.7A5.678,5.678,0,0,0,13.367,0Zm3.756,13.367a3.757,3.757,0,0,1-3.756,3.756h-7.7a3.757,3.757,0,0,1-3.756-3.756v-7.7A3.756,3.756,0,0,1,5.672,1.915h7.7a3.756,3.756,0,0,1,3.756,3.756v7.7Z" transform="translate(6.582 6.11)"/><path class="c" d="M138.814,133a5.814,5.814,0,1,0,5.814,5.814A5.821,5.821,0,0,0,138.814,133Zm0,9.367a3.553,3.553,0,1,1,3.553-3.553A3.552,3.552,0,0,1,138.814,142.366Z" transform="translate(-122.727 -123.131)"/><ellipse class="c" cx="1.393" cy="1.393" rx="1.393" ry="1.393" transform="translate(19.909 9.113)"/></g></svg>