<svg xmlns="http://www.w3.org/2000/svg" width="32" height="32" viewBox="0 0 32 32"><defs><style>.a{opacity:0.7;}.b{fill:#fff;}</style></defs><g class="a"><g transform="translate(0 0)"><path class="b" d="M16,32A15.995,15.995,0,0,1,4.687,4.687,16,16,0,1,1,22.228,30.742,15.9,15.9,0,0,1,16,32Zm2.92-16.145c.838,0,1.837.427,1.837,2.463v5.828h3.626V17.9a5.3,5.3,0,0,0-1.193-3.707A3.927,3.927,0,0,0,20.209,13a3.747,3.747,0,0,0-2.175.621A4.063,4.063,0,0,0,16.941,14.8V13.252H13.314c.047,1.011,0,10.8,0,10.894h3.626V18.063a2.4,2.4,0,0,1,.119-.884,2.258,2.258,0,0,1,.653-.906A1.865,1.865,0,0,1,18.921,15.855Zm-11.239-2.6V24.147h3.626V13.252ZM9.518,8a1.888,1.888,0,1,0-.047,3.765h.023a2.116,2.116,0,0,0,1.5-.549,1.825,1.825,0,0,0,.551-1.334A1.881,1.881,0,0,0,9.518,8Z" transform="translate(0 0)"/></g></g></svg>