<svg xmlns="http://www.w3.org/2000/svg" width="32" height="32" viewBox="0 0 32 32"><defs><style>.a{opacity:0.7;}.b{fill:#fff;}</style></defs><g class="a"><g transform="translate(0 0)"><path class="b" d="M16,32A16,16,0,0,1,9.772,1.257,16,16,0,0,1,22.228,30.743,15.9,15.9,0,0,1,16,32Zm0-21.867a49.9,49.9,0,0,0-6.668.366,2.167,2.167,0,0,0-1.509,1.549,23.508,23.508,0,0,0-.357,4.218,23.508,23.508,0,0,0,.357,4.218,2.166,2.166,0,0,0,1.509,1.549A49.9,49.9,0,0,0,16,22.4a49.9,49.9,0,0,0,6.668-.366,2.166,2.166,0,0,0,1.508-1.549,23.508,23.508,0,0,0,.357-4.218,23.508,23.508,0,0,0-.357-4.218A2.167,2.167,0,0,0,22.668,10.5,49.9,49.9,0,0,0,16,10.133Z"/><path class="b" d="M0,8.438V0L6.751,4.219Z" transform="translate(13.11 12.252)"/></g></g></svg>