<svg xmlns="http://www.w3.org/2000/svg" width="54" height="54" viewBox="0 0 54 54"><defs><style>.a,.d{fill:none;}.a{stroke:#fff;stroke-width:1.5px;}.b{fill:#fff;}.c{stroke:none;}</style></defs><g transform="translate(-1242 -4270)"><g class="a" transform="translate(1242 4270)"><circle class="c" cx="27" cy="27" r="27"/><circle class="d" cx="27" cy="27" r="26.25"/></g><g transform="translate(1249.67 4276.016)"><g transform="translate(5.33 4.984)"><path class="b" d="M45.6,45.592H43.673v-1.97a2.484,2.484,0,0,0-2.453-2.508H39.236a2.484,2.484,0,0,0-2.453,2.508v1.97H34.857A2.484,2.484,0,0,0,32.4,48.1v2.027a2.485,2.485,0,0,0,2.454,2.51h1.927v1.969a2.484,2.484,0,0,0,2.453,2.508h1.984a2.484,2.484,0,0,0,2.453-2.508V52.637H45.6a2.486,2.486,0,0,0,2.455-2.51V48.1A2.484,2.484,0,0,0,45.6,45.592Zm1,4.536a1.008,1.008,0,0,1-1,1.019H42.216v3.46a1.008,1.008,0,0,1-1,1.018H39.236a1.007,1.007,0,0,1-1-1.018v-3.46H34.857a1.008,1.008,0,0,1-1-1.019V48.1a1.008,1.008,0,0,1,1-1.019h3.384v-3.46a1.008,1.008,0,0,1,1-1.018h1.984a1.008,1.008,0,0,1,1,1.018v3.46H45.6a1.009,1.009,0,0,1,1,1.019Z" transform="translate(-25.556 -31)"/><path class="b" d="M32.642,11.079H27.205l-.122-.445a7.513,7.513,0,0,0-14.557,0l-.123.445H7.018A1.713,1.713,0,0,0,5.33,12.812V33.251a1.713,1.713,0,0,0,1.688,1.733H32.642a1.713,1.713,0,0,0,1.688-1.733V12.812A1.713,1.713,0,0,0,32.642,11.079ZM19.8,5.977a6.632,6.632,0,0,1,6.139,4.3H24.093a4.858,4.858,0,0,0-8.578,0H13.664A6.634,6.634,0,0,1,19.8,5.977Zm-3.562,5.009a3.91,3.91,0,0,1,7.122,0l.044.093H16.2Zm17.12,22.265a.732.732,0,0,1-.721.74H7.018a.731.731,0,0,1-.721-.74V12.812a.731.731,0,0,1,.721-.74H32.642a.732.732,0,0,1,.721.74V33.251Z" transform="translate(-5.33 -4.984)"/></g></g></g></svg>