<svg xmlns="http://www.w3.org/2000/svg" width="54" height="54" viewBox="0 0 54 54"><defs><style>.a,.d{fill:none;}.a{stroke:#fff;stroke-width:1.5px;}.b{fill:#fff;}.c{stroke:none;}</style></defs><g transform="translate(-1242 -4188)"><g class="a" transform="translate(1242 4188)"><circle class="c" cx="27" cy="27" r="27"/><circle class="d" cx="27" cy="27" r="26.25"/></g><g transform="translate(1244 4193.007)"><path class="b" d="M25.231,6a.728.728,0,0,0-.458.234A18.154,18.154,0,0,1,11.71,11.62a.743.743,0,0,0-.71.75c0,13.716,5.874,23.995,14.082,26.589a.718.718,0,0,0,.435,0C33.726,36.365,39.6,26.087,39.6,12.37a.743.743,0,0,0-.71-.75A18.154,18.154,0,0,1,25.827,6.23.725.725,0,0,0,25.231,6ZM25.3,7.765a19.463,19.463,0,0,0,12.8,5.273c-.192,12.785-5.693,22-12.8,24.4-7.106-2.4-12.607-11.613-12.8-24.4A19.464,19.464,0,0,0,25.3,7.765Zm6.2,9.843a.727.727,0,0,0-.493.246l-7.184,7.7-3.506-3.586a.724.724,0,0,0-.735-.26.742.742,0,0,0-.55.563.76.76,0,0,0,.255.752l4.033,4.125a.722.722,0,0,0,1.043-.012l7.7-8.25a.763.763,0,0,0,.148-.836A.732.732,0,0,0,31.5,17.609Z" transform="translate(0 0)"/></g></g></svg>