<svg xmlns="http://www.w3.org/2000/svg" width="54" height="54" viewBox="0 0 54 54"><defs><style>.a,.d{fill:none;}.a{stroke:#fff;stroke-width:1.5px;}.b{fill:#fff;}.c{stroke:none;}</style></defs><g transform="translate(-1242 -4434)"><g class="a" transform="translate(1242 4434)"><circle class="c" cx="27" cy="27" r="27"/><circle class="d" cx="27" cy="27" r="26.25"/></g><g transform="translate(1251.74 4445)"><g transform="translate(0.261 4.036)"><path class="b" d="M23.9,33.107a12.8,12.8,0,0,1-4.327-.906,32.492,32.492,0,0,1-10.92-7.361A31.959,31.959,0,0,1,1.18,14.087C-.043,10.9-.046,8.277,1.17,7.079c.175-.173.354-.359.538-.549C2.821,5.381,4.1,4.076,5.74,4.145a4.84,4.84,0,0,1,3.4,2.141c3.36,4.117,1.846,5.584.093,7.285l-.31.3c-.287.283-.83,1.591,4.215,6.558a27.864,27.864,0,0,0,4.173,3.526c.707.453,1.969,1.136,2.488.625l.312-.31c1.727-1.724,3.217-3.211,7.4.1,1.416,1.119,2.126,2.214,2.175,3.345.068,1.638-1.257,2.876-2.425,3.97-.192.18-.381.356-.556.528A3.908,3.908,0,0,1,23.9,33.107ZM5.623,5.116c-1.182,0-2.251,1.107-3.2,2.086-.19.195-.375.387-.556.565-.906.891-.813,3.237.235,5.976A31,31,0,0,0,9.357,24.151a31.506,31.506,0,0,0,10.57,7.138c2.783,1.035,5.164,1.122,6.071.231.181-.178.375-.359.574-.547,1.016-.951,2.168-2.027,2.118-3.223a3.926,3.926,0,0,0-1.806-2.626c-3.483-2.756-4.456-1.784-6.071-.171l-.317.315c-.771.761-2.025.591-3.726-.5a28.822,28.822,0,0,1-4.333-3.654C8.25,17,6.91,14.474,8.221,13.181l.315-.307c1.641-1.59,2.631-2.55-.169-5.98A4.01,4.01,0,0,0,5.7,5.117Z" transform="translate(-0.261 -4.142)"/></g><path class="b" d="M27.319,25.127a.5.5,0,0,1-.4-.2.484.484,0,0,1,.108-.681,13.025,13.025,0,0,0,2.708-2.614A12.627,12.627,0,0,0,32.4,13.846,12.986,12.986,0,0,0,19.326.974a13.264,13.264,0,0,0-6.251,1.564.5.5,0,0,1-.671-.194.482.482,0,0,1,.2-.661A14.258,14.258,0,0,1,19.326,0,13.971,13.971,0,0,1,33.388,13.846a13.58,13.58,0,0,1-2.866,8.377,14.018,14.018,0,0,1-2.911,2.812A.5.5,0,0,1,27.319,25.127Z" transform="translate(-0.127)"/><g transform="translate(15.657 8.295)"><path class="b" d="M16.61,8.8a6.08,6.08,0,0,1,1.766-.284c1.579,0,2.545.776,2.545,2.1,0,.733-.412,1.291-1.289,1.86l-1.766,1.17a1.782,1.782,0,0,0-.79,1.543h3.611a.11.11,0,0,1,.123.12v.843a.11.11,0,0,1-.123.12H15.942a.11.11,0,0,1-.122-.12v-.525a3.2,3.2,0,0,1,1.444-2.943l1.756-1.149c.444-.3.643-.581.643-.919,0-.613-.489-1.006-1.289-1.006a4.432,4.432,0,0,0-1.4.229l-.645.208a.111.111,0,0,1-.144-.077l-.277-.82c-.034-.065,0-.121.077-.142Z" transform="translate(-15.82 -8.514)"/><path class="b" d="M27.844,14.195a.11.11,0,0,1-.122.121h-.689v1.838a.11.11,0,0,1-.123.12h-1a.11.11,0,0,1-.123-.12V14.316H22.066a.11.11,0,0,1-.122-.121v-.919A.189.189,0,0,1,22,13.123c.277-.317.521-.613.789-.973l2.056-2.6a9.549,9.549,0,0,0,.566-.843.181.181,0,0,1,.155-.076H26.91a.11.11,0,0,1,.123.12v4.485h.689a.11.11,0,0,1,.122.121v.842Zm-2.055-2.856a8.946,8.946,0,0,1,.066-1.073c.022-.132-.077-.165-.166-.044l-1.8,2.253a4.627,4.627,0,0,1-.511.59c-.078.088-.034.164.055.164h2.356Z" transform="translate(-15.884 -8.517)"/></g></g></g></svg>