<svg xmlns="http://www.w3.org/2000/svg" width="54" height="54" viewBox="0 0 54 54"><defs><style>.a,.d{fill:none;}.a,.b{stroke:#fff;}.a{stroke-width:1.5px;}.b{fill:#fff;stroke-width:0.5px;}.c{stroke:none;}</style></defs><g transform="translate(-1242 -4352)"><g class="a" transform="translate(1242 4352)"><circle class="c" cx="27" cy="27" r="27"/><circle class="d" cx="27" cy="27" r="26.25"/></g><g transform="translate(1250.317 4349.156)"><path class="b" d="M24.767,19.844a10.7,10.7,0,0,0-10.916,10.45,10.7,10.7,0,0,0,10.916,10.45,10.7,10.7,0,0,0,10.916-10.45.436.436,0,0,0-.871,0A9.831,9.831,0,0,1,24.767,39.91a9.831,9.831,0,0,1-10.045-9.616,9.831,9.831,0,0,1,10.045-9.616,10.37,10.37,0,0,1,4.218.89l-.671.883,3.087.275L30.177,20l-.671.88a11.274,11.274,0,0,0-4.74-1.038Zm-.075,1.883a.426.426,0,0,0-.429.423v8.144a.4.4,0,0,0,.005.062.406.406,0,0,0,.133.392l4.524,4.06a.449.449,0,0,0,.615-.02.4.4,0,0,0-.02-.589l-4.386-3.935V22.15a.408.408,0,0,0-.128-.3.446.446,0,0,0-.315-.122ZM5.381,22.8a.417.417,0,1,0,0,.833h8.507a.417.417,0,1,0,0-.833H5.381ZM3.119,29.877a.417.417,0,1,0,0,.834h8.507a.417.417,0,1,0,0-.834H3.119Zm2.262,7.077a.417.417,0,1,0,0,.833h8.507a.417.417,0,1,0,0-.833H5.381Z"/></g></g></svg>