<svg xmlns="http://www.w3.org/2000/svg" xmlns:xlink="http://www.w3.org/1999/xlink" width="45" height="46" viewBox="0 0 45 46"><defs><style>.a{fill:#fff;}.b{filter:url(#a);}</style><filter id="a" x="0" y="0" width="45" height="46" filterUnits="userSpaceOnUse"><feOffset dy="3" input="SourceAlpha"/><feGaussianBlur stdDeviation="3" result="b"/><feFlood flood-opacity="0.2"/><feComposite operator="in" in2="b"/><feComposite in="SourceGraphic"/></filter></defs><g class="b" transform="matrix(1, 0, 0, 1, 0, 0)"><path class="a" d="M971.577,1283.888a13.293,13.293,0,0,1,4.759,4.9,13.812,13.812,0,0,1-4.759,18.657,12.971,12.971,0,0,1-13.1.16l-7.341,2.4,2.4-7.3a14.015,14.015,0,0,1-.093-13.921,12.977,12.977,0,0,1,4.759-4.9,12.793,12.793,0,0,1,13.375,0Zm.031,15.456a1.19,1.19,0,0,0-.031-.528.609.609,0,0,0-.218-.208c.062.043-.073-.032-.4-.224q-1.991-.991-2.209-1.056a.635.635,0,0,0-.809.224q-.685.96-.871,1.217a.749.749,0,0,1-.373.159.777.777,0,0,1-.435-.064q-.653-.287-.964-.448a10.335,10.335,0,0,1-1.649-1.184,9.851,9.851,0,0,1-1.8-2.336.509.509,0,0,1-.062-.416,1.059,1.059,0,0,1,.187-.288l.5-.544a2.446,2.446,0,0,0,.389-.56.667.667,0,0,0-.078-.592l-1-2.5a1.107,1.107,0,0,0-.3-.449.74.74,0,0,0-.42-.1l-.373-.032a1.427,1.427,0,0,0-1.12.417,4.98,4.98,0,0,0-.715.9,4,4,0,0,0-.435,1.887,6.119,6.119,0,0,0,1.306,3.456q-.218-.32.342.48a11.034,11.034,0,0,0,.746.992q.56.673,1.151,1.28.747.7,1.493,1.281a9.289,9.289,0,0,0,1.835,1.024,12.571,12.571,0,0,0,2.675.9,3.292,3.292,0,0,0,1.213-.031,3.939,3.939,0,0,0,1.338-.577,2.147,2.147,0,0,0,.871-1.055A3.643,3.643,0,0,0,971.608,1299.344Z" transform="translate(-942.14 -1276)"/></g></svg>