<svg xmlns="http://www.w3.org/2000/svg" width="20" height="20" viewBox="0 0 20 20"><defs><style>.a{fill:#fff;}</style></defs><path class="a" d="M18.221,8.221a10,10,0,1,0,10,10A10,10,0,0,0,18.221,8.221Zm0,18.52a8.518,8.518,0,0,1-6.524-14l4.52,4.519c-.011.029-.024.055-.035.085l.025-.074s-.982-.606-1.117-.471a5.476,5.476,0,0,0-.443.937l-.394.116h.432s.536-.6.5-.709.926.413.927.414a6.513,6.513,0,0,0-.239,1.687c-.335-.185-1.167-.623-1.306-.484a7.1,7.1,0,0,0-.574,1.214l-.511.15h.56s.695-.778.647-.919.831.34,1.182.533a12.2,12.2,0,0,0,.093,1.281c-.325-.16-.691-.31-.775-.225a6.448,6.448,0,0,0-.523,1.105l-.465.137h.51s.632-.708.589-.837c-.03-.09.4.123.735.3a10.807,10.807,0,0,0,.423,1.7.115.115,0,0,0-.091.019,5.477,5.477,0,0,0-.443.937l-.394.115h.432s.535-.6.5-.708c-.011-.031.048-.018.137.017.411,1.027.96,1.731,1.565,1.731s1.144-.691,1.553-1.7c.045-.013.077-.017.07,0-.037.109.5.709.5.709h.432l-.394-.116a5.49,5.49,0,0,0-.443-.937c-.006-.006-.022,0-.033-.008a10.684,10.684,0,0,0,.43-1.676l.174-.092L23.7,24.745A8.485,8.485,0,0,1,18.221,26.741ZM24.745,23.7,20.76,19.713c.4-.216,1.03-.538.994-.431-.048.141.648.919.648.919h.559l-.51-.15a7.067,7.067,0,0,0-.575-1.215c-.159-.16-1.236.443-1.418.547a6.885,6.885,0,0,0-.215-1.727c.208-.114.9-.483.864-.379s.5.708.5.708h.432l-.394-.116a5.5,5.5,0,0,0-.443-.937c-.117-.116-.856.288-1.062.4a2.143,2.143,0,0,0-1.362-1.442c.344-.081.575-.226.575-.393s-.214-.3-.537-.385c.024-.615.184-2.615,1.24-3.426a1.912,1.912,0,0,1,1.751-.247l.057-.208a2.116,2.116,0,0,0-1.94.283c-1.123.862-1.3,2.872-1.324,3.554a2.91,2.91,0,0,0-.436-.032,2.992,2.992,0,0,0-.313.017c-.029-.7-.208-2.683-1.323-3.538a2.115,2.115,0,0,0-1.94-.283l.058.208a1.912,1.912,0,0,1,1.75.246c1.041.8,1.211,2.755,1.239,3.4-.391.075-.66.231-.66.412s.231.312.575.393a1.807,1.807,0,0,0-.421.189L12.745,11.7a8.518,8.518,0,0,1,12,12Z" transform="translate(-8.221 -8.221)"/></svg>