<svg xmlns="http://www.w3.org/2000/svg" width="20.903" height="24" viewBox="0 0 20.903 24"><defs><style>.a{fill:#545454;}</style></defs><g transform="translate(-23 -19)"><g transform="translate(23 19)"><path class="a" d="M40.032,971.362a3.872,3.872,0,0,0-3.665,5.117l-6.629,4.307a3.864,3.864,0,1,0,.012,5.153l6.617,4.306a3.782,3.782,0,0,0-.206,1.246,3.911,3.911,0,1,0,1-2.577l-6.629-4.306a3.848,3.848,0,0,0,.206-1.246,3.782,3.782,0,0,0-.206-1.246l6.617-4.306a3.868,3.868,0,1,0,2.879-6.448Zm0,1.548a2.323,2.323,0,1,1-2.323,2.323A2.311,2.311,0,0,1,40.032,972.91Zm-13.161,8.129a2.323,2.323,0,1,1-2.323,2.323A2.311,2.311,0,0,1,26.871,981.039Zm13.161,8.129a2.323,2.323,0,1,1-2.323,2.323A2.311,2.311,0,0,1,40.032,989.168Z" transform="translate(-23 -971.362)"/></g></g></svg>