<svg xmlns="http://www.w3.org/2000/svg" width="24" height="16" viewBox="0 0 24 16"><defs><style>.a{fill:#545454;}</style></defs><g transform="translate(-9 -22)"><g transform="translate(9 22)"><path class="a" d="M11.341,974.362A2.322,2.322,0,0,0,9,976.648v11.429a2.322,2.322,0,0,0,2.341,2.286H30.659A2.322,2.322,0,0,0,33,988.076V976.648a2.322,2.322,0,0,0-2.341-2.286Zm0,1.143H30.659a1.2,1.2,0,0,1,.466.1l-9.393,8.187a1.045,1.045,0,0,1-1.445,0L10.875,975.6A1.2,1.2,0,0,1,11.341,975.5Zm-1.162,1.027,6.732,5.857L10.3,988.594a1.151,1.151,0,0,1-.128-.518V976.647c0-.04.005-.077.009-.116Zm21.64,0c0,.039.009.076.009.116v11.429a1.159,1.159,0,0,1-.128.518l-6.595-6.214,6.713-5.848Zm-7.591,6.616,6.457,6.071H11.314l6.476-6.062,1.72,1.491a2.291,2.291,0,0,0,3,0l1.72-1.5Z" transform="translate(-9 -974.362)"/></g></g></svg>