<svg xmlns="http://www.w3.org/2000/svg" width="80" height="80" viewBox="0 0 80 80"><defs><style>.a{fill:none;}.b{fill:#bc1c86;}</style></defs><rect class="a" width="80" height="80"/><g transform="translate(2 14)"><path class="b" d="M79.47,86.565l.026-.033v0a.03.03,0,0,0,.013-.016.409.409,0,0,0,.053-.109.067.067,0,0,0,.007-.026.685.685,0,0,0,.02-.109c0-.01,0-.016,0-.026a.456.456,0,0,0-.017-.119.115.115,0,0,0-.013-.036.385.385,0,0,0-.063-.129c0-.007-.01-.013-.013-.02a.054.054,0,0,1-.013-.013.533.533,0,0,0-.072-.069s-.007-.01-.013-.013a.017.017,0,0,0-.013-.007s0-.007-.007-.007l-1.361-1.235a9.287,9.287,0,0,1-1.245,0L75.4,85.829s-.007,0-.01.007-.007,0-.01.007a.053.053,0,0,0-.013.013.794.794,0,0,0-.076.073l-.01.01a.033.033,0,0,1-.013.017c-.007.01-.01.017-.017.026s-.017.026-.023.04a.022.022,0,0,0,0,.013.617.617,0,0,0-.04.112.5.5,0,0,0-.007.122v.02a.684.684,0,0,0,.026.119v0a.436.436,0,0,0,.053.1c0,.007.007.01.01.016s0,0,0,0l.026.036,1,2.294-1.6,5.756.63,1.294,2.059,4.218,2.052-4.221.63-1.294-1.6-5.753Z" transform="translate(-39.382 -56.124)"/><path class="b" d="M125.976,59.546l-4.2-1.325-.931-2.389a4.032,4.032,0,0,0,.973-2.218c.06-.224.616-1.913.661-2.082.561-.207,1.241-1.313,1.657-2.081a2.709,2.709,0,0,0-.077-2.8,2.883,2.883,0,0,0-.2-.256c-.03-.035-.06-.065-.09-.095a7.93,7.93,0,0,0,.184-1.649v-.045a8.508,8.508,0,0,0-2.68-6.066,1.746,1.746,0,0,0-.637-1.016,8.509,8.509,0,0,0-5.165-1.763h-.717a7.362,7.362,0,0,0-4.014,1.4,1.77,1.77,0,0,0-1.151.364,9.53,9.53,0,0,0-3.312,7.122,7.882,7.882,0,0,0,.184,1.644c-.03.035-.06.065-.09.1a2.812,2.812,0,0,0-.2.257,2.709,2.709,0,0,0-.073,2.8c.417.767,1.1,1.869,1.655,2.076.045.169.6,1.863.661,2.087a4.029,4.029,0,0,0,.973,2.213l-.931,2.389-1.493.471a8.576,8.576,0,0,1,2.941,1.811,3.636,3.636,0,0,1,.316.315,8.69,8.69,0,0,1,1.208,1.592V60.079l0,0,.871-1.758a6.338,6.338,0,0,0,5.623,0l.871,1.758,0,0v8.59l-3.685,7.661-2.462-5.12v5.5c0,.07-.012.137-.016.207a3.485,3.485,0,0,1-1.243,2.464l3.133,1.124a1.7,1.7,0,0,0,.588.1,1.759,1.759,0,0,0,.593-.1l13.841-4.971A1.737,1.737,0,0,0,130.7,73.9V65.528A6.13,6.13,0,0,0,125.976,59.546Zm-12.247-4.413-.976-.528a2.991,2.991,0,0,1-1.469-1.873c-.349-1.34-.408-1.589-.413-1.594a1.745,1.745,0,0,0-1.464-1.42l-.155-.981a1.733,1.733,0,0,0,.936-2.187l-.164-.458A.593.593,0,0,1,110,46a4.111,4.111,0,0,1-.234-1.33,5.173,5.173,0,0,1,.055-.677l.005-.01a.5.5,0,0,1,.588-.274,2.351,2.351,0,0,0,2.281-.588l.378-.378a.5.5,0,0,1,.632-.055l1.355.936a5.328,5.328,0,0,0,4.6.732.494.494,0,0,1,.563.209l.234.373a4.444,4.444,0,0,1-.279,1.265l-.035.095-.085.219a1.745,1.745,0,0,0,.189,1.609,1.778,1.778,0,0,0,.737.607l-.155.981a1.7,1.7,0,0,0-1.459,1.375c-.035.169-.224.892-.419,1.639a3.008,3.008,0,0,1-1.469,1.873l-.971.528A2.921,2.921,0,0,1,113.728,55.134Zm13.488,17.542-9.159,3.287h0l3.113-6.471a1.245,1.245,0,0,0,.123-.54V61.728L125,62.9l.169.045a2.62,2.62,0,0,1,2.042,2.585v7.147Z" transform="translate(-54.703 -32.034)"/><path class="b" d="M120.309,93.177l1.732,3.575,1.726-3.578.53-1.1L122.954,87.2l.841-1.947.022-.028v0a.025.025,0,0,0,.011-.014.361.361,0,0,0,.045-.092.048.048,0,0,0,.006-.022A.578.578,0,0,0,123.9,85c0-.009,0-.014,0-.022a.414.414,0,0,0-.014-.1.1.1,0,0,0-.011-.031.334.334,0,0,0-.053-.109c0-.006-.008-.011-.011-.017a.039.039,0,0,1-.011-.011.429.429,0,0,0-.061-.059.033.033,0,0,0-.011-.011.015.015,0,0,0-.011-.006s0-.006-.006-.006l-1.44-1.318a.409.409,0,0,0-.455,0l-1.443,1.318s-.006,0-.008.006-.006,0-.008.006-.008.009-.011.011a.665.665,0,0,0-.064.061l-.008.008a.028.028,0,0,1-.011.014l-.014.022c-.006.011-.014.022-.019.033a.019.019,0,0,0,0,.011.588.588,0,0,0-.033.1.443.443,0,0,0-.006.1v.017a.594.594,0,0,0,.022.1v0a.351.351,0,0,0,.045.087c0,.006.006.008.008.014a0,0,0,0,1,0,0l.022.031.841,1.944-1.346,4.878Z" transform="translate(-61.626 -55.459)"/><path class="b" d="M23.066,76.918c0-.068-.016-.136-.016-.205V71.207l-2.463,5.121L16.9,68.668V60.078l0,0,.871-1.758a6.338,6.338,0,0,0,5.623,0l.871,1.758,0,0v2.334a8.677,8.677,0,0,1,1.206-1.592A3.753,3.753,0,0,1,25.8,60.5a8.547,8.547,0,0,1,.966-.785,8.442,8.442,0,0,1,1.974-1.027l-1.493-.471-.931-2.389a4.032,4.032,0,0,0,.973-2.218c.06-.224.616-1.913.661-2.082.557-.206,1.232-1.3,1.649-2.066a2.73,2.73,0,0,0-.248-3.05L29.33,46.4c-.03-.035-.06-.065-.09-.095a7.931,7.931,0,0,0,.184-1.649v-.045a8.508,8.508,0,0,0-2.68-6.066,1.746,1.746,0,0,0-.637-1.016,8.509,8.509,0,0,0-5.165-1.763h-.717a7.362,7.362,0,0,0-4.014,1.4,1.77,1.77,0,0,0-1.151.364,9.53,9.53,0,0,0-3.312,7.122,7.883,7.883,0,0,0,.184,1.644c-.03.035-.06.065-.09.1l-.016.019a2.757,2.757,0,0,0-.222,3.1c.42.764,1.08,1.816,1.623,2.018.045.169.6,1.863.661,2.087a4.029,4.029,0,0,0,.973,2.213l-.931,2.389-4.2,1.325A6.128,6.128,0,0,0,5,65.527V73.9a1.735,1.735,0,0,0,1.156,1.639L20,80.509a1.7,1.7,0,0,0,.588.1,1.759,1.759,0,0,0,.593-.1l3.132-1.124A3.488,3.488,0,0,1,23.066,76.918ZM14.722,48.738a1.733,1.733,0,0,0,.936-2.187l-.164-.458A.592.592,0,0,1,15.47,46a4.111,4.111,0,0,1-.234-1.33A5.173,5.173,0,0,1,15.29,44l.005-.01a.5.5,0,0,1,.588-.274,2.351,2.351,0,0,0,2.281-.588l.378-.378a.5.5,0,0,1,.632-.055l1.355.936a5.328,5.328,0,0,0,4.6.732.494.494,0,0,1,.563.209l.234.373a4.444,4.444,0,0,1-.279,1.265l-.035.095-.085.219a1.745,1.745,0,0,0,.189,1.609,1.778,1.778,0,0,0,.737.607l-.155.981a1.7,1.7,0,0,0-1.459,1.375c-.035.169-.224.892-.419,1.639A3.008,3.008,0,0,1,22.95,54.6l-.971.528a2.925,2.925,0,0,1-2.779,0l-.976-.528a2.991,2.991,0,0,1-1.469-1.873c-.349-1.34-.408-1.589-.413-1.594a1.745,1.745,0,0,0-1.464-1.42Zm2.923,27.224L8.486,72.675V65.527a2.615,2.615,0,0,1,2.042-2.585L10.7,62.9l3.713-1.17v7.223a1.248,1.248,0,0,0,.123.54l3.112,6.471Z" transform="translate(-5 -32.033)"/><path class="b" d="M31.837,93.177l1.732,3.575,1.726-3.578.53-1.1L34.482,87.2l.841-1.947.022-.028v0a.025.025,0,0,0,.011-.014.361.361,0,0,0,.045-.092.048.048,0,0,0,.006-.022A.578.578,0,0,0,35.423,85c0-.009,0-.014,0-.022a.414.414,0,0,0-.014-.1.1.1,0,0,0-.011-.031.334.334,0,0,0-.053-.109c0-.006-.008-.011-.011-.017a.038.038,0,0,1-.011-.011.429.429,0,0,0-.061-.059.033.033,0,0,0-.011-.011.015.015,0,0,0-.011-.006s0-.006-.006-.006L33.8,83.315a.409.409,0,0,0-.455,0L31.9,84.632s-.006,0-.008.006-.006,0-.008.006-.008.009-.011.011a.665.665,0,0,0-.064.061l-.008.008a.028.028,0,0,1-.011.014l-.014.022c-.006.011-.014.022-.019.033a.019.019,0,0,0,0,.011.588.588,0,0,0-.033.1.443.443,0,0,0-.006.1v.017a.6.6,0,0,0,.022.1v0a.351.351,0,0,0,.045.087c0,.006.006.008.008.014a0,0,0,0,1,0,0l.022.031.841,1.944L31.309,92.08Z" transform="translate(-17.979 -55.459)"/><path class="b" d="M78.3,58.161a6.7,6.7,0,0,0-3.208-1.708l-1.514-.473-3.631-1.14-1.265-3.027a4.939,4.939,0,0,0,1.326-2.736c.09-.338.671-2.117.736-2.356.683-.205,1.529-1.7,2-2.642a2.946,2.946,0,0,0-.145-3c-.056-.081-.117-.158-.181-.234s-.144-.155-.219-.229a8.968,8.968,0,0,0,.249-2.037v-.05a9.7,9.7,0,0,0-3.163-7,1.741,1.741,0,0,0-.663-1.111A9.822,9.822,0,0,0,62.7,28.4h-.856a8.567,8.567,0,0,0-4.677,1.668,1.763,1.763,0,0,0-1.26.349,10.917,10.917,0,0,0-3.815,8.158,8.79,8.79,0,0,0,.254,2.037,2.451,2.451,0,0,0-.224.229c-.064.075-.125.154-.181.235a2.945,2.945,0,0,0-.143,3.006c.477.943,1.323,2.432,2,2.637.065.239.646,2.017.736,2.356a4.945,4.945,0,0,0,1.326,2.731l-1.265,3.032-3.631,1.14h-.005l-1.509.473a6.7,6.7,0,0,0-3.208,1.708,2.093,2.093,0,0,0-.209.209,6.925,6.925,0,0,0-1.967,4.836v9.868a1.757,1.757,0,0,0,1.16,1.652l.607.219h.005l15.848,5.643a1.765,1.765,0,0,0,1.17,0L78.71,74.946l.607-.219a1.757,1.757,0,0,0,1.16-1.652V63.206A6.925,6.925,0,0,0,78.51,58.37,1.933,1.933,0,0,0,78.3,58.161Zm-11.41,8.8-4.622,9.528-4.617-9.528V56.522l1.13-2.251.03.015a7.3,7.3,0,0,0,6.918,0l.03-.015,1.13,2.251V66.956Zm.757-20.709c-.005.035-.07.309-.5,1.937a3.838,3.838,0,0,1-1.9,2.411l-1.156.618a3.844,3.844,0,0,1-3.631,0L59.3,50.6a3.838,3.838,0,0,1-1.9-2.411c-.424-1.6-.493-1.892-.5-1.908a1.748,1.748,0,0,0-1.708-1.429l-.259-1.654a1.787,1.787,0,0,0,.961-.682,1.747,1.747,0,0,0,.209-1.594l-.16-.448-.035-.095a5.651,5.651,0,0,1-.324-1.509l.479-1.04a.5.5,0,0,1,.588-.269,2.908,2.908,0,0,0,2.8-.722l.453-.443a.5.5,0,0,1,.628-.055l1.614,1.106a6.489,6.489,0,0,0,5.548.877.494.494,0,0,1,.563.209l.618.971a5.94,5.94,0,0,1-.284,1.016l-.095.244-.05.13a1.742,1.742,0,0,0,1.16,2.3l-.264,1.658A1.707,1.707,0,0,0,67.648,46.247Z" transform="translate(-24.272 -28.402)"/></g></svg>