<svg xmlns="http://www.w3.org/2000/svg" width="80" height="80" viewBox="0 0 80 80"><defs><style>.a{fill:none;}.b{fill:#bc1c86;}</style></defs><rect class="a" width="80" height="80"/><g transform="translate(2 15)"><path class="b" d="M40.351,51.655c-.24.839-1.8,1.558-1.8,1.558A7.486,7.486,0,0,1,31.6,51.175l.36-.479a4.88,4.88,0,0,0,.839-4.2Z" transform="translate(5.921 -5.383)"/><path class="b" d="M62.8,46.338a3.954,3.954,0,0,1-3,1.918,5.261,5.261,0,0,1-2.4-.12h0l-9.95-6.713c-.24-.12-.479-.12-.6.12s-.12.479.12.6l10.069,6.953h0a1.928,1.928,0,0,1-.6,2.4s-1.918,1.918-5.874.36h0L40.267,44.9c-.24-.12-.479-.12-.6.12a.565.565,0,0,0,.12.719l10.189,6.953c1.2,1.8-.12,4.675-4.315,2.637,0,0-6.353-4.315-8.871-6.114a3.81,3.81,0,0,0-1.2-1.2,4.652,4.652,0,0,0-3.716-.959,4.027,4.027,0,0,0-1.678.6,4.614,4.614,0,0,0-1.918-2.637,4.919,4.919,0,0,0-6.833.839,5.11,5.11,0,0,0-1.319-1.438,5.4,5.4,0,0,0-4.435-.839A5.009,5.009,0,0,0,8.5,40.943L12.216,25a6.834,6.834,0,0,0,5.394,3,15.182,15.182,0,0,0,6.473-.839l2.517-.719c2.517-.479,6.233-.479,8.032.24a40.331,40.331,0,0,1,10.549,5.874c1.319,1.079,2.4,2.278,3.716,3.476,1.2,1.2,2.4,2.517,3.836,3.716,6.114,5.274,8.391,6.713,9.83,6.713A.371.371,0,0,0,62.8,46.338Z" transform="translate(1.33 -9.656)"/><path class="b" d="M63.483,44.314a7.752,7.752,0,0,0-1.918,1.079c-.6.479-7.432-5.394-8.271-6.114C50.656,37,48.5,34.245,45.861,32.087a48.355,48.355,0,0,0-11.148-6.233c-2.4-.959-6.713-.839-9.35-.36-3,.6-5.035,1.918-8.271,1.558a4.752,4.752,0,0,1-3.237-1.438c-1.678-2.038-.959-3.356,1.079-4.076a45.9,45.9,0,0,0,8.751-3.476A6.976,6.976,0,0,1,26.8,17.7c1.918,0,3.836.12,5.634.24,2.278.24,4.675,0,6.833.6,1.678.479,3.237,1.438,4.915,2.038a31.6,31.6,0,0,0,6.593,1.8c.36.12,6.233.36,8.511.36Z" transform="translate(2.208 -11.109)"/><path class="b" d="M14.925,16.875,7.253,47.922.3,46.364V12.2C5.694,13.519,12.647,15.437,14.925,16.875Z" transform="translate(-0.3 -12.2)"/><path class="b" d="M66.045,12.2V46.484l-7.912,1.438L51.9,16.156C54.178,14.837,60.771,13.279,66.045,12.2Z" transform="translate(9.955 -12.2)"/><path class="b" d="M9.5,45.291l-.959-.719a2.243,2.243,0,0,1-.479-3L9.14,40.136a2.109,2.109,0,0,1,3-.36l.959.719a2.109,2.109,0,0,1,.36,3l-1.079,1.438A2.057,2.057,0,0,1,9.5,45.291Z" transform="translate(1.17 -6.811)"/><path class="b" d="M14.209,48.724l-1.079-.839a2.073,2.073,0,0,1-.36-2.877l1.8-2.278a2.073,2.073,0,0,1,2.877-.36l1.079.839a2.073,2.073,0,0,1,.36,2.877l-1.8,2.278A2.087,2.087,0,0,1,14.209,48.724Z" transform="translate(2.094 -6.289)"/><path class="b" d="M18.809,52.82l-1.079-.839a2.073,2.073,0,0,1-.36-2.877l4.435-5.874a2.073,2.073,0,0,1,2.877-.36l1.079.839a2.073,2.073,0,0,1,.36,2.877l-4.435,5.874A1.971,1.971,0,0,1,18.809,52.82Z" transform="translate(3.008 -6.189)"/><path class="b" d="M25.609,54.341,24.53,53.5a2.073,2.073,0,0,1-.36-2.877l3.6-4.795a2.073,2.073,0,0,1,2.877-.36l1.079.839a2.073,2.073,0,0,1,.36,2.877l-3.6,4.795A2.087,2.087,0,0,1,25.609,54.341Z" transform="translate(4.359 -5.672)"/></g></svg>