<svg xmlns="http://www.w3.org/2000/svg" width="80" height="80" viewBox="0 0 80 80"><defs><style>.a{fill:#bc1c86;}</style></defs><g transform="translate(0 0)"><path class="a" d="M47.947,36a2,2,0,0,0,0-4A16,16,0,1,0,63.894,48a1.993,1.993,0,1,0-3.987,0,11.96,11.96,0,1,1-11.96-12Z" transform="translate(-7.818 -8.131)"/><path class="a" d="M85.9,36.028a1.995,1.995,0,1,0-3.807,1.191,36.015,36.015,0,1,1-23.578-23.58,1.993,1.993,0,1,0,1.191-3.8A40,40,0,1,0,85.9,36.028Z" transform="translate(-7.737 -7.998)"/><path class="a" d="M51.7,22.266A2.154,2.154,0,0,0,49.71,20.1c-.6-.053-1.191-.1-1.8-.1A27.867,27.867,0,1,0,75.814,47.867a17.6,17.6,0,0,0-.132-2.153,2.008,2.008,0,1,0-3.94.7c.043.482.086.962.086,1.456a23.92,23.92,0,1,1-23.92-23.886c.494,0,.973.045,1.456.085l.374.033A1.884,1.884,0,0,0,51.7,22.266Z" transform="translate(-7.778 -7.998)"/><path class="a" d="M59.954,26v7.172L46.584,46.586A2,2,0,1,0,49.4,49.414L62.772,36H69.92a1.989,1.989,0,0,0,1.41-.586l11.96-12A2,2,0,0,0,81.88,20H75.9V14a1.993,1.993,0,0,0-3.4-1.414l-11.96,12A2,2,0,0,0,59.954,26Zm3.987.828,7.973-8V22a2,2,0,0,0,1.993,2h3.161l-7.973,8H63.94Z" transform="translate(-7.864 -7.998)"/></g></svg>