<svg xmlns="http://www.w3.org/2000/svg" width="346" height="432.5" viewBox="0 0 346 432.5"><defs><style>.a{opacity:0.15;}.b{fill:#fff;fill-rule:evenodd;}</style></defs><g class="a"><path class="b" d="M143.857,320.762c-16.884-12.9-36.406-26.341-53.817-17.2-23.215,12.364-46.43,24.729-69.646,36.556C1.4,350.329-5.459,361.618,5.621,381.509c17.411,32.255,63.314,58.6,98.137,48.382,150.9-43.544,253.257-189.229,241.649-351.578C342.769,41.757,302.67,6.277,267.32.363c-22.16-3.763-30.6,6.989-33.24,28.492-3.166,26.341-6.331,53.221-9.5,79.562-2.638,19.891,16.356,33.868,33.768,45.694C300.56,184.216,186.066,350.866,143.857,320.762Z" transform="translate(-0.303 0.377)"/></g></svg>