<svg xmlns="http://www.w3.org/2000/svg" width="24" height="24" viewBox="0 0 24 24"><defs><style>.a{fill:none;}.b{fill:#fff;}</style></defs><g transform="translate(-799 -353)"><rect class="a" width="24" height="24" transform="translate(799 353)"/><g transform="translate(787 352.995)"><path class="b" d="M21.312.005A.384.384,0,0,0,21.2.026a.4.4,0,0,0-.251.509l4.095,12.633H16.395a.4.4,0,0,0-.395.4v6.167a.406.406,0,0,0,.144.311.39.39,0,0,0,.251.092.385.385,0,0,0,.076-.008l.26-.052.4,3.568a.4.4,0,0,0,.392.357h6.494a.4.4,0,0,0,.392-.357l.295-2.619h.007a1.952,1.952,0,0,0,1.7-1.309c.218-.81-.184-1.9-1.194-3.232l.232-2.061,2.814,8.682H25.831a.4.4,0,0,0,0,.805h5.774a.4.4,0,0,0,0-.805H29.094L21.694.281A.4.4,0,0,0,21.312,0Zm-1.9,8.432a.375.375,0,0,0-.176.061.411.411,0,0,0-.152.493.392.392,0,0,0,.742-.037.406.406,0,0,0-.415-.518Zm1.981.193a1.413,1.413,0,1,0,1.385,1.413A1.4,1.4,0,0,0,21.395,8.63Zm0,.805a.608.608,0,1,1-.6.608A.6.6,0,0,1,21.395,9.435Zm-3.263,1.291a1.063,1.063,0,1,0,1.042,1.063A1.054,1.054,0,0,0,18.131,10.726Zm0,.805a.257.257,0,1,1-.252.257A.255.255,0,0,1,18.131,11.532Zm-1.342,2.441H20.15v4.6l-3.361.671V13.973Zm8.291,3.716a2.649,2.649,0,0,1,.568,1.818c-.083.308-.368.533-.848.673Z" transform="translate(0 0)"/></g></g></svg>