<svg xmlns="http://www.w3.org/2000/svg" width="48" height="48" viewBox="0 0 48 48"><defs><style>.a{fill:#fff;stroke:#f5f5f5;}.b{fill:gray;}.c{stroke:none;}.d{fill:none;}</style></defs><g class="a"><circle class="c" cx="24" cy="24" r="24"/><circle class="d" cx="24" cy="24" r="23.5"/></g><g transform="translate(8 14.303)"><path class="b" d="M34,23.469a2.6,2.6,0,0,1-2.616,2.583H23.839c.5,3.5.259,5.779-.721,6.949a2.348,2.348,0,0,1-1.766.852,2.629,2.629,0,0,1-1.92-.74,2.829,2.829,0,0,1-.875-2.038V30.74A9.805,9.805,0,0,0,16.2,24.248a9.049,9.049,0,0,0-4.867-2.886v.954a.64.64,0,0,1-.643.635H2.644A.64.64,0,0,1,2,22.315V8.793a.64.64,0,0,1,.644-.635h8.049a.64.64,0,0,1,.643.635v.9h.353a3.866,3.866,0,0,0,2.188-.673,4.846,4.846,0,0,1,2.739-.843H26.87a4.637,4.637,0,0,1,4.643,4.284,2.538,2.538,0,0,1,1.693,2.376,2.51,2.51,0,0,1-.879,1.9,2.538,2.538,0,0,1,.4,4.274A2.569,2.569,0,0,1,34,23.21ZM10.366,9.115H2.97V21.993h7.4V9.115ZM33.03,23.21a1.638,1.638,0,0,0-1.647-1.626h-5a.479.479,0,1,1,0-.957H31.1a1.626,1.626,0,1,0,0-3.252H26.7a.479.479,0,1,1,0-.957h3.931a1.582,1.582,0,1,0,0-3.164H26.7a.479.479,0,1,1,0-.957h3.825A3.679,3.679,0,0,0,26.87,9.132H16.616a3.87,3.87,0,0,0-2.188.673,4.842,4.842,0,0,1-2.739.843h-.353v9.736a9.861,9.861,0,0,1,5.6,3.237,10.756,10.756,0,0,1,2.59,7.12v.334a1.875,1.875,0,0,0,.579,1.35,1.646,1.646,0,0,0,1.213.472,1.363,1.363,0,0,0,1.053-.505c.571-.682,1.11-2.406.428-6.744a.475.475,0,0,1,.111-.385.488.488,0,0,1,.368-.167h8.106a1.638,1.638,0,0,0,1.647-1.626Z" transform="translate(-2 -8.158)"/><path class="b" d="M10.246,53.241a1.682,1.682,0,1,1,1.682-1.682A1.684,1.684,0,0,1,10.246,53.241Zm0-2.394a.712.712,0,1,0,.712.712A.713.713,0,0,0,10.246,50.847Z" transform="translate(-5.382 -47.439)"/></g></svg>