<svg xmlns="http://www.w3.org/2000/svg" width="24" height="24" viewBox="0 0 24 24"><defs><style>.a{fill:none;}.b{fill:gray;}</style></defs><g transform="translate(-799 -353)"><rect class="a" width="24" height="24" transform="translate(799 353)"/><g transform="translate(799 358)"><g transform="translate(0)"><path class="b" d="M87.315,92.939V96.7H100.55V92.939a.784.784,0,0,1,.04-.246,1.511,1.511,0,0,1,.339-.735.594.594,0,0,0-.281-.07H87.217a.593.593,0,0,0-.281.071,1.512,1.512,0,0,1,.339.734A.78.78,0,0,1,87.315,92.939Zm6.729,2.1a.24.24,0,0,1,.239-.24h5.8a.24.24,0,0,1,.239.24v1.2a.24.24,0,0,1-.239.24h-5.8a.24.24,0,0,1-.239-.24Zm-6.5,0a.24.24,0,0,1,.239-.24h5.8a.24.24,0,0,1,.239.24v1.2a.24.24,0,0,1-.239.24h-5.8a.24.24,0,0,1-.239-.24Z" transform="translate(-81.933 -86.621)"/><path class="b" d="M48.426,93.084a.6.6,0,0,0,.423.176h14.8a.6.6,0,0,0,.6-.6V90.031A.576.576,0,0,1,64,88.939,3.438,3.438,0,0,0,65.548,87.4a1.34,1.34,0,0,0-2.459.518.6.6,0,0,0-.035.2h0V92.06H49.448V88.121a.6.6,0,0,0-.036-.2,1.34,1.34,0,0,0-2.459-.517A3.434,3.434,0,0,0,48.5,88.939a.577.577,0,0,1,.261.771.57.57,0,0,1-.509.321V92.66A.605.605,0,0,0,48.426,93.084Z" transform="translate(-44.251 -81.806)"/><path class="b" d="M79.048,202.323v.3h.725v-.3Z" transform="translate(-74.509 -190.714)"/><path class="b" d="M326.3,202.323v.3h.725v-.3Z" transform="translate(-307.569 -190.714)"/><path class="b" d="M202.675,202.323v.3h.725v-.3Z" transform="translate(-191.037 -190.714)"/><path class="b" d="M24.217,2.59A1.3,1.3,0,0,0,25.5,1.469a3.6,3.6,0,0,1-.367-.038c-.663-.1-1.174-.363-1.159-.585.088.2.6.352,1.223.352A2.3,2.3,0,0,0,26.284.983c.1-.059.15-.126.15-.2,0-.228-.554-.413-1.238-.413h-.069a1.295,1.295,0,1,0-.91,2.216Z" transform="translate(-21.603)"/><path class="b" d="M.883,53.473A7.758,7.758,0,0,1,1.211,55.7a7.231,7.231,0,0,1-.447,2.521.719.719,0,1,0,1.349.5A8.669,8.669,0,0,0,2.65,55.7a9.027,9.027,0,0,0-.523-3.047c-.014-.1-.023-.211-.028-.318a5.171,5.171,0,0,1-.685-1.264,5.631,5.631,0,0,1-.36-1.656.575.575,0,0,1,.559-.6H1.63a.573.573,0,0,1,.575.559V49.4c0,.015,0,.039.005.069.008.086.02.181.035.276.019.116.048.267.092.438.034-.167.066-.325.095-.471.165-.573-.051-1.258-.542-1.381A1.317,1.317,0,0,0,.4,49.314a6.359,6.359,0,0,0-.327,3.2A1.084,1.084,0,0,0,.883,53.473Z" transform="translate(0 -45.554)"/><path class="b" d="M21.229,59.941c0-.033,0-.057-.005-.072s0-.013,0-.016h0a.46.46,0,0,0-.92.026,5.438,5.438,0,0,0,.353,1.624,4.606,4.606,0,0,0,2.272,2.571.46.46,0,1,0,.407-.826,3.682,3.682,0,0,1-1.817-2.071,4.9,4.9,0,0,1-.252-.95C21.245,60.1,21.234,60.006,21.229,59.941Z" transform="translate(-19.133 -55.998)"/><path class="b" d="M334.15.983a2.3,2.3,0,0,0,1.087.215c.622,0,1.135-.153,1.223-.352.015.223-.5.482-1.159.585a3.58,3.58,0,0,1-.367.038,1.3,1.3,0,1,0,.373-1.1h-.069c-.684,0-1.238.185-1.238.412C334,.857,334.055.924,334.15.983Z" transform="translate(-314.831)"/><path class="b" d="M372.923,48.824h.016a.575.575,0,0,1,.559.591h0v.005a5.647,5.647,0,0,1-.361,1.655,5.165,5.165,0,0,1-.684,1.264c-.005.107-.014.214-.028.318a9.028,9.028,0,0,0-.523,3.047,8.663,8.663,0,0,0,.536,3.02.719.719,0,0,0,1.349-.5,7.225,7.225,0,0,1-.447-2.521,7.811,7.811,0,0,1,.261-2q.034-.126.067-.233a1.084,1.084,0,0,0,.814-.964,6.359,6.359,0,0,0-.327-3.2,1.317,1.317,0,0,0-1.493-.987c-.491.122-.707.808-.542,1.381.029.147.062.306.1.473a4.131,4.131,0,0,0,.132-.8A.573.573,0,0,1,372.923,48.824Z" transform="translate(-350.552 -45.556)"/><path class="b" d="M340.745,63.245a.46.46,0,1,0,.407.826,4.606,4.606,0,0,0,2.272-2.571,5.44,5.44,0,0,0,.353-1.624.46.46,0,0,0-.92-.026h0a4.645,4.645,0,0,1-.321,1.391A3.662,3.662,0,0,1,340.745,63.245Z" transform="translate(-320.946 -55.997)"/></g></g></g></svg>