<svg xmlns="http://www.w3.org/2000/svg" width="20" height="20" viewBox="0 0 20 20"><defs><style>.a{fill:#666;}</style></defs><g transform="translate(0 0)"><g transform="translate(0)"><path class="a" d="M16.628,3.613a4.391,4.391,0,0,1,2.217-1.347,2.014,2.014,0,0,1,1.606.692l1,1a2.165,2.165,0,0,1,.676,1.753A3.352,3.352,0,0,1,20.75,7.791L8.757,19.823a.334.334,0,0,1-.115.074h0l-4.333,1.7H19.2a.335.335,0,0,1,0,.67H2.537a.329.329,0,0,1-.239-.1.328.328,0,0,1-.06-.09.279.279,0,0,1-.012-.032.33.33,0,0,1-.018-.09c0-.007,0-.026,0-.029a.341.341,0,0,1,.02-.11l2.313-6.027a.615.615,0,0,1,.076-.117Zm4.837,2.029a1.5,1.5,0,0,0-.491-1.212l-1-1a1.384,1.384,0,0,0-1.007-.494.729.729,0,0,0-.076,0,2.607,2.607,0,0,0-1.55.918l3.222,3.234A2.458,2.458,0,0,0,21.465,5.642Zm-4.6-1.318L16,5.189,19.2,8.4l.863-.866Zm1.864,4.549-3.2-3.209-.863.866,3.2,3.209ZM6.625,16l-1.535.21L4.2,18.515l1.721,1.727,2.295-.9.224-1.516-1.493.009a.361.361,0,0,1-.238-.1.335.335,0,0,1-.1-.239ZM5.247,20.509,3.943,19.2,3.12,21.342Zm1.669-5.226a.334.334,0,0,1,.378.335l-.008,1.548,1.544-.009a.324.324,0,0,1,.254.116.336.336,0,0,1,.078.268L9,18.631l8.392-8.42-.7-.7L9.758,16.475A.334.334,0,1,1,9.286,16L16.226,9.04l-.863-.866-4.937,4.953a.334.334,0,1,1-.472-.473L14.891,7.7l-.7-.7L5.787,15.437Z" transform="translate(-2.205 -2.264)"/><path class="a" d="M3.715,60.678H2.339a.339.339,0,0,1,0-.678H3.715a.339.339,0,0,1,0,.678Z" transform="translate(15.946 -40.678)"/><path class="a" d="M38.664,15.1a.339.339,0,0,1,0,.479l-5.085,5.085a.339.339,0,1,1-.479-.479L38.184,15.1A.339.339,0,0,1,38.664,15.1Z" transform="translate(-29.044 -10.757)"/><path class="a" d="M43.339,22.39a.339.339,0,0,1-.24-.579L45.811,19.1a.339.339,0,1,1,.479.479l-2.712,2.712a.339.339,0,0,1-.24.1Z" transform="translate(-39.974 -13.411)"/></g></g></svg>