<svg xmlns="http://www.w3.org/2000/svg" width="20" height="11.429" viewBox="0 0 20 11.429"><defs><style>.a{fill:#666;}</style></defs><g transform="translate(-4.059 -23.83)"><path class="a" d="M21.011,26.559a11.622,11.622,0,0,0-6.945-2.729A11.622,11.622,0,0,0,7.12,26.559a18.178,18.178,0,0,0-2.831,2.712l-.229.273.218.273a18.182,18.182,0,0,0,2.831,2.712,11.675,11.675,0,0,0,6.956,2.729,11.622,11.622,0,0,0,6.945-2.729,18.182,18.182,0,0,0,2.831-2.712l.218-.273-.218-.273a18.177,18.177,0,0,0-2.831-2.712Zm-6.945,7.826c-4.271,0-7.93-3.78-8.873-4.841.941-1.061,4.6-4.841,8.873-4.841s7.93,3.78,8.873,4.841C22,30.605,18.336,34.385,14.065,34.385Z" transform="translate(0 0)"/><path class="a" d="M37.306,33.48a3.594,3.594,0,1,0,3.686,3.593A3.611,3.611,0,0,0,37.306,33.48Zm0,6.308a2.724,2.724,0,1,1,2.807-2.715A2.769,2.769,0,0,1,37.306,39.8Z" transform="translate(-23.241 -7.529)"/></g></svg>