<svg xmlns="http://www.w3.org/2000/svg" width="24" height="24" viewBox="0 0 24 24"><defs><style>.a{fill:#fff;}</style></defs><g transform="translate(0 0)"><g transform="translate(5.56)"><path class="a" d="M137.5,48.226a9.219,9.219,0,1,0,.119-1.487,10.035,10.035,0,0,0-.119,1.487.568.568,0,0,0,1.135,0,8.032,8.032,0,1,1,.091,1.265,8.5,8.5,0,0,1-.1-1.26A.565.565,0,0,0,137.5,48.226Z" transform="translate(-137.5 -39.006)"/></g><g transform="translate(0 14.777)"><path class="a" d="M46.411,300.088l-2.723,2.723-4.363,4.363-1,1a.566.566,0,0,0,.8.8l2.723-2.723,4.363-4.363,1-1a.566.566,0,0,0-.8-.8Z" transform="translate(-38.159 -299.919)"/></g></g></svg>