<svg xmlns="http://www.w3.org/2000/svg" width="24" height="24" viewBox="0 0 24 24"><defs><style>.a{fill:gray;}</style></defs><g transform="translate(-8.221 -8.221)"><path class="a" d="M20.221,8.221a12,12,0,1,0,12,12A12,12,0,0,0,20.221,8.221Zm0,22.224a10.222,10.222,0,0,1-7.829-16.8l5.424,5.423c-.014.035-.029.066-.043.1l.03-.089s-1.178-.727-1.34-.565a6.571,6.571,0,0,0-.532,1.124l-.473.139h.518s.643-.72.6-.85,1.111.5,1.113.5a7.816,7.816,0,0,0-.287,2.025c-.4-.223-1.4-.748-1.567-.581a8.519,8.519,0,0,0-.689,1.457l-.613.18h.672s.834-.933.777-1.1c-.051-.151,1,.408,1.418.639a14.642,14.642,0,0,0,.112,1.537c-.389-.192-.829-.372-.93-.27a7.738,7.738,0,0,0-.627,1.326l-.558.164h.612s.759-.85.707-1c-.036-.107.485.148.881.355A12.969,12.969,0,0,0,18.1,26.2a.137.137,0,0,0-.109.023,6.572,6.572,0,0,0-.532,1.125l-.473.138h.519s.643-.719.6-.85c-.013-.038.057-.022.165.021.493,1.233,1.152,2.077,1.878,2.077s1.373-.829,1.864-2.043c.054-.015.092-.02.084.006-.044.131.6.851.6.851h.518l-.473-.139a6.588,6.588,0,0,0-.531-1.124c-.008-.008-.027-.005-.039-.009a12.821,12.821,0,0,0,.516-2.012l.209-.111,3.9,3.9A10.182,10.182,0,0,1,20.221,30.445Zm7.829-3.651-4.782-4.782c.485-.259,1.236-.645,1.193-.517-.057.17.778,1.1.778,1.1h.671l-.612-.18a8.481,8.481,0,0,0-.69-1.458c-.191-.192-1.483.532-1.7.657a8.262,8.262,0,0,0-.258-2.073c.25-.137,1.078-.58,1.037-.455s.6.85.6.85H24.8l-.473-.139a6.6,6.6,0,0,0-.531-1.125c-.14-.139-1.027.346-1.274.484a2.571,2.571,0,0,0-1.635-1.731c.412-.1.69-.271.69-.472s-.257-.363-.645-.462c.029-.738.221-3.138,1.488-4.111a2.294,2.294,0,0,1,2.1-.3l.069-.25a2.539,2.539,0,0,0-2.328.34c-1.347,1.034-1.557,3.446-1.589,4.264a3.492,3.492,0,0,0-.524-.039,3.59,3.59,0,0,0-.376.02c-.034-.835-.25-3.219-1.587-4.246a2.538,2.538,0,0,0-2.328-.34l.069.25a2.294,2.294,0,0,1,2.1.3c1.25.958,1.453,3.307,1.486,4.079-.469.09-.792.278-.792.494,0,.2.278.374.69.472a2.169,2.169,0,0,0-.505.227l-5.262-5.262a10.222,10.222,0,0,1,14.4,14.4Z" transform="translate(0 0)"/></g></svg>