<svg xmlns="http://www.w3.org/2000/svg" width="20" height="20" viewBox="0 0 20 20"><defs><style>.a{fill:#666;}</style></defs><g transform="translate(-1 -1)"><path class="a" d="M20,2.333H16.333v-1a.333.333,0,0,0-.667,0v1H6.333v-1a.333.333,0,1,0-.667,0v1H2a1,1,0,0,0-1,1V6.667A.333.333,0,0,0,1.333,7h.333V20a1,1,0,0,0,1,1H19.333a1,1,0,0,0,1-1V7h.333A.333.333,0,0,0,21,6.667V3.333A1,1,0,0,0,20,2.333ZM19.667,20a.333.333,0,0,1-.333.333H2.667A.333.333,0,0,1,2.333,20V7H19.667Zm.667-13.667H1.667v-3A.333.333,0,0,1,2,3H5.667V4a.333.333,0,1,0,.667,0V3h9.333V4a.333.333,0,1,0,.667,0V3H20a.333.333,0,0,1,.333.333Z"/><path class="a" d="M11.333,14.667h2a.333.333,0,0,0,.333-.333v-2A.333.333,0,0,0,13.333,12h-2a.333.333,0,0,0-.333.333v2A.333.333,0,0,0,11.333,14.667Zm.333-2H13V14H11.667Z" transform="translate(-3.333 -3.667)"/><path class="a" d="M17.333,14.667h2a.333.333,0,0,0,.333-.333v-2A.333.333,0,0,0,19.333,12h-2a.333.333,0,0,0-.333.333v2A.333.333,0,0,0,17.333,14.667Zm.333-2H19V14H17.667Z" transform="translate(-5.333 -3.667)"/><path class="a" d="M23.333,14.667h2a.333.333,0,0,0,.333-.333v-2A.333.333,0,0,0,25.333,12h-2a.333.333,0,0,0-.333.333v2A.333.333,0,0,0,23.333,14.667Zm.333-2H25V14H23.667Z" transform="translate(-7.333 -3.667)"/><path class="a" d="M5.333,20.667h2a.333.333,0,0,0,.333-.333v-2A.333.333,0,0,0,7.333,18h-2A.333.333,0,0,0,5,18.333v2A.333.333,0,0,0,5.333,20.667Zm.333-2H7V20H5.667Z" transform="translate(-1.333 -5.667)"/><path class="a" d="M11.333,20.667h2a.333.333,0,0,0,.333-.333v-2A.333.333,0,0,0,13.333,18h-2a.333.333,0,0,0-.333.333v2A.333.333,0,0,0,11.333,20.667Zm.333-2H13V20H11.667Z" transform="translate(-3.333 -5.667)"/><path class="a" d="M17.333,20.667h2a.333.333,0,0,0,.333-.333v-2A.333.333,0,0,0,19.333,18h-2a.333.333,0,0,0-.333.333v2A.333.333,0,0,0,17.333,20.667Zm.333-2H19V20H17.667Z" transform="translate(-5.333 -5.667)"/><path class="a" d="M23.333,20.667h2a.333.333,0,0,0,.333-.333v-2A.333.333,0,0,0,25.333,18h-2a.333.333,0,0,0-.333.333v2A.333.333,0,0,0,23.333,20.667Zm.333-2H25V20H23.667Z" transform="translate(-7.333 -5.667)"/><path class="a" d="M5.333,26.667h2a.333.333,0,0,0,.333-.333v-2A.333.333,0,0,0,7.333,24h-2A.333.333,0,0,0,5,24.333v2A.333.333,0,0,0,5.333,26.667Zm.333-2H7V26H5.667Z" transform="translate(-1.333 -7.667)"/><path class="a" d="M11.333,26.667h2a.333.333,0,0,0,.333-.333v-2A.333.333,0,0,0,13.333,24h-2a.333.333,0,0,0-.333.333v2A.333.333,0,0,0,11.333,26.667Zm.333-2H13V26H11.667Z" transform="translate(-3.333 -7.667)"/><path class="a" d="M17.333,26.667h2a.333.333,0,0,0,.333-.333v-2A.333.333,0,0,0,19.333,24h-2a.333.333,0,0,0-.333.333v2A.333.333,0,0,0,17.333,26.667Zm.333-2H19V26H17.667Z" transform="translate(-5.333 -7.667)"/></g></svg>