<svg xmlns="http://www.w3.org/2000/svg" width="20" height="20" viewBox="0 0 20 20"><defs><style>.a{fill:#666;}</style></defs><g transform="translate(-7 -7)"><g transform="translate(7 7)"><path class="a" d="M17,7A9.95,9.95,0,0,0,7,16.886a.465.465,0,1,0,.93,0A9.07,9.07,0,1,1,17,25.852a9.221,9.221,0,0,1-5.9-2.378l2.442-.158a.466.466,0,0,0,.43-.24.455.455,0,0,0-.031-.488.468.468,0,0,0-.457-.185l-3.488.23a.467.467,0,0,0-.339.177.456.456,0,0,0-.089.369l.7,3.449a.467.467,0,0,0,.549.363.462.462,0,0,0,.367-.542L10.764,24.4A9.988,9.988,0,0,0,17,26.772,9.887,9.887,0,1,0,17,7Zm-.516,2.522a.462.462,0,0,0-.414.467v7.357a.463.463,0,0,0,.465.46h7.442a.46.46,0,1,0,0-.92H17v-6.9a.457.457,0,0,0-.151-.349A.469.469,0,0,0,16.484,9.522Z" transform="translate(-7 -7)"/></g></g></svg>