<svg xmlns="http://www.w3.org/2000/svg" width="24" height="24" viewBox="0 0 24 24"><defs><style>.a{fill:none;}.b{fill:gray;}</style></defs><g transform="translate(-799 -354)"><rect class="a" width="24" height="24" transform="translate(799 354)"/><g transform="translate(797.7 352.2)"><g transform="translate(1.3 2.8)"><path class="b" d="M13.1,29.385l1.671-.3V27.663l-1.873.81-1.57-.557-1.266.861L7.477,27.663l2.278.3,1.519-1.013,1.266.608,2.228-.2V26.6H1.3v4.051H12.186Z" transform="translate(-1.3 -14.549)"/><path class="b" d="M26.32,32.3l-1.418.759-.2.405h1.62Z" transform="translate(-12.852 -17.363)"/><rect class="b" width="4.051" height="6.43" transform="translate(19.291)"/><path class="b" d="M34.052,21.552H29.9v5.367h5.215a4.3,4.3,0,0,0,4.3-4.3V17.4H34.052Z" transform="translate(-15.419 -10.008)"/><path class="b" d="M25.028,41.671a1.51,1.51,0,0,0,1.418-2.025L25.028,36,23.61,39.646A1.51,1.51,0,0,0,25.028,41.671Zm-.051-3.848L25.787,40a.915.915,0,0,1-.456,1.165c-.152.1-.354-.051-.354-.253s.253-.3.253-.81Z" transform="translate(-12.268 -19.19)"/></g></g></g></svg>