<svg xmlns="http://www.w3.org/2000/svg" xmlns:xlink="http://www.w3.org/1999/xlink" width="460" height="260" viewBox="0 0 460 260"><defs><style>.a{fill:#fff;}.b{clip-path:url(#c);}.c,.f{fill:#f5f5f5;}.d,.g,.u,.v,.w{fill:#bc1c86;}.e{fill:none;stroke:#535461;stroke-miterlimit:10;stroke-width:2px;}.f,.g{opacity:0.2;}.h,.u{opacity:0.5;}.i{fill:url(#d);}.j{fill:#5a5773;}.k{fill:#605d82;}.l,.m{opacity:0.1;}.n{fill:#a1616a;}.o{fill:#e1e7ef;}.p{fill:#67647e;}.q{fill:#4a4347;}.r{fill:url(#e);}.s{fill:#e0e0e0;}.t{opacity:0.05;}.v{opacity:0.4;}.w{opacity:0.3;}.x{filter:url(#a);}</style><filter id="a" x="-22.5" y="-19.5" width="505" height="305" filterUnits="userSpaceOnUse"><feOffset dy="3" input="SourceAlpha"/><feGaussianBlur stdDeviation="7.5" result="b"/><feFlood flood-opacity="0.102"/><feComposite operator="in" in2="b"/><feComposite in="SourceGraphic"/></filter><clipPath id="c"><g class="x" transform="matrix(1, 0, 0, 1, 0, 0)"><rect class="a" width="460" height="260" transform="translate(53 343)"/></g></clipPath><linearGradient id="d" y1="0.5" x2="0.999" y2="0.5" gradientUnits="objectBoundingBox"><stop offset="0" stop-color="gray" stop-opacity="0.251"/><stop offset="0.54" stop-color="gray" stop-opacity="0.122"/><stop offset="1" stop-color="gray" stop-opacity="0.102"/></linearGradient><linearGradient id="e" x1="0.5" y1="1" x2="0.5" y2="0" xlink:href="#d"/></defs><g class="b" transform="translate(-53 -343)"><g transform="translate(77.219 343.001)"><ellipse class="c" cx="146.491" cy="41.854" rx="146.491" ry="41.854" transform="translate(68.402 220.288)"/><path class="d" d="M918.994,324.92s-25.95,25.95-11.3,64.456S882.58,491.919,882.58,491.919s.418-.063,1.218-.2c53.3-9.409,79.779-70.366,50.142-115.648C922.936,359.236,913.875,339.485,918.994,324.92Z" transform="translate(-564.725 -225.595)"/><path class="e" d="M918.994,324.92s-14.649,31.809,0,57.759,2.511,98.777-36.413,109.24" transform="translate(-564.725 -225.595)"/><path class="d" d="M956.034,575.239s-29.612-4.717-32.312,21.823S866.8,627.277,866.8,627.277s.352.243,1.017.678c44.784,29.4,87.6,18.726,81.147-20.312C946.55,593.132,946.742,578.554,956.034,575.239Z" transform="translate(-555.55 -370.956)"/><path class="f" d="M956.034,575.239s-29.612-4.717-32.312,21.823S866.8,627.277,866.8,627.277s.352.243,1.017.678c44.784,29.4,87.6,18.726,81.147-20.312C946.55,593.132,946.742,578.554,956.034,575.239Z" transform="translate(-555.55 -370.956)"/><path class="e" d="M956.011,575.69s-22.986,5.048-21.1,25.95-34.149,45.948-68.152,26.079" transform="translate(-555.526 -371.407)"/><path class="g" d="M183.367,86.11a26.015,26.015,0,0,0-9.995,1.178c-8.61,3.2-12.69,13.68-11.364,22.755s6.785,16.954,12.448,24.174,11.8,14.348,14.9,22.967c1.549,4.305,2.273,9.129.7,13.426-2.428,6.627-9.748,10.331-16.775,11.1s-14.084-.731-21.137-1.253a22.054,22.054,0,0,0-8.789.735c-3.06,1.057-5.609,3.211-7.952,5.458-9.145,8.811-16.466,20.838-15.281,33.466,1.339,14.315,13.285,25.632,26.368,31.7,4.332,2.013,8.915,3.641,12.728,6.514,10.045,7.575,12.3,21.769,11.3,34.3s-4.407,25.076-2.511,37.5a45.226,45.226,0,0,0,25.422,33.6c11.866,5.429,26.716,5.09,37.251-2.589,5.136-3.758,9.02-8.941,12.4-14.315a123.43,123.43,0,0,0,12.326-25.84c1.469-4.305,2.85-8.937,6.278-11.931a19.655,19.655,0,0,1,7.488-3.675c8.086-2.414,16.6-3.078,24.765-5.224s16.374-6.147,20.81-13.3c6.278-10.152,3.348-23.134,3.378-35.078.05-27.21,16.369-51.572,22.392-78.089,1.967-8.669,2.7-18.261-1.7-25.991-2.988-5.274-8.023-9.032-13.318-11.956-11.636-6.448-24.862-9.316-37.874-12.11-18.085-3.875-40.046-4.376-54.064-16.912C220.115,94.688,201.712,86.11,183.367,86.11Z" transform="translate(-119.999 -86.075)"/><g class="h" transform="translate(43.892 12.912)"><path class="i" d="M309.947,209.389a62.714,62.714,0,0,0-3.048-19.307l-5.025-15.546v-.768c.155-9.959-7.626-14.927-10.623-14.389-3.068.551-11.581-3.708-11.581-3.708v.117a15.912,15.912,0,0,1-1.574-2.146A13.6,13.6,0,0,0,280.9,134.36a5.984,5.984,0,0,0,2.022-2.706,6.863,6.863,0,0,0-.967-5.913,11.463,11.463,0,0,0-1.674-1.992,21.185,21.185,0,0,0-3.122-2.547,23.762,23.762,0,0,0-9.208-4.175,3.843,3.843,0,0,0-1.762,0,7.31,7.31,0,0,0-1.427.768c-2.294,1.3-5.148.739-7.793.6s-5.86.6-6.7,3.077a22.551,22.551,0,0,0-.419,2.376c-.419,1.921-1.9,3.411-3.051,5.011s-2,3.758-1.051,5.495c.326.585.837,1.123.837,1.791a5.119,5.119,0,0,1-.419,1.37,2.894,2.894,0,0,0,1.092,2.844,4.64,4.64,0,0,0,1.256.956c1.327.676,2.854.885,4.206,1.511a6.911,6.911,0,0,1,1.833,1.253,7.181,7.181,0,0,1,1.992,5.19l.28.029v.246c.293.033.6.063.908.075a13.779,13.779,0,0,0,1.5,1.992q-.142.535-.322,1.086c-.984.681-9.028,6.025-18.177,4.739-9.765-1.374-15.348,41.216-15.348,41.216a48.6,48.6,0,0,0-.527,7.357c-.042,6.263,1.277,14.46,8.622,13.253l3.905-1.282v21.065s.557,5.771-1.394,9.6,6.14,2.472,6.14,2.472.31.322.879.868l-.18.505.239.242a55.164,55.164,0,0,1-4.282,10.476l.23.117c-.146.28-.23.418-.23.418s3.005,1.532,7.14,3.507c3.323,11.207,10.6,37.162,8.2,42.106l.067.142h0c.448.927,2.951,6.393,2.444,11.4-.456,4.476,5.755,24.815,8.074,32.2l-1.1.221,3.9,14.013-.837,9.069s-4.742,12.639,6.416,10.167,8.09-12.639,8.09-12.639l.281-20.61s-1.076-.6-2.4-1.169c-.912-2.459-2.9-8.272-2.9-12.293,0-5.219-3.629-27.755-3.629-27.755v-.159l-.021-.3v-.05c0-.28-.046-.664-.08-1.132v-.025c-.419-6.092-1.674-26.79-.758-37.579a24.181,24.181,0,0,1,2.511-1.495c2.716,6.848,9.719,25.349,9.271,33.112-.557,9.6-.138,2.063,0,.835.042-.38.071.079.084,1.111v4.063c0,.835,0,1.762-.029,2.727v.585c0,.589,0,1.19-.029,1.8,0,.835-.033,1.645-.05,2.484-.042,1.879-.1,3.779-.163,5.558q0,.3-.021.589-.021.585-.046,1.144t-.05,1.094q-.025.53-.054,1.031c-.021.393-.046.768-.067,1.127l-1.515-.217-.322,3.474a37.687,37.687,0,0,0,2.093,16.285c.519,1.428.921,2.61,1.009,3.031.28,1.374,0,11.274,0,11.274s1.674,12.915,9.488,10.439c3.516-1.115,5.223-4.505,6.04-7.9a19.557,19.557,0,0,0-.967-11.8c-1.109-2.781-2.243-6.681-1.444-9.7a59.883,59.883,0,0,0,1.394-12.639l-.862-.121a13.7,13.7,0,0,0,.582-1.253s-.28-18.961,2.231-21.433c1.381-1.361,1.256-4.631.837-7.3a49.85,49.85,0,0,1-.419-11.691,18.544,18.544,0,0,1,.707-4.38c.737-1.453,1.473-16.1-1.787-23.149l.67-.209-.1-.518.1-.033a40.859,40.859,0,0,0,1.674,3.846,1.532,1.532,0,0,0,.557.276c9.036-1.583,9.4-10,8.9-14.589.381.184.59.3.59.3l.837-12.109a17.468,17.468,0,0,0,1.155-7.069C314.534,221.9,309.947,209.389,309.947,209.389Zm-9.961,34.419c-.619-5.274-1.477-10.238-1.477-10.238l-4.185-14.84v-5.4l6.638,24.719Z" transform="translate(-224.868 -116.925)"/></g><path class="j" d="M358.738,614.93l-.31,3.4a37.445,37.445,0,0,0,2.03,15.967c.5,1.4.887,2.557.971,2.972.268,1.348,0,11.037,0,11.037s1.616,12.653,9.154,10.229c3.39-1.088,5.023-4.416,5.826-7.743a19.438,19.438,0,0,0-.938-11.56c-1.071-2.725-2.168-6.554-1.394-9.5a59.405,59.405,0,0,0,1.348-12.38Z" transform="translate(-258.89 -394.223)"/><path class="k" d="M340.09,462.264s10.5,25.573,9.957,34.99-.134,2.017,0,.808c.239-2.155,0,23.438-.808,26.368,0,0,11.037,8.074,15.344-2.691,0,0-.268-18.571,2.151-20.994,1.331-1.331,1.2-4.537.808-7.153a49.585,49.585,0,0,1-.418-11.439,17.357,17.357,0,0,1,.682-4.29c.808-1.616,1.616-19.919-3.231-25.033Z" transform="translate(-248.297 -299.755)"/><path class="l" d="M350.593,524.478c.808-2.959,1.046-28.536.808-26.368-.134,1.21-.54,8.614,0-.808s-9.957-34.99-9.957-34.99l23.485-9.032c-.109-.138-.222-.268-.335-.389L340.1,462.312s10.5,25.573,9.957,34.99-.134,2.017,0,.808c.239-2.156,0,23.438-.808,26.368,0,0,4.407,3.223,8.739,2.88A16.589,16.589,0,0,1,350.593,524.478Z" transform="translate(-248.3 -299.79)"/><path class="j" d="M318.22,670.432l3.767,13.728-.808,8.881s-4.575,12.381,6.19,9.957,7.806-12.381,7.806-12.381l.268-20.186s-4.307-2.423-6.19-2.151S318.22,670.432,318.22,670.432Z" transform="translate(-235.54 -425.231)"/><path class="k" d="M273.85,459.94s12.381,40.1,9.421,46.3c0,0,2.959,5.922,2.423,11.3s8.614,34.182,8.614,34.182l13.46-2.423s-3.231-8.074-3.231-13.188-3.5-27.205-3.5-27.205-2.959-40.377.54-44.684Z" transform="translate(-209.687 -303.933)"/><g class="m" transform="translate(64.163 156.012)"><path d="M336.3,478c-2.231,9.141.234,42.779.234,42.779s3.5,22.07,3.5,27.205c0,3.905,1.879,9.53,2.771,11.975l.728-.13s-3.231-8.074-3.231-13.188-3.5-27.205-3.5-27.205S334.553,488.694,336.3,478Z" transform="translate(-309.62 -470.441)"/><path d="M296.36,570.161l.067.138c.021-.138.042-.285.054-.419A3,3,0,0,1,296.36,570.161Z" transform="translate(-286.939 -523.865)"/><path d="M300.968,465.54a3.964,3.964,0,0,1,.607-1.293L273.85,459.94s.163.523.444,1.456Z" transform="translate(-273.85 -459.94)"/></g><path class="n" d="M411.152,422.221s4.039,15.068-8.074,17.227a1.472,1.472,0,0,1-.54-.268s-7-13.728-1.616-19.111Z" transform="translate(-282.556 -280.593)"/><path class="n" d="M296.206,186s.808,11.3-8.074,16.687,18.835,20.186,18.835,20.186l14.536-23.15s-6.186.8-9.953-9.957Z" transform="translate(-216.991 -144.177)"/><path class="l" d="M275.528,227.78s13.728,28.532,26.109,1.616l19.111,94.742s-29.612,9.154-29.876,13.46S261,326.565,261,326.565s6.458-11.845,4.847-19.111S275.528,227.78,275.528,227.78Z" transform="translate(-201.985 -168.666)"/><path class="o" d="M275.528,226.49s13.728,28.532,26.109,1.616l19.111,94.746s-29.612,9.154-29.876,13.46S261,325.275,261,325.275s6.458-11.845,4.847-19.111S275.528,226.49,275.528,226.49Z" transform="translate(-201.985 -167.915)"/><path class="j" d="M326.822,680.616s-3.5-7.806,4.575-7.806,6.73,7,6.73,7Z" transform="translate(-240.111 -427.878)"/><path class="j" d="M370.713,631.244s-3.231-8.346,4.847-8.614,4.039,7.534,4.039,7.534Z" transform="translate(-265.76 -398.541)"/><path class="l" d="M355.2,212s8.208,4.185,11.171,3.633,10.765,4.575,10.229,14.8l4.864,15.26a62.323,62.323,0,0,1,2.93,18.922h0s7,19.379,3.231,27.992l-.808,11.845s-6.19-3.5-12.653-2.423l1.628-9.673L368.51,264.9,356.4,235.56Z" transform="translate(-257.11 -159.454)"/><path class="p" d="M355.2,210.73s8.208,4.185,11.171,3.633,10.765,4.575,10.229,14.8l4.864,15.26a62.323,62.323,0,0,1,2.93,18.922h0s7,19.379,3.231,27.992l-.808,11.845s-6.19-3.5-12.653-2.423l1.615-9.689-7.27-27.452-12.1-29.34Z" transform="translate(-257.11 -158.714)"/><path class="l" d="M368.794,256.9v30.416l4.039,14.536s2.691,15.88,1.883,20.726-13.728,5.922-17.227,1.883-1.616-38.506-1.616-38.506L355.2,235.5l.54-1.616Z" transform="translate(-257.098 -172.205)"/><path class="p" d="M370.114,255.913v30.416l4.039,14.536s2.691,15.88,1.883,20.726-13.728,5.922-17.227,1.883-1.616-38.506-1.616-38.506L356.52,234.5Z" transform="translate(-257.867 -172.565)"/><path class="l" d="M259.38,272.445l8.614,26.787-4.039,11.439s19.111,20.186,31.224,10.5c0,0,1.348-41.185-1.348-50.874s-15.612-42.273-15.612-42.273l-2.674-8.6-14.264,8.074Z" transform="translate(-201.043 -163.788)"/><path class="p" d="M255.489,269.191v26.368s.54,5.655-1.348,9.421,5.922,2.423,5.922,2.423,19.111,20.186,31.223,10.5c0,0,1.348-41.185-1.348-50.874s-15.612-42.273-15.612-42.273l-2.691-8.614-14.264,8.074Z" transform="translate(-197.825 -161.877)"/><path class="l" d="M261.842,204.95s-8.208,6.056-17.629,4.709-14.8,40.377-14.8,40.377-3.5,21.534,7.806,19.651l25.033-8.346s-5.383-5.655-4.575-12.92l-12.117,4.842.544-23.146Z" transform="translate(-183.319 -155.329)"/><path class="l" d="M230.689,309.136s-3.5,21.534,7.806,19.651l25.033-8.346s-5.383-5.65-4.575-12.92l-12.109,4.847Z" transform="translate(-184.063 -215.046)"/><path class="n" d="M297.51,304.321s8.4-11.045,14.586-5.742S299.728,313.6,299.728,313.6Z" transform="translate(-223.468 -208.996)"/><path class="p" d="M261.842,203.66s-8.208,6.056-17.629,4.709-14.8,40.377-14.8,40.377-3.5,21.534,7.806,19.651l25.033-8.346s-5.383-5.655-4.575-12.921l-12.117,4.847.544-23.15,13.728-11.3Z" transform="translate(-183.319 -154.577)"/><path class="l" d="M325.658,191.027l-15.344-3.767s.8.9-.134,4.441c2.469,2.834,5.5,6.6,9.555,6.6a13.394,13.394,0,0,0,8.044-2.666A24.2,24.2,0,0,1,325.658,191.027Z" transform="translate(-230.854 -144.909)"/><ellipse class="n" cx="13.46" cy="13.46" rx="13.46" ry="13.46" transform="translate(75.161 25.931)"/><path class="l" d="M305.1,139.739c3.122-.532,6.554-1.917,7.6-4.905a6.8,6.8,0,0,0-.933-5.793,15.848,15.848,0,0,0-4.357-4.185,22.6,22.6,0,0,0-8.9-4.085,3.654,3.654,0,0,0-1.7,0,7.015,7.015,0,0,0-1.377.753c-2.214,1.277-4.968.724-7.534.59s-5.642.59-6.45,3.014c-.251.749-.234,1.557-.419,2.327-.419,1.883-1.837,3.348-2.93,4.918s-1.934,3.692-1.013,5.382c.314.573.837,1.1.837,1.754a5.44,5.44,0,0,1-.419,1.344c-.381,1.39.728,2.792,2.009,3.453s2.754.866,4.06,1.482a7.115,7.115,0,0,1,3.964,6.588c1.189.138,2.574.209,3.378-.678.36-.4.536-.929.862-1.352a9.14,9.14,0,0,1,1.607-1.323c2.817-2.315.816-5.512,2.411-8.007.837-1.285,2.168-.892,3.516-.871a31.061,31.061,0,0,0,5.784-.406Z" transform="translate(-211.35 -106.191)"/><path class="q" d="M304.462,139.1c3.122-.532,6.554-1.917,7.6-4.905a6.8,6.8,0,0,0-.933-5.793,15.849,15.849,0,0,0-4.357-4.185,22.6,22.6,0,0,0-8.9-4.085,3.654,3.654,0,0,0-1.7,0,7.014,7.014,0,0,0-1.377.753c-2.214,1.277-4.968.724-7.534.59s-5.642.59-6.45,3.014c-.251.749-.234,1.557-.419,2.327-.419,1.883-1.837,3.348-2.93,4.918s-1.934,3.692-1.013,5.383c.314.573.837,1.1.837,1.754a5.447,5.447,0,0,1-.419,1.343c-.381,1.39.728,2.792,2.009,3.453s2.754.866,4.06,1.482a7.115,7.115,0,0,1,3.976,6.6c1.189.138,2.574.209,3.378-.678.36-.4.536-.929.862-1.352a9.138,9.138,0,0,1,1.607-1.323c2.817-2.315.816-5.512,2.411-8.007.837-1.285,2.168-.892,3.516-.871a31.06,31.06,0,0,0,5.772-.423Z" transform="translate(-210.977 -105.819)"/><path class="l" d="M382.85,273.76s2.959,15.344,1.616,21.266a19.734,19.734,0,0,0,.352,10.43" transform="translate(-273.198 -195.39)"/><path class="l" d="M268.027,289.19s-1.289,10.229.858,12.381" transform="translate(-205.847 -204.364)"/><path d="M447.258,588.636a.628.628,0,1,0-.628-.628.628.628,0,0,0,.628.628Z" transform="translate(-310.37 -378.006)"/><g class="h" transform="translate(100.98 49.051)"><path class="r" d="M592.014,293.044V292.7l-114.2-87.811a.419.419,0,0,0-.5,0L363.12,292.7V428.807h.218v.218h228.9V292.914Z" transform="translate(-363.12 -204.804)"/></g><path class="a" d="M473.572,344.237H252.58V212.815l110.5-84.965,110.5,84.965Z" transform="translate(-147.635 -74.979)"/><path class="s" d="M476.667,347.264H271.58V225.3l102.544-78.85L476.667,225.3Z" transform="translate(-158.674 -85.794)"/><rect class="d" width="129.331" height="164.488" transform="translate(125.191 91.933) rotate(-14.69)"/><rect class="c" width="129.331" height="164.488" transform="translate(151.438 83.265)"/><path class="t" d="M255.08,331.35l110.5,65.712-110.5,65.711Z" transform="translate(-148.801 -193.306)"/><path class="a" d="M253.08,331.35l110.5,65.712-110.5,65.711Z" transform="translate(-147.634 -193.306)"/><path class="t" d="M625.576,331.35l-110.5,65.712,110.5,65.711Z" transform="translate(-300.472 -193.306)"/><path class="a" d="M627.576,331.35l-110.5,65.712,110.5,65.711Z" transform="translate(-301.639 -193.306)"/><path class="t" d="M253.08,520.57l110.5-86.22,110.5,86.22Z" transform="translate(-147.927 -253.195)"/><path class="a" d="M253.08,525.57l110.5-86.22,110.5,86.22Z" transform="translate(-147.927 -256.103)"/><path class="e" d="M423.7,671.742s-5.55-18.834,1.042-32.705a29.755,29.755,0,0,0,2.407-18.667,50.037,50.037,0,0,0-2.641-8.76" transform="translate(-295.735 -392.293)"/><path class="d" d="M426.821,584.856c0,2.31-4.185,9-4.185,9s-4.185-6.7-4.185-9a4.185,4.185,0,1,1,8.371,0Z" transform="translate(-293.954 -374.116)"/><path class="d" d="M443.324,612.48c-1.256,1.938-8.4,5.286-8.4,5.286s.13-7.894,1.385-9.832a4.186,4.186,0,0,1,7.019,4.546Z" transform="translate(-303.554 -388.971)"/><path class="d" d="M440.454,662.333c-2.063,1.038-9.924.322-9.924.322s4.1-6.747,6.157-7.785a4.185,4.185,0,1,1,3.767,7.467Z" transform="translate(-300.999 -417.01)"/><path class="d" d="M431.287,702.514c-1.858,1.373-9.727,1.992-9.727,1.992s2.9-7.341,4.755-8.714a4.185,4.185,0,0,1,4.972,6.722Z" transform="translate(-295.769 -440.831)"/><path class="d" d="M412.338,625.136c1.674,1.607,9.371,3.277,9.371,3.277s-1.888-7.664-3.545-9.271a4.185,4.185,0,0,0-5.826,6Z" transform="translate(-289.734 -395.905)"/><path class="d" d="M400.474,670.246c2.063,1.038,9.924.322,9.924.322s-4.1-6.747-6.157-7.785a4.185,4.185,0,0,0-3.767,7.467Z" transform="translate(-282.231 -421.712)"/><path class="d" d="M396.863,716.779c1.858,1.373,9.727,1.992,9.727,1.992s-2.9-7.341-4.755-8.714a4.185,4.185,0,1,0-4.972,6.722Z" transform="translate(-280.289 -448.985)"/><rect class="u" width="51.9" height="4.185" transform="translate(159.107 90.987)"/><rect class="u" width="112.17" height="4.185" transform="translate(158.981 107.693)"/><rect class="u" width="112.17" height="4.185" transform="translate(158.981 118.552)"/><rect class="v" width="112.17" height="4.185" transform="translate(158.981 129.411)"/><rect class="v" width="112.17" height="4.185" transform="translate(158.981 140.27)"/><rect class="w" width="64.037" height="4.185" transform="translate(159.085 151.129)"/><rect class="w" width="87.476" height="4.185" transform="translate(159.038 161.988)"/></g></g></svg>