<svg xmlns="http://www.w3.org/2000/svg" width="287" height="243" viewBox="0 0 287 243"><defs><style>.a{fill:#f1f2f2;}.b{fill:#9e1871;}.c{fill:#ffc8af;}.d{fill:#00227d;}.e{fill:#fbd15b;}.f{fill:#3f2080;}.g{fill:#edb29a;}.h{opacity:0.15;}.i{fill:#bc1c86;}.j{fill:#331a69;}.k{fill:#311963;}.l{fill:#a5b7c6;}.m{fill:#262262;}.n{fill:#e6e7e8;}</style></defs><g transform="translate(-25.965 -61.762)"><g transform="translate(36.548 61.762)"><path class="a" d="M314.69,425.173H45.461a3.6,3.6,0,0,1-3.594-3.6h0a3.6,3.6,0,0,1,3.594-3.6H314.69a3.6,3.6,0,0,1,3.594,3.6h0A3.6,3.6,0,0,1,314.69,425.173Z" transform="translate(-41.867 -182.173)"/><path class="a" d="M140.524,120.448a2,2,0,0,0-.051,4v0l.1,0a1.943,1.943,0,0,0,1.406-.607,2.112,2.112,0,0,0,.578-1.342l0-.028v-.028a1.986,1.986,0,0,0-.615-1.434A2.053,2.053,0,0,0,140.524,120.448Zm11.439-18.368a5.03,5.03,0,0,0-2.387-2.6,8.326,8.326,0,0,0-3.867-.818,6.576,6.576,0,0,0-4.671,1.863,6.454,6.454,0,0,0-1.889,4.637,6.794,6.794,0,0,0,.361,2.1h0l0,0c.005.017.009.033.015.049h0a1.565,1.565,0,0,0,.563.8,1.591,1.591,0,0,0,.942.309,1.618,1.618,0,0,0,.471-.076v0c.013,0,.025-.01.038-.014s.025-.005.037-.01v0a1.565,1.565,0,0,0,.773-.556,1.567,1.567,0,0,0,.228-1.432h0a4.137,4.137,0,0,1-.166-1.165,3.247,3.247,0,0,1,.9-2.336,3.32,3.32,0,0,1,2.418-.926,4,4,0,0,1,2.6.724,2.051,2.051,0,0,1,.584.8,3.168,3.168,0,0,1,.22,1.237,4.147,4.147,0,0,1-.3,1.616,5.06,5.06,0,0,1-1.4,1.845,18.488,18.488,0,0,1-2.215,1.587l.008-.005a18.5,18.5,0,0,0-2.534,1.825,8.433,8.433,0,0,0-1.936,2.5l0,0v0a10.433,10.433,0,0,0-1.046,3.616v.025l-.007.143a1.658,1.658,0,0,0,.383,1.055,1.563,1.563,0,0,0,1.062.566h.005l.143.006a1.679,1.679,0,0,0,1.081-.391,1.594,1.594,0,0,0,.564-1.089v.006a6.445,6.445,0,0,1,.721-2.469,5.113,5.113,0,0,1,1.239-1.59,17.573,17.573,0,0,1,2.081-1.46l0,0,0,0a16.359,16.359,0,0,0,3.618-2.9,7.413,7.413,0,0,0,1.306-2.151,7.642,7.642,0,0,0,.5-2.792A6.655,6.655,0,0,0,151.962,102.081Z" transform="translate(-74.346 -74.105)"/><path class="a" d="M215.588,108.441a2,2,0,0,0,2.039,3.445l0,0,.087-.05a1.942,1.942,0,0,0,.884-1.249,2.116,2.116,0,0,0-.2-1.447l-.013-.025-.015-.024a1.988,1.988,0,0,0-1.272-.905A2.05,2.05,0,0,0,215.588,108.441ZM215.8,86.8a5.028,5.028,0,0,0-3.389-.978,8.325,8.325,0,0,0-3.728,1.313,6.576,6.576,0,0,0-3.019,4.022,6.461,6.461,0,0,0,.8,4.943,6.806,6.806,0,0,0,1.4,1.6h0l0,0c.013.011.025.023.038.034l0,0a1.566,1.566,0,0,0,.9.387,1.588,1.588,0,0,0,.965-.226,1.615,1.615,0,0,0,.363-.309l0,0c.009-.01.015-.021.025-.031s.019-.018.027-.029l0,0a1.568,1.568,0,0,0,.371-.877A1.569,1.569,0,0,0,210,95.314l0,0a4.164,4.164,0,0,1-.747-.908,3.248,3.248,0,0,1-.444-2.465,3.319,3.319,0,0,1,1.583-2.048,4,4,0,0,1,2.6-.737,2.054,2.054,0,0,1,.914.377,3.181,3.181,0,0,1,.831.941,4.161,4.161,0,0,1,.58,1.539,5.059,5.059,0,0,1-.237,2.3,18.452,18.452,0,0,1-1.065,2.508l0-.009a18.445,18.445,0,0,0-1.215,2.876,8.446,8.446,0,0,0-.351,3.145v.006a10.437,10.437,0,0,0,.988,3.632l.005.012.006.011.069.126a1.66,1.66,0,0,0,.876.7,1.563,1.563,0,0,0,1.2-.07h0l.126-.07a1.678,1.678,0,0,0,.72-.9,1.594,1.594,0,0,0-.085-1.224l0,.006a6.456,6.456,0,0,1-.669-2.484,5.12,5.12,0,0,1,.23-2,17.731,17.731,0,0,1,1.018-2.329l0,0,0,0a16.4,16.4,0,0,0,1.579-4.364,7.426,7.426,0,0,0,0-2.516,7.637,7.637,0,0,0-1.027-2.644A6.637,6.637,0,0,0,215.8,86.8Z" transform="translate(-96.846 -69.807)"/><path class="a" d="M373.656,117.177a2,2,0,0,0,2.04,3.445v0l.087-.05a1.943,1.943,0,0,0,.884-1.25,2.111,2.111,0,0,0-.2-1.447l-.013-.025-.015-.024a1.984,1.984,0,0,0-1.271-.905A2.051,2.051,0,0,0,373.656,117.177Zm.212-21.637a5.027,5.027,0,0,0-3.39-.978,8.32,8.32,0,0,0-3.728,1.313,6.573,6.573,0,0,0-3.019,4.022,6.453,6.453,0,0,0,.8,4.943,6.778,6.778,0,0,0,1.4,1.6h0l0,0c.013.011.025.023.038.034l0,0a1.561,1.561,0,0,0,.9.387,1.561,1.561,0,0,0,1.327-.536l0,0c.009-.009.016-.021.025-.031s.019-.018.027-.028l0,0a1.565,1.565,0,0,0,.371-.877,1.568,1.568,0,0,0-.551-1.341l0,0a4.147,4.147,0,0,1-.747-.908,3.24,3.24,0,0,1-.444-2.464,3.317,3.317,0,0,1,1.583-2.049,4,4,0,0,1,2.6-.737,2.052,2.052,0,0,1,.914.377,3.174,3.174,0,0,1,.831.942,4.152,4.152,0,0,1,.581,1.539,5.064,5.064,0,0,1-.237,2.3,18.345,18.345,0,0,1-1.066,2.508l0-.009a18.444,18.444,0,0,0-1.215,2.877,8.414,8.414,0,0,0-.351,3.144v.007a10.441,10.441,0,0,0,.988,3.632l.006.012.005.011.069.125a1.654,1.654,0,0,0,.875.7,1.563,1.563,0,0,0,1.2-.069h0l.126-.069a1.679,1.679,0,0,0,.72-.9,1.591,1.591,0,0,0-.085-1.224l0,.006a6.441,6.441,0,0,1-.669-2.484,5.121,5.121,0,0,1,.23-2,17.6,17.6,0,0,1,1.018-2.329v0l0,0a16.358,16.358,0,0,0,1.579-4.363,7.411,7.411,0,0,0,0-2.516,7.643,7.643,0,0,0-1.027-2.644A6.642,6.642,0,0,0,373.867,95.54Z" transform="translate(-149.962 -72.729)"/><path class="a" d="M55.338,123.282a2,2,0,0,0,1.638,3.653v0l.091-.039a1.943,1.943,0,0,0,1.02-1.142,2.112,2.112,0,0,0-.039-1.461l-.01-.026-.012-.025a1.984,1.984,0,0,0-1.161-1.043A2.051,2.051,0,0,0,55.338,123.282Zm2.655-21.475a5.028,5.028,0,0,0-3.258-1.354,8.328,8.328,0,0,0-3.852.883,6.581,6.581,0,0,0-3.455,3.655,6.457,6.457,0,0,0,.236,5,6.793,6.793,0,0,0,1.209,1.75h0l0,0,.034.039,0,0a1.565,1.565,0,0,0,.845.486,1.593,1.593,0,0,0,.985-.116,1.614,1.614,0,0,0,.395-.266l0,0c.011-.009.019-.019.029-.028s.021-.016.03-.025l0,0a1.564,1.564,0,0,0,.468-.829,1.589,1.589,0,0,0-.116-.985,1.609,1.609,0,0,0-.28-.411l0,0a4.149,4.149,0,0,1-.64-.987,3.246,3.246,0,0,1-.162-2.5,3.32,3.32,0,0,1,1.8-1.857,4,4,0,0,1,2.669-.438,2.047,2.047,0,0,1,.865.477,3.186,3.186,0,0,1,.72,1.03,4.161,4.161,0,0,1,.4,1.595,5.054,5.054,0,0,1-.5,2.263,18.44,18.44,0,0,1-1.342,2.371l.005-.009a18.442,18.442,0,0,0-1.532,2.721,8.414,8.414,0,0,0-.7,3.085v.006a10.413,10.413,0,0,0,.572,3.72l0,.013,0,.012.055.132a1.66,1.66,0,0,0,.791.8,1.566,1.566,0,0,0,1.2.067h.005l.132-.055a1.68,1.68,0,0,0,.817-.81,1.592,1.592,0,0,0,.054-1.226l0,.007a6.454,6.454,0,0,1-.384-2.544,5.13,5.13,0,0,1,.455-1.964,17.624,17.624,0,0,1,1.274-2.2l0,0,0,0a16.383,16.383,0,0,0,2.062-4.157,7.42,7.42,0,0,0,.28-2.5,7.631,7.631,0,0,0-.721-2.743A6.657,6.657,0,0,0,57.994,101.807Z" transform="translate(-43.595 -74.702)"/><path class="a" d="M91.4,75.771a1.331,1.331,0,0,0-.347,2.639v0l.066.01a1.293,1.293,0,0,0,.975-.291,1.4,1.4,0,0,0,.487-.841l0-.019,0-.019a1.323,1.323,0,0,0-.293-.995A1.362,1.362,0,0,0,91.4,75.771Zm8.991-11.229a3.342,3.342,0,0,0-1.372-1.9,5.534,5.534,0,0,0-2.488-.843,4.373,4.373,0,0,0-3.23.864,4.292,4.292,0,0,0-1.611,2.914,4.507,4.507,0,0,0,.074,1.412h0v0c0,.011,0,.023.006.034h0a1.044,1.044,0,0,0,.309.57,1.037,1.037,0,0,0,.914.264v0l.026-.006.026,0v0a1.042,1.042,0,0,0,.554-.307,1.059,1.059,0,0,0,.278-.6,1.082,1.082,0,0,0-.015-.33h0a2.777,2.777,0,0,1-.018-.782,2.158,2.158,0,0,1,.779-1.471,2.207,2.207,0,0,1,1.668-.421,2.656,2.656,0,0,1,1.663.682,1.366,1.366,0,0,1,.323.572,2.117,2.117,0,0,1,.049.833,2.765,2.765,0,0,1-.328,1.043,3.363,3.363,0,0,1-1.069,1.108,12.259,12.259,0,0,1-1.587.874l.006,0a12.3,12.3,0,0,0-1.816,1.006,5.6,5.6,0,0,0-1.474,1.5l0,0h0a6.939,6.939,0,0,0-.974,2.305l0,.009,0,.008-.015.094a1.1,1.1,0,0,0,.17.726,1.041,1.041,0,0,0,.657.457h0l.095.015A1.118,1.118,0,0,0,92.738,75a1.058,1.058,0,0,0,.457-.675v0a4.287,4.287,0,0,1,.67-1.573,3.411,3.411,0,0,1,.942-.953,11.746,11.746,0,0,1,1.488-.8h0a10.9,10.9,0,0,0,2.617-1.634,4.928,4.928,0,0,0,1.031-1.318,5.081,5.081,0,0,0,.548-1.8A4.416,4.416,0,0,0,100.393,64.542Z" transform="translate(-57.937 -61.762)"/><path class="a" d="M272.832,84.283a1.331,1.331,0,0,0-.347,2.639v0l.065.009a1.291,1.291,0,0,0,.976-.29,1.408,1.408,0,0,0,.487-.841l0-.019,0-.019a1.32,1.32,0,0,0-.294-.995A1.36,1.36,0,0,0,272.832,84.283Zm8.992-11.229a3.344,3.344,0,0,0-1.372-1.9,5.54,5.54,0,0,0-2.488-.843,4.372,4.372,0,0,0-3.23.864,4.3,4.3,0,0,0-1.611,2.914A4.513,4.513,0,0,0,273.2,75.5h0v0c0,.011,0,.023.006.034h0a1.04,1.04,0,0,0,.31.57,1.036,1.036,0,0,0,.914.264v0l.025-.006.026,0v0a1.04,1.04,0,0,0,.554-.307,1.042,1.042,0,0,0,.262-.928h0a2.774,2.774,0,0,1-.018-.782,2.156,2.156,0,0,1,.78-1.471,2.2,2.2,0,0,1,1.668-.422,2.659,2.659,0,0,1,1.663.682,1.358,1.358,0,0,1,.323.572,2.1,2.1,0,0,1,.049.833,2.765,2.765,0,0,1-.327,1.043,3.366,3.366,0,0,1-1.07,1.108,12.259,12.259,0,0,1-1.587.874l.006,0a12.273,12.273,0,0,0-1.816,1.006,5.6,5.6,0,0,0-1.474,1.5v0h0a6.953,6.953,0,0,0-.974,2.305l0,.008v.009l-.016.094a1.1,1.1,0,0,0,.17.726,1.043,1.043,0,0,0,.657.457h0l.094.015a1.118,1.118,0,0,0,.745-.174,1.061,1.061,0,0,0,.458-.675v0a4.274,4.274,0,0,1,.669-1.573,3.41,3.41,0,0,1,.942-.953,11.753,11.753,0,0,1,1.488-.8h0l0,0a10.888,10.888,0,0,0,2.617-1.633,4.926,4.926,0,0,0,1.03-1.318,5.068,5.068,0,0,0,.548-1.8A4.417,4.417,0,0,0,281.824,73.054Z" transform="translate(-118.975 -64.609)"/><path class="a" d="M440.157,118.27a1.331,1.331,0,0,0-.347,2.639v0l.065.009a1.291,1.291,0,0,0,.975-.29,1.405,1.405,0,0,0,.488-.841l0-.019,0-.019a1.319,1.319,0,0,0-.293-.995A1.364,1.364,0,0,0,440.157,118.27Zm8.991-11.229a3.34,3.34,0,0,0-1.371-1.9,5.54,5.54,0,0,0-2.489-.843,4.371,4.371,0,0,0-3.229.864,4.3,4.3,0,0,0-1.611,2.914,4.508,4.508,0,0,0,.074,1.412h0v0c0,.011,0,.023.005.033h0a1.038,1.038,0,0,0,.309.57,1.038,1.038,0,0,0,.914.264v0l.025-.006.026,0v0a1.042,1.042,0,0,0,.554-.307,1.061,1.061,0,0,0,.278-.6,1.081,1.081,0,0,0-.015-.33h0a2.772,2.772,0,0,1-.018-.781,2.159,2.159,0,0,1,.779-1.471,2.208,2.208,0,0,1,1.669-.422,2.663,2.663,0,0,1,1.663.683,1.359,1.359,0,0,1,.323.572,2.109,2.109,0,0,1,.049.834,2.754,2.754,0,0,1-.328,1.043,3.357,3.357,0,0,1-1.069,1.108,12.262,12.262,0,0,1-1.587.874l.006,0a12.238,12.238,0,0,0-1.816,1.006,5.6,5.6,0,0,0-1.474,1.5l0,0h0a6.933,6.933,0,0,0-.974,2.305l0,.008v.008l-.016.094a1.1,1.1,0,0,0,.17.726,1.037,1.037,0,0,0,.657.457h0l.094.015a1.113,1.113,0,0,0,.745-.173,1.061,1.061,0,0,0,.458-.675v0a4.288,4.288,0,0,1,.669-1.573,3.4,3.4,0,0,1,.942-.953,11.667,11.667,0,0,1,1.488-.8h.005a10.9,10.9,0,0,0,2.617-1.634,4.935,4.935,0,0,0,1.03-1.317,5.067,5.067,0,0,0,.548-1.8A4.414,4.414,0,0,0,449.148,107.042Z" transform="translate(-175.205 -75.978)"/></g><g transform="translate(25.965 73.156)"><g transform="translate(97.513 9.795)"><path class="b" d="M322.6,103.512a12.786,12.786,0,0,0-9.573-9.572,13,13,0,0,0-11.06,2.474,12.861,12.861,0,0,0-4.869,10.106,2.647,2.647,0,0,0,5.294,0,7.644,7.644,0,0,1,9.458-7.418,7.464,7.464,0,0,1,5.588,5.588,7.631,7.631,0,0,1-1.954,7.153,27.3,27.3,0,0,0-8.111,18.986v1.791a2.647,2.647,0,0,0,5.294,0v-1.791a22.042,22.042,0,0,1,6.609-15.292A13,13,0,0,0,322.6,103.512Zm-12.18,34.3a2.832,2.832,0,1,0,2.832,2.832A2.832,2.832,0,0,0,310.422,137.808Z" transform="translate(-214.506 -93.601)"/><g transform="translate(82.594 0.414)"><path class="b" d="M315.186,137.62a2.623,2.623,0,0,0,1.681-.618,2.641,2.641,0,0,1-2.527-2.635v-1.791a27.3,27.3,0,0,1,8.111-18.987,7.631,7.631,0,0,0,1.954-7.153,7.466,7.466,0,0,0-5.588-5.588,7.721,7.721,0,0,0-5.156.551,7.975,7.975,0,0,1,3.356.055,7.463,7.463,0,0,1,5.588,5.588,7.631,7.631,0,0,1-1.954,7.153,27.3,27.3,0,0,0-8.111,18.986v1.791A2.646,2.646,0,0,0,315.186,137.62Z" transform="translate(-302.264 -96.369)"/><path class="b" d="M298.9,106.122a12.9,12.9,0,0,1,7.887-11.9,12.9,12.9,0,0,0-9.688,12.5,2.633,2.633,0,0,0,4.328,2.028A2.64,2.64,0,0,1,298.9,106.122Z" transform="translate(-297.1 -94.224)"/><path class="b" d="M314.663,162.251a2.817,2.817,0,0,1,1.093-2.219c-.021,0-.041-.006-.062-.006a2.832,2.832,0,1,0,1.74,5.051A2.828,2.828,0,0,1,314.663,162.251Z" transform="translate(-302.372 -116.234)"/></g><path class="c" d="M232.933,405.913a1.978,1.978,0,0,1,1.2-.294l2.432-.239-2.225-3.342.375-14.15h-8.851c.32,11.738.513,15.037.6,18.193h.007l3.027.737a2.1,2.1,0,0,0,1.6-.251Z" transform="translate(-190.679 -193.301)"/><path class="d" d="M226.772,414.869h-.007c.043,1.338.065,2.64.065,3.921h11.785a.713.713,0,0,0,.715-.715.671.671,0,0,0-.122-.393l-2.34-3.513h-2.749a1.971,1.971,0,0,0-1.2.293l-1.515.894a2.1,2.1,0,0,1-1.6.251Z" transform="translate(-190.98 -202.088)"/><path class="c" d="M262.776,406.1l7.391,1.388A3.442,3.442,0,0,0,273.6,406.1l.007-.007-3.485-2.733c.214-2.268.713-13.322.713-13.322h-8.6Z" transform="translate(-202.847 -194.019)"/><path class="d" d="M263.044,414.168l.057,3.885.007.737h14.582a.718.718,0,0,0,.444-1.281l-4.257-3.348-.007.007a3.442,3.442,0,0,1-3.435,1.388Z" transform="translate(-203.115 -202.088)"/><path class="c" d="M216.309,237.048l-4.062,3.027a3.133,3.133,0,0,0-.42,2.525,7.759,7.759,0,0,0,1.754,3.121s-3.079.067-3.011.939c.067.89,4.1,1.907,7.144,1.647a64.125,64.125,0,0,1,1.8-8.746Z" transform="translate(-185.562 -142.166)"/><path class="c" d="M299.633,177.537s-9.581,32.958-15.5,32.5a2.256,2.256,0,0,1-.276-.042c-4.923-.7-8.9-10.1-11.01-16.336a29.551,29.551,0,0,1,.678-3.113c2.086-7.548,3.515-11.709,0-18.739l5.59-3.462.011-.011,5.865,28s10.2-22.529,11.36-23.853c1.747-2.011,4.373-1.141,6.205-1.607,1.821-.487,6.276-2.4,7.24-1.135C310.919,171.217,299.633,177.537,299.633,177.537Z" transform="translate(-206.394 -118.956)"/><path class="e" d="M254.777,162.021l-5.6,3.473c3.515,7.03,2.086,11.191,0,18.739a29.54,29.54,0,0,0-.677,3.113,45.174,45.174,0,0,0-.307,12.376H219.554L213,171.063l-5.992,3.991-.487-.837-.445-.751-5.59-9.56-.434-.752a58.891,58.891,0,0,1,12.758-9.56,31.324,31.324,0,0,1,13.594-4.14,6.507,6.507,0,0,0,12.5,0c6.67.159,10.894,2.88,13.477,5.654a16.845,16.845,0,0,1,3.695,6.1Z" transform="translate(-182.045 -112.563)"/><path class="d" d="M261.463,259.331c0,17.194-3.324,52.353-4.225,77.031h-10.1l-4.172-83.3h-4.288l-5.536,83.3H223.032c-.889-24.679-4.224-59.838-4.224-77.031a87.676,87.676,0,0,1,.815-11.836,91.423,91.423,0,0,1,2.393-11.71,69.145,69.145,0,0,1,3.811-10.8h28.638A86.405,86.405,0,0,1,261.463,259.331Z" transform="translate(-188.318 -138.812)"/><path class="f" d="M259.067,135.832a7.528,7.528,0,0,1-.27,2.051c-2.583-2.779-6.808-5.492-13.475-5.66a6.244,6.244,0,0,1-1.072-3.143c3.94.028,6.4-1.76,6.406-1.539a24.868,24.868,0,0,0,0-21.206s-.438,4.28-5.856,7.18c-2.966,1.585-3.917,5.232-3.917,5.232s-.811-3.4-3.087-3.208-1.511,4.849-1.511,4.849l1.7,2.21a8.866,8.866,0,0,1-5.166,9.624,31.454,31.454,0,0,0-13.6,4.14,8.936,8.936,0,0,1,1.874-4.979c1.464-1.772,2.677-1.567,3.637-3.226,1.529-2.649-2.975-4.768-1.856-7.976,1.026-2.947,2.468-3,4.008-5.986,1.893-3.684.077-5.457,1.242-9.066,1.483-4.56,10.146-7.355,15.695-7.168,6.761.224,13.27,5.213,13.736,10,.224,2.387-1.175,3.46-.5,6.565.727,3.422,2.76,3.636,2.928,6.257.224,3.581-3.469,4.392-3.339,8.085C256.745,131.738,259.039,132.5,259.067,135.832Z" transform="translate(-188.456 -95.057)"/><path class="c" d="M184.776,197.2a2.562,2.562,0,0,1-.1-3.642l12.345-12.832-5.58-9.539a.033.033,0,0,1-.011-.021c-4.213,4.351-19.438,20.475-18.389,25.166,1.238,5.452,26.414,22.5,26.414,22.5l4.281-3.819Z" transform="translate(-172.994 -119.93)"/><path class="c" d="M257.487,131.749s-.021.254-.709.572l-.011.011a15.678,15.678,0,0,1-4.722,1.038,17.337,17.337,0,0,0,.106,3.07,6.507,6.507,0,0,1-12.5,0A8.785,8.785,0,0,0,244.867,129v-.011a10.8,10.8,0,0,0-.053-2.17s-1.271-.148-1.694-2.213c-.264-1.249-.762-4.669,1.514-4.849,2.266-.2,3.081,3.208,3.081,3.208s.952-3.652,3.917-5.23c5.42-2.9,5.855-7.189,5.855-7.189A24.879,24.879,0,0,1,257.487,131.749Z" transform="translate(-195.289 -99.268)"/><path class="g" d="M249.031,134.994a7.524,7.524,0,0,1-1.567,2.17,10.8,10.8,0,0,0-.053-2.17A3.609,3.609,0,0,0,249.031,134.994Z" transform="translate(-197.886 -107.447)"/><path class="g" d="M257.131,147.39c-1.535-.254-2.593-3.483-2.593-3.483a21.54,21.54,0,0,0,7.21-.625,15.678,15.678,0,0,1-4.722,1.038A17.342,17.342,0,0,0,257.131,147.39Z" transform="translate(-200.27 -110.219)"/><path class="g" d="M202.373,180.74l-12.345,12.832a2.5,2.5,0,0,0-.709,1.916,1.763,1.763,0,0,1-.2-1.673c.8-1.493,11.37-12.673,11.434-13.107s-3.537-8.978-3.759-9.507Z" transform="translate(-178.342 -119.894)"/><path class="g" d="M283.858,210c-4.923-.7-8.9-10.1-11.01-16.336a29.552,29.552,0,0,1,.678-3.113c2.086-7.548,3.515-11.709,0-18.739l5.59-3.462c-.244.212-4.044,3.589-4.224,3.949s.995,3.038,1.366,9.507C276.617,188.129,277.517,203.026,283.858,210Z" transform="translate(-206.394 -118.961)"/><path class="h" d="M227.453,201.037a71.429,71.429,0,0,1-.011,7.241,48.146,48.146,0,0,1-2.509,13.171c-2.89,8.194-4.383,31.126-2.7,47.335,1.228,11.868,1.3,37.807,1.249,50.871H220.01c-.889-24.679-4.224-59.838-4.224-77.031a87.675,87.675,0,0,1,.815-11.836,91.429,91.429,0,0,1,2.393-11.71,69.147,69.147,0,0,1,3.811-10.8l-6.553-28.659-5.992,3.991-.487-.837,9.221-7.739s3.143,9.658,4.635,12.019,7.688,4.952,7.688,4.952S227.262,196.928,227.453,201.037Z" transform="translate(-185.296 -122.104)"/></g><g transform="translate(200.717 0)"><path class="f" d="M433.978,172.473l-12.292-3.741c-.783,1.572-1.978,3.94-3.992,3.726a.479.479,0,0,1-.229-.1c-2.354-1.756-7.024-25.588-8.293-32.287a7.881,7.881,0,0,0,5.5.059,6.315,6.315,0,0,0,3.733-3.047h9.1c7.157.465,10.543,1.572,12.189,5.371C442.034,147.867,440.072,159.06,433.978,172.473Z" transform="translate(-355.474 -98.603)"/><path class="f" d="M426.825,406.217v9.916H409.25a2.108,2.108,0,0,1-2.118-2.125,1.663,1.663,0,0,1,.007-.192,2.068,2.068,0,0,1,.649-1.321l6.559-6.278Z" transform="translate(-354.791 -189.636)"/><path class="i" d="M415.555,263.289V358.41H403.078s-5.769-74.513-7.1-91.631h-2.7V358.41h-12.47l-7.371-95.121Z" transform="translate(-343.522 -141.828)"/><path class="f" d="M409.625,173.481V221.1H363.836l1.69-57.1-8.308,6.139-1.431-1.3-.25-.229-10.322-9.348-.487-.583,12.336-13.841c6.582-5.873,13.384-7.26,22.15-7.681a10.208,10.208,0,0,0,1.874,3.557c1.8,2.036,1.764,17.944,2.442,23.175,1.3,9.917,5.608,21.087,11.48,21.8a5.425,5.425,0,0,0,3.269-.671C401.509,183.309,404.025,175.525,409.625,173.481Z" transform="translate(-333.917 -98.716)"/><path class="j" d="M434.9,191.737v47.619H420.28V203.941a5.425,5.425,0,0,0,3.269-.671C426.781,201.565,429.3,193.781,434.9,191.737Z" transform="translate(-359.189 -117.158)"/><path class="d" d="M423.543,90.87c0,4.648-3.1,13.563-8.968,18.919,0-1.758-.085-3.536-.085-5.156l1.313-1.207a3.736,3.736,0,0,0,1.111-3.5c-.212-.985-.677-1.927-1.631-2.012-2.075-.2-1.895,5.23-3.525,5.675s0-6,0-6l-1.514-2.064a3.839,3.839,0,0,0,.043-.6,4.5,4.5,0,0,0-3.716-4.415,68.59,68.59,0,0,1-7.877-1.821,17.3,17.3,0,0,1-2.848-1.1c-4.066-2.128-2.255-7.8.265-8.586s6.458,2.848,9.168,2.266,5.421-1.229,7.358-.582,1.736,3.61,4.129,4.457S423.543,86.223,423.543,90.87Z" transform="translate(-350.215 -78.883)"/><path class="c" d="M417.173,108.35l-1.313,1.207c0,1.62.084,3.4.084,5.156,0,2.869.212,8.48.212,8.48a9.869,9.869,0,0,1-4.807,2.51,15.7,15.7,0,0,1-4.15.222,6.716,6.716,0,0,1-1.916-.4c-.212-1.111-.328-1.747-.328-1.747s1.027-9.634,1.027-9.983a7.152,7.152,0,0,0-3.875-3.854c-.021,0-.031-.011-.053-.021a7.807,7.807,0,0,0-.995-.339c-.032-.011-.053-.021-.085-.032a8.978,8.978,0,0,0-2.223-.276,5.081,5.081,0,0,0-1.091.116,35.686,35.686,0,0,1,2.4-15.785,68.6,68.6,0,0,0,7.877,1.821,4.5,4.5,0,0,1,3.716,4.415,3.839,3.839,0,0,1-.043.6l1.514,2.064s-1.641,6.458,0,6,1.45-5.876,3.525-5.675c.953.085,1.419,1.027,1.631,2.012A3.736,3.736,0,0,1,417.173,108.35Z" transform="translate(-351.584 -83.806)"/><path class="f" d="M393.361,406.217v9.916H375.8a2.116,2.116,0,0,1-2.11-2.317,2.052,2.052,0,0,1,.649-1.321l6.552-6.278Z" transform="translate(-343.603 -189.636)"/><path class="c" d="M362.925,210.167l-.344,11.659c-2.933.783-5.962-.16-6.152-.837s3.589-1.556,3.387-2.424c-.106-.487-1.81-.434-3.314-.3a3.474,3.474,0,0,1-3.3-1.62,1.137,1.137,0,0,1-.1-.148l-.752-1.334s-1.154-.921-2.911-2.393c-2.637-2.2-6.639-5.643-10.153-9.041A7.6,7.6,0,0,1,342.147,198a7.439,7.439,0,0,1,3.79-1.588c1.476,1.922,4.463,7.44,7.93,10.693.646.508,1.355,1.048,2.107,1.588a7.536,7.536,0,0,1,3.091-.381A7.4,7.4,0,0,1,362.925,210.167Z" transform="translate(-332.099 -118.685)"/><path class="c" d="M348.729,178.474l-1.44,1.377-2.679,2.572a12.911,12.911,0,0,0-13.318,8.025,18.3,18.3,0,0,1-2.562-3.589c-2.043-4.2,9.327-14.886,10.873-16.326.116-.106.18-.158.18-.158Z" transform="translate(-328.485 -109.856)"/><path class="i" d="M349.687,212.473s-1.154-.921-2.912-2.393a26.528,26.528,0,0,0-5.187,15.51v1.789a2.647,2.647,0,0,0,5.293,0V225.59a21.078,21.078,0,0,1,3.652-11.635,1.121,1.121,0,0,1-.1-.148Zm7.125-14.2a12.776,12.776,0,0,0-9.285-9.5c-.1-.031-.19-.053-.286-.074a12.906,12.906,0,0,0-15.922,12.578,2.647,2.647,0,1,0,5.294,0,1.869,1.869,0,0,1,.011-.244,7.6,7.6,0,0,1,2.858-5.728,7.439,7.439,0,0,1,3.79-1.588,7.836,7.836,0,0,1,2.8.138,7.487,7.487,0,0,1,5.59,5.59,7.83,7.83,0,0,1-.455,4.965c.646.508,1.355,1.047,2.107,1.588a7.537,7.537,0,0,1,3.091-.381A13.2,13.2,0,0,0,356.812,198.275Zm-12.175,34.291a2.832,2.832,0,1,0,2.827,2.838A2.838,2.838,0,0,0,344.637,232.567Z" transform="translate(-329.433 -116.02)"/><g transform="translate(2.892 72.64)"><path class="b" d="M350.474,254.783c-.065,0-.125.015-.189.019a2.816,2.816,0,0,1-1.515,5.067,2.828,2.828,0,1,0,1.7-5.086Z" transform="translate(-338.162 -210.878)"/><path class="b" d="M346.011,196.137a7.313,7.313,0,0,0-1.324-.459,7.836,7.836,0,0,0-2.8-.138,7.439,7.439,0,0,0-3.79,1.588,7.6,7.6,0,0,0-2.858,5.728,1.849,1.849,0,0,0-.011.243,2.639,2.639,0,0,1-2.4,2.622,2.633,2.633,0,0,0,4.287-2.062,1.875,1.875,0,0,1,.011-.244,7.6,7.6,0,0,1,2.858-5.728,7.439,7.439,0,0,1,3.79-1.588A7.59,7.59,0,0,1,346.011,196.137Z" transform="translate(-332.831 -191.039)"/><path class="b" d="M364.707,198.425a12.776,12.776,0,0,0-9.285-9.5c-.1-.031-.19-.053-.286-.074-.071-.017-.143-.028-.214-.043a12.787,12.787,0,0,1,7.9,9.054,13.2,13.2,0,0,1-.413,7.347,7.228,7.228,0,0,0-2.274.153q.517.39,1.069.788a7.536,7.536,0,0,1,3.091-.381A13.2,13.2,0,0,0,364.707,198.425Z" transform="translate(-340.22 -188.811)"/><path class="b" d="M355.354,223.387s-1.154-.921-2.912-2.393c-.152.211-.3.425-.443.638.913.751,1.468,1.195,1.468,1.195l.752,1.334a1.155,1.155,0,0,0,.1.148,21.086,21.086,0,0,0-3.652,11.635v1.79a2.639,2.639,0,0,1-2.4,2.622,2.633,2.633,0,0,0,4.287-2.062V236.5a21.078,21.078,0,0,1,3.652-11.635,1.123,1.123,0,0,1-.1-.148Z" transform="translate(-337.992 -199.576)"/></g><path class="g" d="M409.492,134.135a6.715,6.715,0,0,1-1.916-.4c-.212-1.111-.328-1.747-.328-1.747s1.027-9.634,1.027-9.983a7.152,7.152,0,0,0-3.875-3.854c2.552.964,4.479,2.16,5.336,3.462C410.456,122.711,409.853,130.27,409.492,134.135Z" transform="translate(-353.878 -92.016)"/><path class="g" d="M354.317,178.474l-1.44,1.377c-1.471-1.779-5.241-6.352-7.686-9.317.117-.106.18-.158.18-.158Z" transform="translate(-334.073 -109.838)"/><path class="c" d="M426.568,165.349c-.17.361-.383.775-.642,1.247a28.73,28.73,0,0,1-4.331,5.9,29.258,29.258,0,0,1-7.673,5.821c-7.518,3.97-14.432-8.551-15.959-20.224-.679-5.231.568-22.039-1.232-24.075a10.206,10.206,0,0,1-1.874-3.556,8.63,8.63,0,0,1-.369-5.106c.376-1.033,1.513-3.194.376-3.638s-1.468,2.914-3.047,2.509c-.775-.192-.369-6.087,3.821-6.965a5.106,5.106,0,0,1,1.092-.118,7.576,7.576,0,0,1,7.231,4.523c0,.347-1.026,9.983-1.026,9.983s.11.634.325,1.748c1.313,6.921,8.522,32.391,8.522,32.391s1.852-1.5,3.239-2.936c.273-.288.524-.568.745-.841l.008.051Z" transform="translate(-349.562 -91.682)"/><path class="j" d="M424.5,175.755l1.35.413c-.783,1.572-1.978,3.94-3.992,3.726a.479.479,0,0,1-.229-.1c.561-3.541,1.793-10.455,3.3-13.908a14.78,14.78,0,0,1,5.106-6.574Z" transform="translate(-359.642 -106.111)"/><path class="g" d="M438.391,187.9c-.17.361-.383.775-.641,1.247l-10.905-3.741c.273-.288.524-.568.745-.841l.008.051Z" transform="translate(-361.385 -114.63)"/><path class="b" d="M415.555,263.289v95.12h-3.719l-3.062-93.4-35.334-1.719Z" transform="translate(-343.522 -141.828)"/><path class="b" d="M401.049,268.533v91.63h-3.564l-.819-91.63Z" transform="translate(-351.291 -143.582)"/><path class="k" d="M373.691,417.636h19.671v2.317H375.8A2.116,2.116,0,0,1,373.691,417.636Z" transform="translate(-343.603 -193.455)"/><path class="k" d="M426.825,417.636v2.317H409.25a2.108,2.108,0,0,1-2.118-2.125,1.663,1.663,0,0,1,.007-.192Z" transform="translate(-354.791 -193.455)"/><path class="g" d="M424.031,117.576a4.217,4.217,0,0,1-2.056.381,2.686,2.686,0,0,0,1.028.758C423.447,118.8,424.031,117.576,424.031,117.576Z" transform="translate(-359.756 -91.825)"/><path class="j" d="M371.084,163.666v9.2l-8.308,6.139-1.431-1.3Z" transform="translate(-339.476 -107.577)"/></g><g transform="translate(0 11.115)"><path class="i" d="M116.141,312.04l-15.616,43.047a11.524,11.524,0,0,1-9.846-4.478l8.883-40.94-7.22-38.833H88.816l-2.15,88.487c-3.017,1.249-8.364,1.112-11.794.064l-5.325-91.112-.116-2.064h41.364l.265,1.567,5.886,35.456A17.432,17.432,0,0,1,116.141,312.04Z" transform="translate(-40.504 -153.92)"/><path class="c" d="M136.228,221.839s2.043,6.014.455,8.4a10.569,10.569,0,0,1-1.175,1.419,18.489,18.489,0,0,1-3.6,2.731,139.656,139.656,0,0,1-2.329-16.569,13.319,13.319,0,0,1,3.981,4.023Z" transform="translate(-60.622 -136.983)"/><path class="d" d="M115.392,409.521a2.631,2.631,0,0,1-.48.8c-.753.878-2.073.959-4.405.339-1.461-.391-4.168-2.309-6.589-4.567-2.715-2.546-5.12-5.224-5.12-5.224l.421-1.926,1.284-5.924a11.5,11.5,0,0,0,9.843,4.478l2.25,7.379S116.033,407.913,115.392,409.521Z" transform="translate(-50.327 -196.338)"/><path class="c" d="M108.028,125.933c-.868,1.016-5.093.624-5.093.624v1.832a6.9,6.9,0,0,1-13.731.116v-5.24c3.948.138,3.748-3.091,3.748-3.091a4.848,4.848,0,0,1-2.319-3.431c-.138-2.17,2.382-3.853,3.409-3.451s.635,6.035,2.551,5.485c.53-.159.668-2.424.689-3.674a2.069,2.069,0,0,1,.614-1.408l.572-.582a1.97,1.97,0,0,0,.519-.868l1.111-3.7a16.97,16.97,0,0,0,8.787-3.017C112.147,113.842,108.908,124.916,108.028,125.933Z" transform="translate(-47.118 -98.908)"/><path class="d" d="M97.039,416.1H78.195l-.126-2.1-.457-7.821c3.431,1.047,8.773,1.188,11.79-.067l6.2,5.711,2.279,2.1a.377.377,0,0,1,.074.082A1.247,1.247,0,0,1,97.039,416.1Z" transform="translate(-43.24 -200.718)"/><path class="l" d="M119.516,177.191c-1.694-9.772-19.3-30.13-22.868-32.639C93.5,142.328,84,140.327,81.783,139.882A6.9,6.9,0,0,1,68.052,140c-3.557.974-18.845,5.241-21.5,6.7-3.007,1.652-17.977,16.865-20.433,36.5-1.535,12.313,8.756,21.651,22.677,23.9v6.141l3.165,3.165v7.549h44.3v-8.576l2.022-2.023c-.371-1.715-.709-3.387-1.027-5.039a139.658,139.658,0,0,1-2.329-16.569,91.473,91.473,0,0,1,.815-21.068s9.5,3.494,10.079,9.772a10.112,10.112,0,0,1-1.609,6.31,15.583,15.583,0,0,1-3.865,4.161v2.89l-1.44,1.959h2.668s2.043,6.014.455,8.4a10.568,10.568,0,0,1-1.175,1.419,3.942,3.942,0,0,0,3.335-1.959,34.74,34.74,0,0,0,5.675-1.853C112.115,200.715,121.623,189.388,119.516,177.191Zm-70.722,13.8c-2.827-.794-5.22-2.2-6.2-4.616a11.354,11.354,0,0,1-.815-3.208,5.654,5.654,0,0,1-.053-.582.02.02,0,0,1,0-.032A9.592,9.592,0,0,1,41.933,180c1.165-5.781,6.861-9.317,6.861-9.317Zm28.744,24.869a2.832,2.832,0,1,1,2.827-2.838A2.838,2.838,0,0,1,77.538,215.855Zm9.523-27.373a35.018,35.018,0,0,1-1.551,5.076v2.192a4.41,4.41,0,0,1-4.415,4.4H80.026a19.591,19.591,0,0,0-.244,3.049V205a2.647,2.647,0,1,1-5.294,0v-1.8a22.551,22.551,0,0,1,.2-3.049H70.667v-7.21h2.1l1.281-4.161a3.1,3.1,0,0,1,1.842-1.991l6.8-2.668a7.612,7.612,0,0,0,1.873-7.061,7.456,7.456,0,0,0-5.59-5.58,7.635,7.635,0,0,0-9.454,7.411,2.647,2.647,0,0,1-5.294,0,12.836,12.836,0,0,1,4.87-10.1,12.983,12.983,0,0,1,11.053-2.477,12.79,12.79,0,0,1,9.571,9.571,12.971,12.971,0,0,1-2.732,11.36C87.373,187.46,87.216,187.933,87.06,188.482Z" transform="translate(-25.965 -110.402)"/><path class="h" d="M84.566,218.455v-.8H81.777s-.978-.516-1.585-.749-12.675,0-12.675,0,11.6-.839,13.7-.745a9.74,9.74,0,0,1,4.637,1.495,2.419,2.419,0,0,1,.512.8h-1.8" transform="translate(-39.864 -136.385)"/><path class="m" d="M106.932,102.2a16.97,16.97,0,0,1-8.787,3.017l-1.111,3.7a1.966,1.966,0,0,1-.519.868l-.572.582a2.073,2.073,0,0,0-.614,1.408c-.021,1.249-.158,3.515-.688,3.674-1.916.55-1.524-5.082-2.551-5.484s-3.547,1.281-3.409,3.451A4.848,4.848,0,0,0,91,116.85s.2,3.229-3.748,3.091c-.488-.017-1.576-2.458-1.753-2.81a17.7,17.7,0,0,1-.905-14.843,11.293,11.293,0,0,1,1.491-2.682,2.86,2.86,0,0,1,1.487-.91c.581-.192,1.483-.066,1.981-.3.453-.213.561-.865.972-1.215a5.636,5.636,0,0,1,2.237-.825,29.9,29.9,0,0,1,10.21-.574c1.69.2,4.163.677,5.12,2.251C109.093,99.68,108.323,101.2,106.932,102.2Z" transform="translate(-45.163 -95.585)"/><path class="i" d="M108.94,189.005a12.79,12.79,0,0,0-9.571-9.571,12.983,12.983,0,0,0-11.053,2.477,12.836,12.836,0,0,0-4.87,10.1,2.647,2.647,0,1,0,5.294,0,7.635,7.635,0,0,1,9.454-7.411,7.457,7.457,0,0,1,5.59,5.58,7.612,7.612,0,0,1-1.873,7.061.649.649,0,0,1-.085.1,31.5,31.5,0,0,0-2.986,3.568c1.959-.6,5.654-1.524,7.369-.54A12.971,12.971,0,0,0,108.94,189.005ZM96.362,220.766a2.648,2.648,0,0,0,2.647-2.647v-1.8a19.6,19.6,0,0,1,.244-3.049H93.917a22.558,22.558,0,0,0-.2,3.049v1.8A2.648,2.648,0,0,0,96.362,220.766Zm.4,2.541a2.832,2.832,0,1,0,2.827,2.826A2.828,2.828,0,0,0,96.764,223.307Z" transform="translate(-45.191 -123.939)"/><g transform="translate(38.254 55.173)"><path class="h" d="M85.549,191.742a12.919,12.919,0,0,1,10.184-12.621,12.921,12.921,0,0,0-12.287,12.9,2.633,2.633,0,0,0,4.019,2.253A2.64,2.64,0,0,1,85.549,191.742Z" transform="translate(-83.446 -179.121)"/><path class="h" d="M110.546,199.485a7.614,7.614,0,0,0,1.874-7.062,7.459,7.459,0,0,0-5.59-5.58,7.821,7.821,0,0,0-3.853.066,8.239,8.239,0,0,1,1.75.213,7.458,7.458,0,0,1,5.59,5.58,7.612,7.612,0,0,1-1.873,7.061.65.65,0,0,1-.085.1,31.5,31.5,0,0,0-2.986,3.568c.645-.2,1.479-.431,2.367-.618a31.178,31.178,0,0,1,2.722-3.228A.769.769,0,0,0,110.546,199.485Z" transform="translate(-89.979 -181.634)"/><path class="h" d="M101.524,237.943a2.621,2.621,0,0,0,1.372-.394,2.64,2.64,0,0,1-1.915-2.532v-1.8a22.693,22.693,0,0,1,.174-2.771H99.078a22.555,22.555,0,0,0-.2,3.049v1.8A2.648,2.648,0,0,0,101.524,237.943Z" transform="translate(-88.607 -196.289)"/><path class="h" d="M101.3,248.076a2.81,2.81,0,0,1,1.442-2.449,2.829,2.829,0,1,0-.708,5.565,2.792,2.792,0,0,0,1.391-.38A2.831,2.831,0,0,1,101.3,248.076Z" transform="translate(-88.714 -201.333)"/><path class="a" d="M113.739,210.28a4.885,4.885,0,0,1,2.6.419c.192-.224.371-.455.546-.69A12.233,12.233,0,0,0,113.739,210.28Z" transform="translate(-93.579 -189.446)"/></g><path class="c" d="M98.354,209.03l6.8-2.668a.648.648,0,0,1-.085.1,31.456,31.456,0,0,0-2.985,3.568c1.959-.6,5.654-1.525,7.369-.54a1.679,1.679,0,0,1,.826.974c.083,1.326-1.389,3.275-1.389,3.275l-.908,4.252a4.41,4.41,0,0,1-4.415,4.4H93.134v-7.21h2.1l1.281-4.161A3.1,3.1,0,0,1,98.354,209.03Z" transform="translate(-48.432 -133.103)"/><path class="h" d="M86.164,230.447s-1.3,3.356-8.438,6.395-17.458,3.6-17.458,3.6v-3.049c10.51,0,14.238-1.948,15.683-2.847,1.629-1.014,2.474-2.7,3.024-2.8s3.166-.233,3.166-.233v-1.069Z" transform="translate(-37.439 -141.243)"/><path class="h" d="M85.952,142.825c.031.932,2.206,3.853,4.318,4.971a7.717,7.717,0,0,1-3.51-1.864A3.869,3.869,0,0,1,85.952,142.825Z" transform="translate(-46.011 -111.386)"/><path class="n" d="M49.636,204.04a5.652,5.652,0,0,0,.053.582l-.064-.064C49.625,204.389,49.625,204.209,49.636,204.04Z" transform="translate(-33.879 -132.284)"/><path class="h" d="M59.234,177.553,57.5,203.587H56.82V183.28s-5.7,3.536-6.861,9.317C51.367,183.238,59.234,177.553,59.234,177.553Z" transform="translate(-33.991 -123.364)"/><path class="h" d="M139.274,198.521a10.112,10.112,0,0,0,1.609-6.31c-.582-6.278-10.079-9.772-10.079-9.772l1.821-7.4s10.693,7.951,10.439,15.278A11.523,11.523,0,0,1,139.274,198.521Z" transform="translate(-61.032 -122.507)"/><path class="h" d="M111.059,267.775l-41.512.5-.116-2.065h41.364Z" transform="translate(-40.504 -153.325)"/><path class="g" d="M94.836,127.538a4.093,4.093,0,0,0,2.416,0s-.273,1.522-1.209,1.475S94.836,127.538,94.836,127.538Z" transform="translate(-49.001 -106.273)"/><path class="g" d="M112.956,136.1c-.868,1.016-5.093.624-5.093.624v1.535a7.441,7.441,0,0,1-3.927-2.34A79.9,79.9,0,0,0,112.956,136.1Z" transform="translate(-52.045 -109.077)"/><path class="h" d="M97.269,420.064H78.425l-.126-2.1H98.183A1.247,1.247,0,0,1,97.269,420.064Z" transform="translate(-43.47 -204.682)"/><path class="h" d="M114.912,413.3c-.753.878-2.073.959-4.405.339-1.461-.391-4.168-2.309-6.589-4.567-2.715-2.546-5.12-5.224-5.12-5.224l.421-1.926c1.7,2.015,5.7,6.633,8.094,8.463C109.821,412.307,112.639,414.086,114.912,413.3Z" transform="translate(-50.327 -199.316)"/><path class="h" d="M118.18,253.323s-7.61.844-14.8,1.469a102.4,102.4,0,0,1-11.873.429,153.468,153.468,0,0,0,18.005.029c7.968-.615,8.664-.831,8.664-.831Z" transform="translate(-47.889 -148.965)"/></g></g></g></svg>